<mxfile host="65bd71144e">
    <diagram id="kLfuBiLX6HGJAumW9ARL" name="vagrant-kube-single-node">
        <mxGraphModel dx="1172" dy="629" grid="0" gridSize="10" guides="1" tooltips="1" connect="1" arrows="1" fold="1" page="1" pageScale="1" pageWidth="1100" pageHeight="850" math="0" shadow="0">
            <root>
                <mxCell id="0"/>
                <mxCell id="1" parent="0"/>
                <mxCell id="orFKSU1flKvuJub6Z8mY-1" value="Host (workstation)" style="rounded=1;whiteSpace=wrap;html=1;verticalAlign=bottom;align=center;arcSize=1;" parent="1" vertex="1">
                    <mxGeometry x="144" y="161" width="760" height="440" as="geometry"/>
                </mxCell>
                <mxCell id="orFKSU1flKvuJub6Z8mY-3" value="Guest (VM)" style="rounded=0;whiteSpace=wrap;html=1;verticalAlign=bottom;align=center;" parent="1" vertex="1">
                    <mxGeometry x="154" y="211" width="740" height="236" as="geometry"/>
                </mxCell>
                <mxCell id="orFKSU1flKvuJub6Z8mY-7" value="VirtualBox internal network&lt;br&gt;10.10.0.0/24" style="rounded=1;whiteSpace=wrap;html=1;strokeColor=none;verticalAlign=top;fillColor=#FFCC99;spacingTop=2;arcSize=5;sketch=1;" parent="1" vertex="1">
                    <mxGeometry x="418" y="229" width="211" height="192" as="geometry"/>
                </mxCell>
                <mxCell id="21" value="Store &lt;br&gt;persistent &lt;br&gt;data" style="edgeStyle=orthogonalEdgeStyle;html=1;entryX=0.25;entryY=0;entryDx=0;entryDy=0;" parent="1" source="orFKSU1flKvuJub6Z8mY-4" target="19" edge="1">
                    <mxGeometry x="-0.3027" relative="1" as="geometry">
                        <mxPoint as="offset"/>
                    </mxGeometry>
                </mxCell>
                <mxCell id="orFKSU1flKvuJub6Z8mY-4" value="Kubernetes Cluster (Single-node)" style="rounded=0;whiteSpace=wrap;html=1;verticalAlign=bottom;fillColor=none;" parent="1" vertex="1">
                    <mxGeometry x="429" y="272" width="190" height="138" as="geometry"/>
                </mxCell>
                <mxCell id="orFKSU1flKvuJub6Z8mY-5" value="EDP" style="rounded=0;whiteSpace=wrap;html=1;verticalAlign=bottom;fillColor=default;" parent="1" vertex="1">
                    <mxGeometry x="439" y="282" width="170" height="106" as="geometry"/>
                </mxCell>
                <mxCell id="orFKSU1flKvuJub6Z8mY-6" value="VirtualBox host-only network&lt;br&gt;192.168.56.0/24" style="rounded=1;whiteSpace=wrap;html=1;fillColor=#00FF00;strokeColor=none;verticalAlign=top;spacingTop=5;arcSize=5;sketch=1;" parent="1" vertex="1">
                    <mxGeometry x="144" y="161" width="200" height="440" as="geometry"/>
                </mxCell>
                <mxCell id="orFKSU1flKvuJub6Z8mY-9" value="VirtualBox NAT network&lt;br&gt;10.0.4.15/24" style="rounded=1;whiteSpace=wrap;html=1;strokeColor=none;verticalAlign=top;spacingTop=15;fillColor=#99CCFF;arcSize=2;shadow=0;sketch=1;" parent="1" vertex="1">
                    <mxGeometry x="704" y="91" width="190" height="223" as="geometry"/>
                </mxCell>
                <mxCell id="orFKSU1flKvuJub6Z8mY-10" value="Internet" style="ellipse;shape=cloud;whiteSpace=wrap;html=1;fillColor=#99CCFF;gradientColor=none;opacity=40;align=center;shadow=0;sketch=0;" parent="1" vertex="1">
                    <mxGeometry x="654" y="10" width="290" height="103" as="geometry"/>
                </mxCell>
                <mxCell id="orFKSU1flKvuJub6Z8mY-12" value="" style="edgeStyle=orthogonalEdgeStyle;rounded=0;orthogonalLoop=1;jettySize=auto;html=1;entryX=0;entryY=0.5;entryDx=0;entryDy=0;exitX=1;exitY=0.5;exitDx=0;exitDy=0;" parent="1" source="orFKSU1flKvuJub6Z8mY-8" target="orFKSU1flKvuJub6Z8mY-4" edge="1">
                    <mxGeometry relative="1" as="geometry">
                        <Array as="points"/>
                    </mxGeometry>
                </mxCell>
                <mxCell id="orFKSU1flKvuJub6Z8mY-11" value="Browser" style="shape=note;whiteSpace=wrap;html=1;backgroundOutline=1;darkOpacity=0.05;gradientColor=none;opacity=40;align=center;fillColor=#FF9999;" parent="1" vertex="1">
                    <mxGeometry x="360" y="468" width="80" height="100" as="geometry"/>
                </mxCell>
                <mxCell id="orFKSU1flKvuJub6Z8mY-8" value="HAproxy" style="shape=hexagon;perimeter=hexagonPerimeter2;whiteSpace=wrap;html=1;fixedSize=1;fillColor=#FFCC99;gradientColor=#00FF00;opacity=40;gradientDirection=west;" parent="1" vertex="1">
                    <mxGeometry x="325" y="321" width="85" height="40" as="geometry"/>
                </mxCell>
                <mxCell id="orFKSU1flKvuJub6Z8mY-13" value="Send&lt;br&gt;HTTP/HTTPS&lt;br&gt;requests" style="edgeStyle=orthogonalEdgeStyle;rounded=1;orthogonalLoop=1;jettySize=auto;html=1;entryX=0;entryY=0.5;entryDx=0;entryDy=0;" parent="1" source="orFKSU1flKvuJub6Z8mY-11" target="orFKSU1flKvuJub6Z8mY-8" edge="1">
                    <mxGeometry x="0.2652" relative="1" as="geometry">
                        <mxPoint x="429" y="491" as="sourcePoint"/>
                        <mxPoint x="429" y="327" as="targetPoint"/>
                        <Array as="points">
                            <mxPoint x="274" y="517"/>
                            <mxPoint x="274" y="341"/>
                        </Array>
                        <mxPoint as="offset"/>
                    </mxGeometry>
                </mxCell>
                <mxCell id="3" value="Create VM" style="edgeStyle=none;html=1;" parent="1" source="4" target="orFKSU1flKvuJub6Z8mY-3" edge="1">
                    <mxGeometry relative="1" as="geometry"/>
                </mxCell>
                <mxCell id="5" value="" style="edgeStyle=orthogonalEdgeStyle;html=1;" parent="1" source="2" target="4" edge="1">
                    <mxGeometry relative="1" as="geometry"/>
                </mxCell>
                <mxCell id="7" value="" style="edgeStyle=orthogonalEdgeStyle;html=1;" parent="1" source="2" target="6" edge="1">
                    <mxGeometry relative="1" as="geometry"/>
                </mxCell>
                <mxCell id="2" value="Vagrant" style="rounded=0;whiteSpace=wrap;html=1;verticalAlign=bottom;fillColor=#e1d5e7;strokeColor=#9673a6;" parent="1" vertex="1">
                    <mxGeometry x="586" y="547" width="61" height="20" as="geometry"/>
                </mxCell>
                <mxCell id="4" value="Virtualbox" style="rounded=0;whiteSpace=wrap;html=1;verticalAlign=bottom;fillColor=#e1d5e7;strokeColor=#9673a6;" parent="1" vertex="1">
                    <mxGeometry x="494" y="490" width="60" height="20" as="geometry"/>
                </mxCell>
                <mxCell id="6" value="Ansible" style="rounded=0;whiteSpace=wrap;html=1;verticalAlign=bottom;fillColor=#e1d5e7;strokeColor=#9673a6;" parent="1" vertex="1">
                    <mxGeometry x="679.4" y="490" width="60" height="20" as="geometry"/>
                </mxCell>
                <mxCell id="8" value="Setup VM" style="edgeStyle=none;html=1;entryX=0.75;entryY=1;entryDx=0;entryDy=0;" parent="1" source="6" target="orFKSU1flKvuJub6Z8mY-3" edge="1">
                    <mxGeometry relative="1" as="geometry">
                        <mxPoint x="534.0000000000002" y="557" as="sourcePoint"/>
                        <mxPoint x="534.0000000000002" y="507" as="targetPoint"/>
                    </mxGeometry>
                </mxCell>
                <mxCell id="13" value="" style="shape=image;verticalLabelPosition=bottom;labelBackgroundColor=#ffffff;verticalAlign=top;aspect=fixed;imageAspect=0;image=data:image/png,iVBORw0KGgoAAAANSUhEUgAAAIUAAACHCAYAAAA4Epo3AAAAAXNSR0IArs4c6QAAAARnQU1BAACxjwv8YQUAAAAJcEhZcwAAFxEAABcRAcom8z8AABn6SURBVHhe7V0JlBTVuW4VTIJGjDhM194zjM5U9QBJJtHn04TsMcbERINLokaNkmiCM13VPQOyDC5JzvO9Z8JzCxr1SJ6PhMQDTnC6q7pnIQiCjERZ1MAjccMFkCcKyBLs9/23brc90z0bTA8jc79z7umuu9Wt+3/3//9761ZVQEBAQEBAQEBAQEBAQEBAQEBAQEBAQEBAQEBAQEBgOCFYUVEiy1Wn0/+KlVNPKo3XhVmCwLDEMaphfV81wn/TDHMGRahtkQrJc7bLrbFflLrOWJZLYHhA0sNnq7r1uBYKp/XyCWlVN2MUH2xxDDkZTaurZqallLNR8qLXBTqmjGSFBI5O6Pr4ck237lZC1nt62fg0NEVaC1UTKaKUTqSQXGe/3BJLK3+ZxoKcctqllP1VVoHA0YMxYyo/ToLXDOtVIgNpCCJET6SQPSfNtMbym4gYB2XXni/8jaMEil55EYTfoZdVdyJDn0iRCThWV8xIS0lnh+RGb5aa7FNZ5QIfLqiqdYYWshYRETQQoisZMkELjU8rhjWNypS2NYQyJOhECh6U9oa0suKmNJzRF2QvcvWktsYR7GQCQxvyuLCmhqxfQeC7fL8hXztkAmkJIoyiW9dRWe2JmAyB71BXzoTJiBYkBgVlGfyNpQ0gh92iuHVfYicWGHqQJGmUEqq+ESR4savf0DWwWQflMcLrMAv5QSAwyR/xaUxTk85nIfjFcmt9WnliOvyKwsQg0ijkbySdA5IbeUBq+lkVq0NgaEDWrG+DDCt9MnRvKlROBvx/k9YmMBv5BK8iD0oyehEczQ4iBmmFgsSgQP7GkzOIHFsRZupLpnVbp8AgQDbMT4EMCzHie/QbKHAy7FdC4QcyK5i9oaSt8cRgMmrLLdFXydGU2+oLEwOB/A02U0lG10mJuh8EGhuP5dUIDAZ0vUqCc3g7CLHTF3YvfgPTHuEkfIdDsv+l8dqQ0hK9E1phDyNHd/4GTI2yDJoFBMFxXIvXfY5XIVA0VFR8BFrhegh7s28qevcb4DM8rxnWVVm/4TAgx2vPUlpiTWwWAuH35G/46xvRvVLSvrekeeo4XoXAQEIxzG9gtC/7YOQXJkPGbwB5tqPMzXTDi1cxYIDgLwY51pDge/I3lFbub7TEdsoJOxpY2Hg8r0Lg8DD5OAh7Lkb++737DSz9IMJ8TTOLuvo4ZnHs4xB2DH7GFvVJkAMEyCMFCMNmMKnoWkxfLwuk08fw4gKHg9LSCSdgxG/QypmjWDAw7QFCwEy0q6HKr/Oig4JS1ykDIe6RW2N71RXMZPgagnyPpPOK4joRqalxFM9OOI7/ChwqJKlmFEixupCWyPgNihHepISs6yrgc/Bigw7JjZ4NrfE4LWxJSWef7NlzadmcJwdIc8HRvbvYGmxYoFtSkJMZMncg/LLEsII8+5HGsXLKuVRqts/hxwHDME5W9fBMEHgbkZim0TxJ4FDRHSnYsW7N5tmGJGi1FFPnteTr+P6OuUspq57AkwUOFT2RQguZtTzbkIKmVcqqZv45d6ZEWkKQYoDQo6YwLIdnG1JQ1apJtKCWO3UWpBhAFJMU1sLJx5csvOFEqWnKqNL5zglWzjpCJaacwaUNn9daov1eeNI06xxFN/f5RBCkGHAUkxTBpDNTaa/fLHvRDXJ7wybJs68NzJsyUk5GbSUVfUFdPetAMG7bPHufIUhRZBSTFJg2ztPWNLJFJtpDIbn2wwiPKk/OYPsz1Y7Z6WDC6fc5BCmKjGKSQvKcu9gydGYV0rUPsA27tBK5bHpaX39rWko4DTx7nyFIUWQMGilcJ620+RtroC22IG6R/JdpDwe9yHk8e58hSFFkDBopaF9mS2yX4jm36PE6iWc5JAhSFBmDRQraWkfHPOmwIEhRZAwWKdj+B89u5EmHBUGKImMwSYEp6a086bAgSFFkCFII5EGQQiAPghQCeRCkEMiDIIVAHopOipUgRRKkYA8OC1J8KFBMUsiuc7/27M3sPof21zlEjn/jSYcFQYoio6iaojnyXbklNldynX+XW6K/hqYYkJ3gghRFRk+k0Ayr33sdBgO6Hj5bkKKI6IkUijZU92hWf0aQoojolhToZMUIrzrUh4aLBXquA+1bmNvWTHsFKQYI3ZHC72gWdwAd/qBkVB/Rl4ZI0umnakb4FsWwdhRuqyDFgIEeG0RnPlOoo1lAZ/uvI7C2qSGrUVWtU3jRQcKkEbJqXa3q1gs9PQnPSbFPNqxP8oIChwzLOh6dmjLKJ3Tb4RQojT9ws0EOWT9EyaI/synr5pdxvpbc5zu6CwZ7FtbcKofGV/LiAoeD8nJL7/xys8IdTyFHQEn4HF/kVQwoSLBwJB/EOf7Zl/bQMyAwK4vVMusMFBdPng8kqFMx2h77QCsUFgQFnr4f09bfyqHKARmdZJpgJmah3q09mQoKlMbJ+bSihy/iVQgUC7puTabOJsH3qLYZeTCSdWsrCbOnF5/1jMZjoRkux2hf1xcysDyG9SqOncrKyo/zSgSKjYpTKk6iN+VCUFv6NGpBIORdr4TMK1C8zy8pU0Pm5zHS45k6CtWfCYykhrUHs5A7S43KEK9CYLBRqp9epujWPfQSdo20QgFhZULG3wA5XFWtnsSrKAhNC4+DqfoNyu1l2qZAfZng18tI2SQbVWfxKgSONNjnGkL0uYZeTAoCF/J+CH0e/IQKXgVDeXn5aFUP18P0vN43U4Fz6eE1yDuZVyEwxEAfdrkM4VnSGj0JlPwNpll06w2YoZiqnqYoRtWFIBYEnB35BYNPBkasLainXvgNHwKMNiaeDBMxHcJ+o/fRzgmgW/9gx736DSBDKPweyt1tCL/hwwcyDaoRnqcY5r7ehO2bnN7IQ6bCelzWw//KTyHwYQWbQYT4DKIXf6NryDEVz4A0l/IqBY4SHItR/gNMGdf15jNQyJIBPgfKTD+louIkXo/A0QZawNKM8AwInvkb5HB2JYSvGcL7EO5TFPM0XlTgaAcJG1PS+0CC/WxaybRDZjpb7ZLJ4VkFhhsUI/wFEMJj5iRkPQff40pEi88yDHfU1NSMxAzlG/TJCB4lICAgICAgICAgICAgICAgICAgICAgcKgoKbFOVEJVV2r0pFdNzUjDMD6qhcyLVd38jaKbjyhGeI6qVo7n2TuBttVpmvVj5HtI080FmmHerITMM3kyW9KmuvSy8LW58bmg+yF6yLpOKwt/a/LkyccpetU3jbLqa9RxnfdzEuhjdopufU8tr75aVScqPNp/BrbMmoy67lIN6w+0CZiuh74axLMI9Ae0Pd6/QRVOo8OnQLCr6LFBuqVtjJuI3wn0Mdq3NK3qq7wIg6xV/VA1wluM8olsWx3V4T9uWJ2WDWuuZVnsIy+KYc4JoR4I682uDwopRtW/oNxuHeVUPXytH2etC437ZFrSretYphzQg8Ug6zY6p6JXf5PF0RNtutWaabO/H7QabcE5Q+EtCkiLbOJJsf4gGDINdDQ9Tc4ES0KBUB16IEcNmb8AUd6hDsfv0sxnJ5lmISKw2+AmbcE7j+240sxakOolIhPi2Lu3awI1I1XN+jMjhm62kiaieH8nt/lXIgDqfoDigBH4v4bOJxvmNTwuC1muGoN2vUrCR1u/RnFKKPyQTzpzOWkL/30VVd+E5voPkOIgrsdDNvF90v6ASIGOPsA62rDuJ1XMkxgUrarB3whjbadNM8FgRQmE+Tp7iFc3YzxbFvydEVuJYJl9EsEgiGdYrxBZ6Gl1igNp7gzRaNbNZzNPr5N2gRCf9klhXU1xuSBSIP8r1B4yO/QUOo5foj0aul71aZ4tC9moPitohE1+KNBXME3BPk8dThfqQAmdzTfR7jSMiSdDgFczzWGYHTxLHmhLHY1ejNh7eVRA0swLUM/7ONduIgRG8fuw+7tzfY1+kcJ/gQpt+3uezA/K3S+eMh8g5JKi0Es+1LLx4zkp3iZNQebC9wGsJ6Hir4dQb8wNiP+pErIe4MRZTs4mryqg6lW3UV1c/R+g8jyJoT+kAKnYi9Tgl9TRMZXBud9B+1qg+ch0fJ3et8EKCvQPnUgRCk/k0VlQXC4pILTf8y11GOm+H9I1IA2/1fRx/I4xOQ/vYDYAex/2Hw3Ure1dZwf9IoVhncujYeLCV8IsrUDcP6ms7yDD5zGsp+jteTybQF/RX1KQpmBaQDfb4T98Toca13Xzy52D9SX2kpGy8GcnTZo0guohXwUCbSWBQvW/x38XICk7M+hCiqt4dBb+6wnMl7uSgkAaSVUnVKPO6zANfhBaagfXHi+KXV79RH9IUV5eMxqkuIamqZhpbCYh8my9AlPD29lU0jA3IJyHel5hvkDOW/cYKbKzj0KkUD+WmX10JUVXgMA1cHRfJ40ha+bFPFqgL+gHKXbSOgHs9FgI9A3fuTPvpxkAz5oFfVWYHFR+GMDIJSfzIEzLPzPrHfh/CTNDofB7tF7BMtI7reCr+CPcfNiPy+I4+CAz0E5Mn1k55lPIRviG7oROBCQCCVL0E5wUGHm9kcJ8V5bDGovTzSsojguvFeFHRAQI/xKaBXASraG89AwoBPi6MY6RaA7FZaDp5t1slmJY68vLy8dSHDTFvaxeEBXneRBO6xRomQbUt4L7KyAXzq2Ev1BeTgT131WBmc7v8f/7pCGQ72s4138zh5jeqSHMR/9AK5oQGjmGpLLz3iZHcfxdFLslydJ5dEA1qi5D528iAVKgEUmBCTRU/b+0zEzePwSbMGiByjATsA+dzA1bwDLM1ZQOp/B3iBoBZ/J0nGsjmShyGP26qU7r74i/GgR8SS/3F6+YH0FPsYfCr33QBn92Q4RAno3k4/hnE+gzSHByyLwYHXiJYRgn8+gsKA4q+lLFCF/YdWGLzAk6/XIIay4b1ZgK0uuQTuKLUZROWkU1xl/W3X0IXT+tHFNh1BG+NPOaAbqvAZJEVM2cp+nW3USwMWP8NFkPn4/zQSN8MPqpbl1HHXr4DtYOw7wT5a+ihTaeRUBAQEBAQGCYIejVfUbxnCvGLI6J1xgJwOmNN4Rk19nGvhzk5Xw5aOHC4yrmnvuRQLpRPIw83KAvdcpAinf19bel8ftrHh2QPPsO9enZT0teNG/jjcAwgNJW/y9ywr5GXzIt+8ZeaA1P3/jLtJKM3MajBHrFvCkjA435qtVaOPl4qaNxVE0H0vsBdUXkY+ofIh/jh73CaGv8KJ2nUBu6ogZtLXWdEyqap7JdXH2B7NmL+cfoZvKo7nAMazsCP+4b2hpHBBZO7v/urHT6yG/zs9Y3Hg+1+nNl6bQFcjxWWfrYz8owsu7GSHpefTyS3VyrLKk9U26pn4fOfFFORXfi9x9Ka/09slvbacVSj9dJsmvfJ3nOQ2oicoocj35Fbo0143g7wmtKa6xJcqPf5dk7gTpeSjpTkN9F/W9Kqeh2tG215No3S003Zlc+Mwg2O5bUFrsLbd0st1CbnDeUllhT0I1cHnjoh2yLHgmGBK8sm7YA7TlDdqNXKX+Z9gjMxyvK0oY02vSM3F4/H47oLbmklZrsU3HuGK51mexFt+H/NvxfivK2vuT6D94RDuHLCWc21V/q1p55Kl1/a/0dyL9eTtaehXPfoCy/6feSG/kRL5EHqbnhHLTlfxTXvnd0W23eYt+go3S+cwIE8HdtTWMaDb9Xcp1X9Q23pdFxsMG+wKVme6rcVr9Pe2YO8tgQrr0enfmW9szNaXTALileexmrDAi215sQThr50eHRBaye1hjZ821Ke31aWzMnjQ5MS/G6Tmq73HXGyiknrnbMTmsIaNMunGsHfYyWnacltgkmIPuqw6AX+4ycir1Oo50RzrWfpetgn6N8FvldZxEbqenAMSR47bnbkC92mZSILjA2wWy0NaRRH/t8pY40tPmlipVT2cvSgh6uIRXroD5RV82ka34b6TvVp2altacb00hbqXgx9i4t0k7os7WsHQn7d8j3PNVH9UJ7nRn0nJ+w+uORN2mQUJmukBLOYwZMGcrGD0m7DDSkpsZRGNlradQwYbnOGjlpX0MjnFQ4Ou58CPZ9pR3pbmS6lMSIxegILnEMCGGGiovH6NyFMp+i+iC8Slzc/zEyEDk855cgwKdppKtebBIElCRBs1GajF7AGtE4CaMN6hykw8h6V0lE6tDBVbrrlKFTL5ST0fV89rBZ82JsaRvtfMwnqfNARouc0jz1pKDrfB5tTeGa5rMORsA5lxPRlMcjV6peZLwSr70Q6atI4LiGR3Cu70jx2OdgqkaMXlR7Ms7TQUSE1noFbbkSwqwgEpBfgva9xtJcewUzKTBvaMNy6jsiAsq8gHzXo81fofaAGGOR93V2rkQkb5OPT8DoLipfGq9ju8mPOBgpPHut30HOI2SbeRLSpoxCh/2Va5GCDhkJXVt7C41WdluadZ5nvwNzRAKmL/x0ggH1yEauL+Q4xQUTkXOpQ2G23ge5LmEZcyDHayvRca9xrXALi0s4z6krZ6ah9i9kmXJQOv/yE5g/QgCBM6QgobI4AIJ6lAnXizTwKAZc71T1KfRFa2yn5NadzaOzAEm+iLTd9OVkmC92fYwgq2cTUZYU0gZSInIXaS/8pmgqzKMZYI5m+VomsqZibt99oqKCk2IdqcZSz+nEVClpn8NH/DslbdEgj+6Escm6cpiKvRh5W6muYAvTILtwnKY0nq0Tgm70x+qT9Blq5y1aUIJg7iKzAqG18yx5kLy620l1g5wd/uiEUIlYSWcjOvanSio6gTl3XdGJFE52pMIENvnEtNlOcAaq17OTRHK0v+veiyykuP0nnudRpomgKdTVs2ASbfacSVcEk85n0Uf74fccgPar4dEBqQODzo28wK7Ls4fO5zhzSdHVAaSRpay4iS5+N/K4sNOJzsGOI7TB4UwrT0xPl7REx2G0q4wUMB3BlGPxqjpBanVqkI8EmlbbIhVUl77+ViJft5+lhgm6gJk3z9khJ6eNKUlEJiL/P6hDmSZLOvtw/Dwc2XtK484XeLF+kYJGOeJfoL7Adf2UR+cB7Y2RZkCe1VQGdSxlZRLRTpuGs2DEAdmYrxPJrpVA61ykrpgBHyX6ppqKZJ9OO+LIJQXZbx7NgE7+CQkbv/vRAS+SENAhL3UKFJeMbsDvesW78TTyOXojherVj/dJEWV5aHQSKSA8ZhoKgZkY5vw675bGa9mL1pXmqarUGmvAuZ6AptiWcUrJDCkJ+1a2WpnjU/RGilL3J2T/N1M9cEi7XdSCZriROaBedA35DGhTu08k5waeJQ/o2yvUVRh4nvNyxsSgTx/VnoXpTdi/YZmGCnokRTJ2PnUQGv8OEwRGHXnbucFa2Hg8rWnQf1aGOZpkPpz0qdxD7wopFfsOc8o8Z4+8atoY5P8ds+8JeyHPkgfFdSLUqSDAptxFqAykZINOjiuItoj5J3Bk8Z990KWvpAh0TBmJ+JW8Lbfz2Dygvru0tWyG4wVw3dCoT/RGCuZLJSIvUj4l5XyPzDHauwea7aDSHOFbB4cIeiRFwtaQttUfFXV9snmMFK79LmYkmIb5QukKjMY/sakd1C+NZjJTTOAp5229OV+7sFmQZz/F1C8IxCIL+Q8cGMlPMscu6UzhxwVIEfkzkUJJ2TfxKAYI/D+Zf+M6m8lM8egsaB0GwnxZhckCQWdTHJ2vN1IQcJ2/IMLhdzGtizCzl4i09XQtRwQ9kYKAkXMr66TW2Nu4mLyZAdT6ldSRmRW/zJRUXQ6zk4qup2koywjQbEaO27PIdLBO9KJRFt9mn4o6/sZGbjK6srSlPswKAGNTN5ZiHv8QzTSQdoCNKjiEEMD9cN4eNtoaOn2zgxaWkPY8c94w1aS4gqRwQQoipmf/lkVgOkr1stmTa79N+UmbwDyUsXRAg8+EtLjWQYR2tiltU1VEH9NXUqiuU40+2YOwH/7UbjLNSjJCbwgeWmCkcO2NNLKCnp33ySSa2mHuv4hGBjl66MSl6Ow7YE9p1bODTWWhFWgtgvIzUiTZYs8BXPwm5jt4ziqUacJ5NqhwXFUSWLyutaTthhPZSQAlMfWLcirmL4h5zm50dIqmeCi3hYRH/gRGVR3lLVkC1es6L9MiG4iyA236I47noP5fQTtsZORK2KvLF04ZTcvG1E59HWx3PJadHdA1cG11AIRsRVtXGl4te8QR1/Z9ub1+L9WDtLdQfxxCTOD/DlZ3W/0eDAb2WUoynzj3GqaZ4GtQXE/A+RaTc8l8tXjk7+XJhtE8aeiAlnZhr1PKqlmvQvjf4NGdwIiTsGdAAC/SIhYJluw2tMde2EQPs5avZW5BZ30Kz9lXmqo/A6Pnv+TW+r2sDI2M1th2CP8+0g6s8hxgavlJ5F2EOnapy0EemvmkogdxvEpprvsez8ZAS9yo60FM896iNZFM/bSGILXEFtDiGssI1cwE8dTMLXLcyW7LZxohFe1g10OOZSq2h6bgPDnAludb6ltx7n2sLQj4vxf1e0EvktV+dJsAZHiM+g/Xmrcu0xWyW/ctpS12kDQfCDxkb8YdQ97w2NT00oyz2B0+gZFHK4ZQvd9VvMh50Ain86QssqTAdJOmqBTH1K5nfxud9i2t2Y/rCayOhH0+OY60nE0rnjwpD+xei2d/mabT1Caa4vKkLMgxNaBdyDfhUQzsepLRc6Vk3QXURloS50lZKIkGTH3RdgS1zanm0Z1A9VP/9eWmmeLWfUlZ1nAAA2x3RjMd9ciSoocp6XAGTOIfmKlJ2H/kUUc/BCnywe5vMG3jzIb58e+RuHXsBSnDAkQENrtYOSM91vvg1vtwBrTDg/pzP2d3b/2FscgdNNPhyUc/aJFG9exrMTKuL3RzaDiCpqpK+7TFcKLvz3V2BQQEBAQEBAQEBAQEBAQEBAQEBAQEBAQEBAQEBAQOH4HA/wNhdANit20n2gAAAABJRU5ErkJggg==;" parent="1" vertex="1">
                    <mxGeometry x="554.5" y="286.16999999999996" width="51.76" height="52.54" as="geometry"/>
                </mxCell>
                <mxCell id="16" value="" style="shape=image;verticalLabelPosition=bottom;labelBackgroundColor=#ffffff;verticalAlign=top;aspect=fixed;imageAspect=0;image=https://www.sonarqube.org/logos/index/sonarqube-logo.png;" parent="1" vertex="1">
                    <mxGeometry x="447.53999999999996" y="343" width="69.59" height="25.43" as="geometry"/>
                </mxCell>
                <mxCell id="17" value="" style="shape=image;verticalLabelPosition=bottom;labelBackgroundColor=#ffffff;verticalAlign=top;aspect=fixed;imageAspect=0;image=data:image/svg+xml,PHN2ZyB4bWxuczpkYz0iaHR0cDovL3B1cmwub3JnL2RjL2VsZW1lbnRzLzEuMS8iIHhtbG5zOmNjPSJodHRwOi8vY3JlYXRpdmVjb21tb25zLm9yZy9ucyMiIHhtbG5zOnJkZj0iaHR0cDovL3d3dy53My5vcmcvMTk5OS8wMi8yMi1yZGYtc3ludGF4LW5zIyIgeG1sbnM6c3ZnPSJodHRwOi8vd3d3LnczLm9yZy8yMDAwL3N2ZyIgeG1sbnM9Imh0dHA6Ly93d3cudzMub3JnLzIwMDAvc3ZnIiB4bWxuczpzb2RpcG9kaT0iaHR0cDovL3NvZGlwb2RpLnNvdXJjZWZvcmdlLm5ldC9EVEQvc29kaXBvZGktMC5kdGQiIHhtbG5zOmlua3NjYXBlPSJodHRwOi8vd3d3Lmlua3NjYXBlLm9yZy9uYW1lc3BhY2VzL2lua3NjYXBlIiBpZD0ic3ZnMiIgdmVyc2lvbj0iMS4xIiBpbmtzY2FwZTp2ZXJzaW9uPSIwLjQ4LjAgcjk2NTQiIHdpZHRoPSIyMjYiIGhlaWdodD0iMzEyIiB4bWw6c3BhY2U9InByZXNlcnZlIiBzb2RpcG9kaTpkb2NuYW1lPSJsb2dvLnN2ZyIgdmlld0JveD0iMCAwIDIyNiAzMTIiPjxkZWZzIGlkPSJkZWZzNiI+PGNsaXBQYXRoIGNsaXBQYXRoVW5pdHM9InVzZXJTcGFjZU9uVXNlIiBpZD0iY2xpcFBhdGgxOCI+PHBhdGggZD0iTSAwLDI0OTQuODQgMCwwIGwgMTgwNC4zNCwwIDAsMjQ5NC44NCAtMTgwNC4zNCwwIHoiIGlkPSJwYXRoMjAiIGlua3NjYXBlOmNvbm5lY3Rvci1jdXJ2YXR1cmU9IjAiLz48L2NsaXBQYXRoPjwvZGVmcz48c29kaXBvZGk6bmFtZWR2aWV3IHBhZ2Vjb2xvcj0iI2ZmZmZmZiIgYm9yZGVyY29sb3I9IiM2NjY2NjYiIGJvcmRlcm9wYWNpdHk9IjEiIG9iamVjdHRvbGVyYW5jZT0iMTAiIGdyaWR0b2xlcmFuY2U9IjEwIiBndWlkZXRvbGVyYW5jZT0iMTAiIGlua3NjYXBlOnBhZ2VvcGFjaXR5PSIwIiBpbmtzY2FwZTpwYWdlc2hhZG93PSIyIiBpbmtzY2FwZTp3aW5kb3ctd2lkdGg9IjE1MDAiIGlua3NjYXBlOndpbmRvdy1oZWlnaHQ9Ijg0NCIgaWQ9Im5hbWVkdmlldzQiIHNob3dncmlkPSJmYWxzZSIgaW5rc2NhcGU6em9vbT0iMSIgaW5rc2NhcGU6Y3g9Ii02NS44NTkxMTYiIGlua3NjYXBlOmN5PSIxNzIuNTMwNzYiIGlua3NjYXBlOndpbmRvdy14PSIyMTg5IiBpbmtzY2FwZTp3aW5kb3cteT0iNDk2IiBpbmtzY2FwZTp3aW5kb3ctbWF4aW1pemVkPSIwIiBpbmtzY2FwZTpjdXJyZW50LWxheWVyPSJnMTAiLz48ZyBpZD0iZzEwIiBpbmtzY2FwZTpncm91cG1vZGU9ImxheWVyIiBpbmtzY2FwZTpsYWJlbD0iaW5rX2V4dF9YWFhYWFgiIHRyYW5zZm9ybT0ibWF0cml4KDEuMjUsMCwwLC0xLjI1LDAsMzEyKSI+PGcgaWQ9ImczMzkzIj48cGF0aCBkPSJtIDE3Ny43MTgsMTI5LjI2NCBjIDAsLTQ5LjQyODggLTM5LjE3NSwtODkuNDk5MiAtODcuNSwtODkuNDk5MiAtNDguMzI0MiwwIC04Ny40OTkyNSw0MC4wNzA0IC04Ny40OTkyNSw4OS40OTkyIDAsNDkuNDMgMzkuMTc1MDUsODkuNTAxIDg3LjQ5OTI1LDg5LjUwMSA0OC4zMjUsMCA4Ny41LC00MC4wNzEgODcuNSwtODkuNTAxIiBzdHlsZT0iZmlsbDojZDMzODMzO2ZpbGwtb3BhY2l0eToxO2ZpbGwtcnVsZTpldmVub2RkO3N0cm9rZTpub25lIiBpZD0icGF0aDIyIiBpbmtzY2FwZTpjb25uZWN0b3ItY3VydmF0dXJlPSIwIi8+PHBhdGggZD0ibSA2LjI4NDM4LDEwNy4wOTggYyAwLDAgLTYuMzM0MzgsOTMuMzMzIDc5LjY2NjAyLDk2IGwgLTUuOTk5NiwxMCAtNDYuNjY2NCwtMTUuNjY3IC0xMy4zMzM2LC0xNS4zMzMgLTExLjY2NjQyLC0yMi4zMzQgLTYuNjY3MTksLTI2IDIsLTE3LjMzMyIgc3R5bGU9ImZpbGw6I2VmM2QzYTtmaWxsLW9wYWNpdHk6MTtmaWxsLXJ1bGU6bm9uemVybztzdHJva2U6bm9uZSIgaWQ9InBhdGgyNCIgaW5rc2NhcGU6Y29ubmVjdG9yLWN1cnZhdHVyZT0iMCIvPjxwYXRoIGQ9Ik0gMzAuMjg4MywxOTAuMzE5IEMgMTQuOTM2MywxNzQuNjExIDUuNDM2MzMsMTUyLjkyMyA1LjQzNjMzLDEyOC45MyBsIDAsMCBjIDAsLTIzLjk4OCA5LjQ5OTk3LC00NS42Nzg4IDI0Ljg1MTk3LC02MS4zODM5IGwgMCwwIEMgNDUuNjQ3Nyw1MS44NDEgNjYuODE1Miw0Mi4xNSA5MC4yMTY4LDQyLjE1IGwgMCwwIGMgMjMuNDAyMiwwIDQ0LjU3MTIsOS42OTEgNTkuOTI5MiwyNS4zOTYxIGwgMCwwIGMgMTUuMzUxLDE1LjcwNTEgMjQuODUzLDM3LjM5NTkgMjQuODUzLDYxLjM4MzkgbCAwLDAgYyAwLDIzLjk5MyAtOS41MDIsNDUuNjgxIC0yNC44NTMsNjEuMzg5IGwgMCwwIGMgLTE1LjM1OCwxNS43MDIgLTM2LjUyNywyNS4zOTMgLTU5LjkyOTIsMjUuMzk1IGwgMCwwIEMgNjYuODE1MiwyMTUuNzEyIDQ1LjY0NzcsMjA2LjAyMSAzMC4yODgzLDE5MC4zMTkgbCAwLDAgeiBNIDI2LjQwMjMsNjMuNzQ2OSBDIDEwLjA4NjcsODAuNDMyOCAwLDEwMy40OTMgMCwxMjguOTMgbCAwLDAgYyAwLDI1LjQ0MSAxMC4wODY3LDQ4LjQ5OSAyNi40MDIzLDY1LjE4NiBsIDAsMCBjIDE2LjMxMTgsMTYuNjkgMzguODkxNSwyNy4wMzUgNjMuODE0NSwyNy4wMzIgbCAwLDAgYyAyNC45MjMyLDAuMDAzIDQ3LjUwNTIsLTEwLjM0MiA2My44MTQyLC0yNy4wMzIgbCAwLDAgYyAxNi4zMTcsLTE2LjY4NyAyNi40MDUsLTM5Ljc0NyAyNi40MDMsLTY1LjE4NiBsIDAsMCBjIDAuMDAyLC0yNS40MzcgLTEwLjA4NiwtNDguNDk3MiAtMjYuNDAzLC02NS4xODMxIGwgMCwwIEMgMTM3LjcyMiw0Ny4wNTc4IDExNS4xNCwzNi43MTQxIDkwLjIxNjgsMzYuNzE0MSBsIDAsMCBjIC0yNC45MjMsMCAtNDcuNTAyNywxMC4zNDM3IC02My44MTQ1LDI3LjAzMjggbCAwLDAiIHN0eWxlPSJmaWxsOiMyMzFmMjA7ZmlsbC1vcGFjaXR5OjE7ZmlsbC1ydWxlOm5vbnplcm87c3Ryb2tlOm5vbmUiIGlkPSJwYXRoMjYiIGlua3NjYXBlOmNvbm5lY3Rvci1jdXJ2YXR1cmU9IjAiLz48cGF0aCBkPSJtIDEyNy4wNTEsMTI4Ljc2OCAtMTMuMzM0LC0yIC0xOC4wMDAyLC0yIC0xMS42NjcyLC0wLjMzMyAtMTEuMzMyOCwwLjMzMyAtOC42NjcyLDIuNjY3IC03LjY2NjgsOC4zMzMgLTYsMTcgLTEuMzMzMiwzLjY2NyAtOCwyLjY2NiAtNC42NjY4LDcuNjY3IC0zLjMzMzIsMTEgMy42NjcyLDkuNjY3IDguNjY2LDMgNywtMy4zMzQgMy4zMzQsLTcuMzMzIDQsMC42NjcgMS4zMzI4LDEuNjY2IC0xLjMzMjgsNy42NjcgLTAuMzM0LDkuNjY3IDIsMTMuMzMzIC0wLjA3ODEsNy42MTYgNi4wNzgxLDkuNzE3IDEwLjY2NjgsNy42NjcgMTguNjY3Miw4IDIwLjY2NjIsLTMgMTgsLTEzIDguMzM0LC0xMy4zMzMgNS4zMzMsLTkuNjY3IDEuMzMzLC0yNCAtNCwtMjAuNjY3IC03LjMzMywtMTguMzMzIC03LC05LjY2NyIgc3R5bGU9ImZpbGw6I2YwZDZiNztmaWxsLW9wYWNpdHk6MTtmaWxsLXJ1bGU6ZXZlbm9kZDtzdHJva2U6bm9uZSIgaWQ9InBhdGgyOCIgaW5rc2NhcGU6Y29ubmVjdG9yLWN1cnZhdHVyZT0iMCIvPjxwYXRoIGQ9Im0gMTE1LjcxNyw3MS4xMDIgLTQ3LjY2NzQsLTIgMCwtOCA0LC0yOCAtMiwtMi4zMzQgLTMzLjMzMjgsMTEuMzM0IC0yLjMzNCw0IC0zLjMzMzIsMzcuNjY2IC03LjY2NTYsMjIuNjY3IC0xLjY2NzIsNS4zMzMgMjYuNjY2LDE4LjMzMyA4LjMzNCwzLjMzNCA3LjMzMjgsLTkgNi4zMzMyLC01LjY2NyA3LjMzNCwtMi4zMzMgMy4zMzI4LC0xIDQsLTE3LjMzMyAzLC0zLjY2NjggNy42NjcyLDIuNjY2OCAtNS4zMzQsLTEwLjMzNCAyOS4wMDAyLC0xMy42NjYgLTMuNjY2LC0yIiBzdHlsZT0iZmlsbDojMzM1MDYxO2ZpbGwtb3BhY2l0eToxO2ZpbGwtcnVsZTpldmVub2RkO3N0cm9rZTpub25lIiBpZD0icGF0aDMwIiBpbmtzY2FwZTpjb25uZWN0b3ItY3VydmF0dXJlPSIwIi8+PHBhdGggZD0ibSAzNi43MTY4LDE4Ny40MzUgOC42NjYsMyA3LC0zLjMzNCAzLjMzNCwtNy4zMzMgNCwwLjY2NyAxLDQgLTIsNy42NjYgMiwxOC4zMzQgLTEuNjY3MiwxMCA2LDcgMTMsMTAuMzMzIC0zLjY2NjgsNSAtMTguMzMzMiwtOSAtNy42NjY4LC02IC00LjMzMzIsLTkuMzMzIC02LjY2NjgsLTkgLTIsLTEwLjY2NyAxLjMzNCwtMTEuMzMzIiBzdHlsZT0iZmlsbDojNmQ2YjZkO2ZpbGwtb3BhY2l0eToxO2ZpbGwtcnVsZTpldmVub2RkO3N0cm9rZTpub25lIiBpZD0icGF0aDMyIiBpbmtzY2FwZTpjb25uZWN0b3ItY3VydmF0dXJlPSIwIi8+PHBhdGggZD0ibSA1MC4zODI4LDIxOC43NjggYyAwLDAgNSwxMi4zMzMgMjUsMTguMzMzIDIwLDYgMSw0LjMzNCAxLDQuMzM0IGwgLTIxLjY2NiwtOC4zMzQgLTguMzM0LC04LjMzMyAtMy42NjYsLTYuNjY3IDcuNjY2LDAuNjY3IiBzdHlsZT0iZmlsbDojZGNkOWQ4O2ZpbGwtb3BhY2l0eToxO2ZpbGwtcnVsZTpldmVub2RkO3N0cm9rZTpub25lIiBpZD0icGF0aDM0IiBpbmtzY2FwZTpjb25uZWN0b3ItY3VydmF0dXJlPSIwIi8+PHBhdGggZD0ibSA0MC4zODI4LDE4OS43NjggYyAwLDAgLTcsMjMuMzM0IDE5LjY2NjgsMjYuNjY3IGwgLTEsNCAtMTguMzMyOCwtNC4zMzQgLTUuMzM0LC0xNy4zMzMgMS4zMzQsLTExLjMzMyAzLjY2NiwyLjMzMyIgc3R5bGU9ImZpbGw6I2RjZDlkODtmaWxsLW9wYWNpdHk6MTtmaWxsLXJ1bGU6ZXZlbm9kZDtzdHJva2U6bm9uZSIgaWQ9InBhdGgzNiIgaW5rc2NhcGU6Y29ubmVjdG9yLWN1cnZhdHVyZT0iMCIvPjxwYXRoIGQ9Im0gNTEuMDQ5NiwxNTguNzY4IDQuMzY0NSw0LjIyOSBjIDAsMCAxLjk2OTksLTAuMjI5IDIuMzAyNywtMi41NjIgMC4zMzI4LC0yLjMzNCAxLjMzMjgsLTIzLjMzNCAxNS42NjYsLTM0LjY2OCAxLjMwNzQsLTEuMDM0IC0xMC42NjYsMS42NjggLTEwLjY2NiwxLjY2OCBsIC0xMC42NjcyLDE2LjY2NiIgc3R5bGU9ImZpbGw6I2Y3ZTRjZDtmaWxsLW9wYWNpdHk6MTtmaWxsLXJ1bGU6ZXZlbm9kZDtzdHJva2U6bm9uZSIgaWQ9InBhdGgzOCIgaW5rc2NhcGU6Y29ubmVjdG9yLWN1cnZhdHVyZT0iMCIvPjxwYXRoIGQ9Im0gMTEyLjM4NSwxNjUuMTAxIGMgMCwwIDAuNzc3LDEwLjEwNCAzLjQ5OCw5LjMyNyAyLjcyMSwtMC43NzcgMi43MjEsLTMuNDk4IDIuNzIxLC0zLjQ5OCAwLDAgLTYuNjA4LC00LjI3NSAtNi4yMTksLTUuODI5IiBzdHlsZT0iZmlsbDojZjdlNGNkO2ZpbGwtb3BhY2l0eToxO2ZpbGwtcnVsZTpldmVub2RkO3N0cm9rZTpub25lIiBpZD0icGF0aDQwIiBpbmtzY2FwZTpjb25uZWN0b3ItY3VydmF0dXJlPSIwIi8+PHBhdGggZD0ibSAxNDAuMDUsMjAyLjEwMSBjIDAsMCAtNS40OTQsLTEuMTYgLTYsLTYgLTAuNTA2LC00Ljg0MSA2LC0xIDcsLTAuNjY3IiBzdHlsZT0iZmlsbDojZjdlNGNkO2ZpbGwtb3BhY2l0eToxO2ZpbGwtcnVsZTpub256ZXJvO3N0cm9rZTpub25lIiBpZD0icGF0aDQyIiBpbmtzY2FwZTpjb25uZWN0b3ItY3VydmF0dXJlPSIwIi8+PHBhdGggZD0ibSA5OS43MTY4LDIwMS43NjcgYyAwLDAgLTcuMzM0LC0xIC03LjMzNCwtNS42NjYgMCwtNC42NjcgOC4zMzQyLC00LjMzNCAxMC42NjcyLC0yLjMzNCIgc3R5bGU9ImZpbGw6I2Y3ZTRjZDtmaWxsLW9wYWNpdHk6MTtmaWxsLXJ1bGU6bm9uemVybztzdHJva2U6bm9uZSIgaWQ9InBhdGg0NCIgaW5rc2NhcGU6Y29ubmVjdG9yLWN1cnZhdHVyZT0iMCIvPjxwYXRoIGQ9Im0gNTQuMzgyOCwxODAuMTAxIGMgMCwwIC0xMi42NjcyLDcuNjY3IC0xNCwwLjMzMyAtMS4zMzMyLC03LjMzMyAtNC4zMzQsLTEyLjY2NyAyLC0yMC4zMzMgbCAtNC4zMzMyLDEuMzMzIC00LDEwLjMzMyAtMS4zMzI4LDEwIDcuNjY2LDguMDAxIDguNjY2OCwtMC42NjcgNSwtNCAwLjMzMzIsLTUiIHN0eWxlPSJmaWxsOiNmN2U0Y2Q7ZmlsbC1vcGFjaXR5OjE7ZmlsbC1ydWxlOmV2ZW5vZGQ7c3Ryb2tlOm5vbmUiIGlkPSJwYXRoNDYiIGlua3NjYXBlOmNvbm5lY3Rvci1jdXJ2YXR1cmU9IjAiLz48cGF0aCBkPSJtIDYwLjM4MjgsMjAxLjEwMSBjIDAsMCA1LjY2NjgsMjkuMzMzIDM0LjMzNCwzNSAyMy42MDEyLDQuNjY1IDM1Ljk5OTIsLTEgNDAuNjY2MiwtNi4zMzMgMCwwIC0yMSwyNC45OTkgLTQxLjAwMDIsMTcuMzMzIC0yMCwtNy42NjcgLTM0LjY2NiwtMjEuNjY3IC0zNC4zMzMyLC0zMC42NjYgMC41Njc2LC0xNS4zMjggMC4zMzMyLC0xNS4zMzQgMC4zMzMyLC0xNS4zMzQiIHN0eWxlPSJmaWxsOiNmN2U0Y2Q7ZmlsbC1vcGFjaXR5OjE7ZmlsbC1ydWxlOmV2ZW5vZGQ7c3Ryb2tlOm5vbmUiIGlkPSJwYXRoNDgiIGlua3NjYXBlOmNvbm5lY3Rvci1jdXJ2YXR1cmU9IjAiLz48cGF0aCBkPSJtIDEzNy43MTcsMjI2LjQzNSBjIDAsMCAtOS42NjYsMC4zMzMgLTEwLC04LjMzNCAwLDAgLTAuMDAxLC0xLjMzMyAwLjY2NiwtMi42NjYgMCwwIDcuNjY4LDguNjY3IDEyLjMzNCw0IiBzdHlsZT0iZmlsbDojZjdlNGNkO2ZpbGwtb3BhY2l0eToxO2ZpbGwtcnVsZTpldmVub2RkO3N0cm9rZTpub25lIiBpZD0icGF0aDUwIiBpbmtzY2FwZTpjb25uZWN0b3ItY3VydmF0dXJlPSIwIi8+PHBhdGggZD0ibSA5NS4zODg3LDIxNC41MzIgYyAwLDAgLTEuNjY0MSwxMy4zMDMgLTEzLjAwNTksNS41NjkgLTcuMzMzMiwtNSAtNi42NjYsLTEyIC01LjMzMzIsLTEzLjMzMyAxLjMzMzIsLTEuMzM0IDAuOTcwNywtNC4wMTkgMS45ODU2LC0yLjE3NiAxLjAxNDQsMS44NDMgMC42ODA0LDcuODQzIDQuMzQ3Niw5LjUwOSAzLjY2NjgsMS42NjcgOS42Nzc3LDMuNTI5IDEyLjAwNTksMC40MzEiIHN0eWxlPSJmaWxsOiNmN2U0Y2Q7ZmlsbC1vcGFjaXR5OjE7ZmlsbC1ydWxlOmV2ZW5vZGQ7c3Ryb2tlOm5vbmUiIGlkPSJwYXRoNTIiIGlua3NjYXBlOmNvbm5lY3Rvci1jdXJ2YXR1cmU9IjAiLz48cGF0aCBkPSJtIDY0LjA0OTYsMTI0LjQzNSAtMzEuMzMyOCwtMTQgYyAwLDAgMTMsLTUxLjY2NyA2LjMzMjgsLTY3LjY2NyBsIC00LjY2NjgsMS42NjYgLTAuMzMzMiwxOS42NjcyIC04LjY2NTYsMzcuMzMyOCAtMy42NjcyLDEwLjMzNCAzMi42NjYsMjEuOTk5IDkuNjY2OCwtOS4zMzIiIHN0eWxlPSJmaWxsOiM0OTcyOGI7ZmlsbC1vcGFjaXR5OjE7ZmlsbC1ydWxlOmV2ZW5vZGQ7c3Ryb2tlOm5vbmUiIGlkPSJwYXRoNTQiIGlua3NjYXBlOmNvbm5lY3Rvci1jdXJ2YXR1cmU9IjAiLz48cGF0aCBkPSJtIDY3LjI3MTUsOTUuODU3OCA0LjQ0NTMsLTUuNDIzOCAwLC0yMCAtNS4zMzQsMCBjIDAsMCAtMC42NjYsMTQgLTAuNjY2LDE1LjY2NzIgMCwxLjY2NjggMC42NjYsNy42NjY4IDAuNjY2LDcuNjY2OCIgc3R5bGU9ImZpbGw6IzQ5NzI4YjtmaWxsLW9wYWNpdHk6MTtmaWxsLXJ1bGU6ZXZlbm9kZDtzdHJva2U6bm9uZSIgaWQ9InBhdGg1NiIgaW5rc2NhcGU6Y29ubmVjdG9yLWN1cnZhdHVyZT0iMCIvPjxwYXRoIGQ9Im0gNjcuMzgyOCw2Ny40MzQgLTE1LC0wLjY2NiA0LjMzNCwtMyAxMC42NjYsLTEuNjY2OCIgc3R5bGU9ImZpbGw6IzQ5NzI4YjtmaWxsLW9wYWNpdHk6MTtmaWxsLXJ1bGU6ZXZlbm9kZDtzdHJva2U6bm9uZSIgaWQ9InBhdGg1OCIgaW5rc2NhcGU6Y29ubmVjdG9yLWN1cnZhdHVyZT0iMCIvPjxwYXRoIGQ9Im0gMTE4LjcxNyw3MC43NjggMTIuMzMzLDAuMzMzMiAzLC0zMC42NjcyIC0xMi42NjcsLTEuNjY2IC0yLjY2NiwzMiIgc3R5bGU9ImZpbGw6IzMzNTA2MTtmaWxsLW9wYWNpdHk6MTtmaWxsLXJ1bGU6ZXZlbm9kZDtzdHJva2U6bm9uZSIgaWQ9InBhdGg2MCIgaW5rc2NhcGU6Y29ubmVjdG9yLWN1cnZhdHVyZT0iMCIvPjxwYXRoIGQ9Im0gMTIyLjA1LDcwLjc2OCAxOC42NjcsMSBjIDAsMCA3LjY2NiwxOS4zMzMyIDcuNjY2LDIwLjMzMzIgMCwxIDYuNjY3LDI3Ljk5OTggNi42NjcsMjcuOTk5OCBsIC0xNSwxNS42NjYgLTMsMi42NjcgLTgsLTggMCwtMzEgLTcsLTI4LjY2NiIgc3R5bGU9ImZpbGw6IzMzNTA2MTtmaWxsLW9wYWNpdHk6MTtmaWxsLXJ1bGU6ZXZlbm9kZDtzdHJva2U6bm9uZSIgaWQ9InBhdGg2MiIgaW5rc2NhcGU6Y29ubmVjdG9yLWN1cnZhdHVyZT0iMCIvPjxwYXRoIGQ9Im0gMTMwLjM4Myw3My4xMDEyIC0xMS42NjYsLTIuMzMzMiAxLjY2NiwtOS4zMzQgYyA0LjMzMywtMiAxMS42NjcsMy4zMzQgMTEuNjY3LDMuMzM0IiBzdHlsZT0iZmlsbDojNDk3MjhiO2ZpbGwtb3BhY2l0eToxO2ZpbGwtcnVsZTpldmVub2RkO3N0cm9rZTpub25lIiBpZD0icGF0aDY0IiBpbmtzY2FwZTpjb25uZWN0b3ItY3VydmF0dXJlPSIwIi8+PHBhdGggZD0ibSAxMzAuNzE3LDEzMS40MzQgMjMuMzMzLC0xNy4zMzMgMC42NjcsOCAtMTcuNjY3LDE2LjMzMyAtNi4zMzMsLTciIHN0eWxlPSJmaWxsOiM0OTcyOGI7ZmlsbC1vcGFjaXR5OjE7ZmlsbC1ydWxlOmV2ZW5vZGQ7c3Ryb2tlOm5vbmUiIGlkPSJwYXRoNjYiIGlua3NjYXBlOmNvbm5lY3Rvci1jdXJ2YXR1cmU9IjAiLz48cGF0aCBkPSJNIDc4Ljk1MDgsNS4wOTgwNSA3Mi4wNDk2LDMzLjEwMiA2OC42MTcyLDUzLjc2NDggNjguMDQ5Niw2OS4xMDIgbCAzMS4yMzQ4LDEuNjYyOCAxOS40MzI2LDAuMDAzMiAtMS43NjcsLTM1LjAwMzIgMywtMjYuOTk5OTYgLTAuMzMzLC01IC0yNS4zMzI2LC0yIC0xNS4zMzM2LDMuMzMzMjEiIHN0eWxlPSJmaWxsOiNmZmZmZmY7ZmlsbC1vcGFjaXR5OjE7ZmlsbC1ydWxlOmV2ZW5vZGQ7c3Ryb2tlOm5vbmUiIGlkPSJwYXRoNjgiIGlua3NjYXBlOmNvbm5lY3Rvci1jdXJ2YXR1cmU9IjAiLz48cGF0aCBkPSJtIDExNC4zODMsNzEuMTAxMiBjIDAsMCAtMS42NjYsLTM0LjY2NzIgMy4zMzQsLTU5LjMzMzIgMCwwIC0xMCwtNi4zMzQwMiAtMjQuNjY3NCwtOC4wMDAwMyBsIDI4LjAwMDQsMSAzLjMzMywyIC00LDU0LjY2NjAzIC0xLDExLjY2OCIgc3R5bGU9ImZpbGw6I2RjZDlkODtmaWxsLW9wYWNpdHk6MTtmaWxsLXJ1bGU6ZXZlbm9kZDtzdHJva2U6bm9uZSIgaWQ9InBhdGg3MCIgaW5rc2NhcGU6Y29ubmVjdG9yLWN1cnZhdHVyZT0iMCIvPjxwYXRoIGQ9Im0gMTM0LjYxOCw0My4wOTggMTMsMy42NjY4IDI0LjY2NiwxLjMzMzIgMy42NjcsMTEuMzMyOSAtNi42NjcsMTkuNjY3MSAtNy42NjYsMSAtMTAuNjY3LC0zLjMzMzIgLTEwLjIzNCwtNC45OTY4IC01LjQzMywwLjk5NjggLTQuMjM0LC0xLjY2MzYiIHN0eWxlPSJmaWxsOiNmZmZmZmY7ZmlsbC1vcGFjaXR5OjE7ZmlsbC1ydWxlOmV2ZW5vZGQ7c3Ryb2tlOm5vbmUiIGlkPSJwYXRoNzIiIGlua3NjYXBlOmNvbm5lY3Rvci1jdXJ2YXR1cmU9IjAiLz48cGF0aCBkPSJtIDEzNC4zODMsNDkuNzY4IGMgMCwwIDguNjY2LDMuOTk5MiAxMCwzLjY2NiBsIC0zLjY2NiwxOC4zMzQgNC4zMzMsMS42NjYgYyAwLDAgMywtMTcuMzMyOCAzLC0xOS4zMzI4IDAsMCAxOC42NjYsLTEgMjAuMzMzLC0xIDAsMCA0LDcuNjY2OCAzLDE1LjY2NjggbCAzLjY2NywtMTAuNjY2OCAwLjMzMywtNiAtNS4zMzMsLTggLTYsLTEuMzMzMiAtMTAsMC4zMzMyIC0zLjMzMyw0LjMzMjggLTExLjY2NywtMS42NjYgLTMuNjY3LC0xLjMzNCIgc3R5bGU9ImZpbGw6I2RjZDlkODtmaWxsLW9wYWNpdHk6MTtmaWxsLXJ1bGU6ZXZlbm9kZDtzdHJva2U6bm9uZSIgaWQ9InBhdGg3NCIgaW5rc2NhcGU6Y29ubmVjdG9yLWN1cnZhdHVyZT0iMCIvPjxwYXRoIGQ9Im0gMTIxLjI4NCw3My40MzA5IC03LjMzMywxOC42NjcxIC03LjY2NywxMSBjIDAsMCAxLjY2Niw0LjY2NyA0LDQuNjY3IDIuMzM0LDAgNy42NjcsMCA3LjY2NywwIGwgNy4zMzMsLTIuNjY3IC0wLjY2NiwtMTIuMzMzMiAtMy4zMzQsLTE5LjMzMzkiIHN0eWxlPSJmaWxsOiNmZmZmZmY7ZmlsbC1vcGFjaXR5OjE7ZmlsbC1ydWxlOm5vbnplcm87c3Ryb2tlOm5vbmUiIGlkPSJwYXRoNzYiIGlua3NjYXBlOmNvbm5lY3Rvci1jdXJ2YXR1cmU9IjAiLz48cGF0aCBkPSJtIDEyMi43MTcsNzkuNzY4IGMgMCwwIC05LjMzNCwxNy45OTkyIC05LjMzNCwyMC42NjYgMCwwIDEuNjY2LDQgNCwzIDIuMzM0LC0xIDcuMzM0LC0zLjY2NiA3LjMzNCwtMy42NjYgbCAwLDYuMzMzIC0xMS4zMzQsMi4zMzQgLTcuNjY2LC0xIDEzLC0zMC42NjcgMi42NjYsLTAuMzM0IiBzdHlsZT0iZmlsbDojZGNkOWQ4O2ZpbGwtb3BhY2l0eToxO2ZpbGwtcnVsZTpldmVub2RkO3N0cm9rZTpub25lIiBpZD0icGF0aDc4IiBpbmtzY2FwZTpjb25uZWN0b3ItY3VydmF0dXJlPSIwIi8+PHBhdGggZD0ibSA4MS45NTEyLDEyMy43NjQgLTkuMjM0NCwxLjAwNCAtOC42NjcyLDIuNjY3IDAsLTMgNC4yMzQ4LC00LjY3IDEzLjMzMzIsLTYiIHN0eWxlPSJmaWxsOiNmZmZmZmY7ZmlsbC1vcGFjaXR5OjE7ZmlsbC1ydWxlOm5vbnplcm87c3Ryb2tlOm5vbmUiIGlkPSJwYXRoODAiIGlua3NjYXBlOmNvbm5lY3Rvci1jdXJ2YXR1cmU9IjAiLz48cGF0aCBkPSJtIDY3LjA1MDgsMTIyLjc2NSBjIDAsMCAxMC4zMzQsLTQuMzM0IDEzLjY2NzIsLTMuMzM0IGwgMC4zMzE2LC0zLjk5NiAtOS4zMzE2LDEuOTk2IC01LjY2NzIsNCAxLDEuMzM0IiBzdHlsZT0iZmlsbDojZGNkOWQ4O2ZpbGwtb3BhY2l0eToxO2ZpbGwtcnVsZTpldmVub2RkO3N0cm9rZTpub25lIiBpZD0icGF0aDgyIiBpbmtzY2FwZTpjb25uZWN0b3ItY3VydmF0dXJlPSIwIi8+PHBhdGggZD0ibSAxMzQuNTgyLDEwNi42MyBjIC01LjY1NiwwLjE2NiAtMTAuNzY2LDAuODM4IC0xNS4yNCwyLjEgMC4zMDQsMS44MzQgLTAuMjY1LDMuNjM0IDAuMTkyLDQuOTU1IDEuMjQ3LDAuODk4IDMuMzM3LDAuODg0IDUuMjIyLDEuMDk1IC0xLjYzLDAuODAxIC0zLjkyLDEuMTE4IC01LjgwMSwwLjY1NSAtMC4wNDQsMS4yNzMgLTAuNjE1LDIuMDYyIC0wLjk2MSwzLjA1OCAzLjE4LDEuMTM1IDEwLjY4Nyw4LjU3NiAxNC45MSw2LjExMiAyLjAxMiwtMS4xNzIgMi44NjcsLTcuODY2IDMuMDIzLC0xMS4xMjEgMC4xMywtMi43IC0wLjI0NSwtNS40MjQgLTEuMzQ1LC02Ljg1NCIgc3R5bGU9ImZpbGw6I2QzMzgzMztmaWxsLW9wYWNpdHk6MTtmaWxsLXJ1bGU6ZXZlbm9kZDtzdHJva2U6bm9uZSIgaWQ9InBhdGg4NCIgaW5rc2NhcGU6Y29ubmVjdG9yLWN1cnZhdHVyZT0iMCIvPjxwYXRoIGQ9Im0gMTM0LjU4MiwxMDYuNjMgYyAtNS42NTYsMC4xNjYgLTEwLjc2NiwwLjgzOCAtMTUuMjQsMi4xIDAuMzA0LDEuODM0IC0wLjI2NSwzLjYzNCAwLjE5Miw0Ljk1NSAxLjI0NywwLjg5OCAzLjMzNywwLjg4NCA1LjIyMiwxLjA5NSAtMS42MywwLjgwMSAtMy45MiwxLjExOCAtNS44MDEsMC42NTUgLTAuMDQ0LDEuMjczIC0wLjYxNSwyLjA2MiAtMC45NjEsMy4wNTggMy4xOCwxLjEzNSAxMC42ODcsOC41NzYgMTQuOTEsNi4xMTIgMi4wMTIsLTEuMTcyIDIuODY3LC03Ljg2NiAzLjAyMywtMTEuMTIxIDAuMTMsLTIuNyAtMC4yNDUsLTUuNDI0IC0xLjM0NSwtNi44NTQgeiIgc3R5bGU9ImZpbGw6bm9uZTtzdHJva2U6I2QzMzgzMztzdHJva2Utd2lkdGg6MjtzdHJva2UtbGluZWNhcDpidXR0O3N0cm9rZS1saW5lam9pbjptaXRlcjtzdHJva2UtbWl0ZXJsaW1pdDo0O3N0cm9rZS1vcGFjaXR5OjE7c3Ryb2tlLWRhc2hhcnJheTpub25lIiBpZD0icGF0aDg2IiBpbmtzY2FwZTpjb25uZWN0b3ItY3VydmF0dXJlPSIwIi8+PHBhdGggZD0ibSAxMDcuNTM1LDExNS44NzYgYyAtMC4wMTUsLTAuNDI4IC0wLjAzMywtMC44NTkgLTAuMDUsLTEuMjkxIC0xLjc2NiwtMS4xNiAtNC42MTcsLTEuMTQ2IC02LjU1NSwtMi4xMjEgMi44NTcsLTAuMTI1IDUuMTA2LC0wLjgxMyA3LjA1MiwtMS43ODMgLTAuMDQzLC0xLjA3OCAtMC4wODQsLTIuMTU1IC0wLjEyNiwtMy4yMzMgLTMuMjM3LC0yLjIxNiAtNi4xOTQsLTUuNTE2IC0xMC4wMDUyLC03LjU5NDEgLTEuODAyLC0wLjk4MjggLTguMTI2MiwtMy41MTE3IC0xMC4wNDM0LC0zLjA2NDggLTEuMDg0NywwLjI1MTkgLTEuMTgyNCwxLjU5OCAtMS42MTYsMi44NjY4IC0wLjkyMzgsMi43MTcxIC0zLjA1MDgsNy4wNDIxIC0zLjIzNjMsMTEuMTMyMSAtMC4yMzYzLDUuMTY2IC0wLjc1NzgsMTMuODI0IDQuODA5NCwxMi43NiA0LjQ5MTQsLTAuODU3IDkuNzE1MiwtMi45MjYgMTMuMTkyNSwtNC44MjYgMi4xMjUsLTEuMTYyIDMuMzU0LC0yLjU5OCA2LjU3OCwtMi44NDYiIHN0eWxlPSJmaWxsOiNkMzM4MzM7ZmlsbC1vcGFjaXR5OjE7ZmlsbC1ydWxlOmV2ZW5vZGQ7c3Ryb2tlOm5vbmUiIGlkPSJwYXRoODgiIGlua3NjYXBlOmNvbm5lY3Rvci1jdXJ2YXR1cmU9IjAiLz48cGF0aCBkPSJtIDEwNy41MzUsMTE1Ljg3NiBjIC0wLjAxNSwtMC40MjggLTAuMDMzLC0wLjg1OSAtMC4wNSwtMS4yOTEgLTEuNzY2LC0xLjE2IC00LjYxNywtMS4xNDYgLTYuNTU1LC0yLjEyMSAyLjg1NywtMC4xMjUgNS4xMDYsLTAuODEzIDcuMDUyLC0xLjc4MyAtMC4wNDMsLTEuMDc4IC0wLjA4NCwtMi4xNTUgLTAuMTI2LC0zLjIzMyAtMy4yMzcsLTIuMjE2IC02LjE5NCwtNS41MTYgLTEwLjAwNTIsLTcuNTk0MSAtMS44MDIsLTAuOTgyOCAtOC4xMjYyLC0zLjUxMTcgLTEwLjA0MzQsLTMuMDY0OCAtMS4wODQ3LDAuMjUxOSAtMS4xODI0LDEuNTk4IC0xLjYxNiwyLjg2NjggLTAuOTIzOCwyLjcxNzEgLTMuMDUwOCw3LjA0MjEgLTMuMjM2MywxMS4xMzIxIC0wLjIzNjMsNS4xNjYgLTAuNzU3OCwxMy44MjQgNC44MDk0LDEyLjc2IDQuNDkxNCwtMC44NTcgOS43MTUyLC0yLjkyNiAxMy4xOTI1LC00LjgyNiAyLjEyNSwtMS4xNjIgMy4zNTQsLTIuNTk4IDYuNTc4LC0yLjg0NiB6IiBzdHlsZT0iZmlsbDpub25lO3N0cm9rZTojZDMzODMzO3N0cm9rZS13aWR0aDoyO3N0cm9rZS1saW5lY2FwOmJ1dHQ7c3Ryb2tlLWxpbmVqb2luOm1pdGVyO3N0cm9rZS1taXRlcmxpbWl0OjQ7c3Ryb2tlLW9wYWNpdHk6MTtzdHJva2UtZGFzaGFycmF5Om5vbmUiIGlkPSJwYXRoOTAiIGlua3NjYXBlOmNvbm5lY3Rvci1jdXJ2YXR1cmU9IjAiLz48cGF0aCBkPSJtIDExMC43NSwxMDkuNzEyIGMgLTAuNDk0LDIuODE0IC0xLjA2NSwzLjYxNyAtMC44NDQsNi4wNzIgNy41MDUsNS4wMDQgOC45MTQsLTguNTk1IDAuODQ0LC02LjA3MiIgc3R5bGU9ImZpbGw6I2QzMzgzMztmaWxsLW9wYWNpdHk6MTtmaWxsLXJ1bGU6ZXZlbm9kZDtzdHJva2U6bm9uZSIgaWQ9InBhdGg5MiIgaW5rc2NhcGU6Y29ubmVjdG9yLWN1cnZhdHVyZT0iMCIvPjxwYXRoIGQ9Im0gMTEwLjc1LDEwOS43MTIgYyAtMC40OTQsMi44MTQgLTEuMDY1LDMuNjE3IC0wLjg0NCw2LjA3MiA3LjUwNSw1LjAwNCA4LjkxNCwtOC41OTUgMC44NDQsLTYuMDcyIHoiIHN0eWxlPSJmaWxsOm5vbmU7c3Ryb2tlOiNkMzM4MzM7c3Ryb2tlLXdpZHRoOjI7c3Ryb2tlLWxpbmVjYXA6YnV0dDtzdHJva2UtbGluZWpvaW46bWl0ZXI7c3Ryb2tlLW1pdGVybGltaXQ6NDtzdHJva2Utb3BhY2l0eToxO3N0cm9rZS1kYXNoYXJyYXk6bm9uZSIgaWQ9InBhdGg5NCIgaW5rc2NhcGU6Y29ubmVjdG9yLWN1cnZhdHVyZT0iMCIvPjxwYXRoIGQ9Im0gMTIxLjYxNywxMDcuNDMxIGMgMCwwIC0yLjMzNCwzLjMzNCAtMC42NjcsNC4zMzQgMS42NjcsMSAzLjMzNCwtMC4wMDEgNC4zMzQsMS42NjYgMSwxLjY2NyAwLDIuNjY3IDAuMzMzLDQuNjY3IDAuMzMzLDIgMi4wMDEsMi4zMzQgMy42NjcsMi42NjcgMS42NjYsMC4zMzMgNi4zMzQsMSA3LC0wLjY2NyBsIC0yLDYgLTQsMS4zMzMgLTEyLjY2NywtNy4zMzMgLTAuNjY3LC0zLjY2NyAwLC03LjMzMyIgc3R5bGU9ImZpbGw6I2VmM2QzYTtmaWxsLW9wYWNpdHk6MTtmaWxsLXJ1bGU6ZXZlbm9kZDtzdHJva2U6bm9uZSIgaWQ9InBhdGg5NiIgaW5rc2NhcGU6Y29ubmVjdG9yLWN1cnZhdHVyZT0iMCIvPjxwYXRoIGQ9Im0gODYuNjE3Miw5Ni40MzA5IGMgLTAuNDAwNCw1LjIwMjEgLTAuODI0MiwxMC4zOTcxIC0xLjI5NTcsMTUuNTk0MSAtMC43MDU1LDcuNzYgMS44NjQsNi40MDYgOC41OTA2LDYuNDA2IDEuMDI3NCwwIDYuMzI1OSwtMS4yMjUgNi43MDQ5LC0yIDEuODE4LC0zLjcxMyAtMy4wNCwtMi44ODggMi4wOTQsLTUuNjg4IDQuMzM0LC0yLjM2MyAxMS45OSwxLjQzNSAxMC4yMzksNi42ODggLTAuOTgsMS4xNjggLTUuMTA2LDAuMzY0IC02LjU4NSwxLjEzMSAtMi42MDQsMS4zNSAtNS4yMDgsMi43IC03LjgxMjMsNC4wNSAtMy4zMTMyLDEuNzE5IC0xMC45NzA3LDQuMjI1IC0xNC41MDMxLDEuODIzIC04Ljk1MDQsLTYuMDg3IDAuNTY0OSwtMjEuMjk2IDMuNzU3OCwtMjcuNjQ1OSIgc3R5bGU9ImZpbGw6I2VmM2QzYTtmaWxsLW9wYWNpdHk6MTtmaWxsLXJ1bGU6ZXZlbm9kZDtzdHJva2U6bm9uZSIgaWQ9InBhdGg5OCIgaW5rc2NhcGU6Y29ubmVjdG9yLWN1cnZhdHVyZT0iMCIvPjxwYXRoIGQ9Im0gOTUuMzg4NywyMTQuNTMyIGMgLTkuMDg1MiwyLjExNiAtMTMuNTk5NiwtMy44MDIgLTE2LjM1MzUsLTkuOTQgLTIuNDU5LDAuNTk2IC0xLjQ4MDUsMy45NCAtMC44NTk0LDUuNjQ0IDEuNjI2Miw0LjQ3MiA4LjE3OTcsMTAuNDI1IDEzLjUzNDQsOS42MTggMi4zMDQzLC0wLjM0NyA1LjQyMjYsLTIuNDU0IDMuNjc4NSwtNS4zMjIiIHN0eWxlPSJmaWxsOiMyMzFmMjA7ZmlsbC1vcGFjaXR5OjE7ZmlsbC1ydWxlOmV2ZW5vZGQ7c3Ryb2tlOm5vbmUiIGlkPSJwYXRoMTAwIiBpbmtzY2FwZTpjb25uZWN0b3ItY3VydmF0dXJlPSIwIi8+PHBhdGggZD0ibSAxMzkuNjU1LDIwNC4xODYgYyAwLjE0MywtMC4wMDYgMC4yODgsLTAuMDExIDAuNDMxLC0wLjAxNyAyLjA1MywtNC4yNjUgMy44MywtOC43ODMgNi40MiwtMTIuNTQ4IC0xLjczNSwtNC4wNDEgLTEzLjEzOCwtNy42MTcgLTEyLjk2MiwtMC4zNjEgMi40NjYsMS4wNzggNi43MjMsMC4yMiA4LjkwOSwxLjU5NyAtMS4yNjQsMy40NjkgLTMuMDg4LDYuNDIyIC0yLjc5OCwxMS4zMjkiIHN0eWxlPSJmaWxsOiMyMzFmMjA7ZmlsbC1vcGFjaXR5OjE7ZmlsbC1ydWxlOmV2ZW5vZGQ7c3Ryb2tlOm5vbmUiIGlkPSJwYXRoMTAyIiBpbmtzY2FwZTpjb25uZWN0b3ItY3VydmF0dXJlPSIwIi8+PHBhdGggZD0ibSAxMDAuMDQsMjA0LjA3NSBjIDEuOTQ4LC0zLjU3MSAyLjU4MiwtNy4zMjMgNS4zNTEsLTEwLjAyMiAxLjI0NywtMS4yMTUgMy42NzIsLTIuNjk2IDIuNDcsLTYuMDc1IC0wLjI4MSwtMC43OTcgLTIuMzM0LC0yLjU3NCAtMy41MTksLTIuOTIzIC00LjMyOSwtMS4yNzggLTE0LjQxNjIsLTAuMjY0IC0xMS4wMDAyLDUuMTMzIDMuNTgwMSwtMC4xNjcgOC4zOTIyLC0yLjMyNSAxMS4wNjgyLDAuMjc0IC0yLjA1NSwzLjI4NSAtNS43MTg2LDkuNzg0IC00LjM3LDEzLjYxMyIgc3R5bGU9ImZpbGw6IzIzMWYyMDtmaWxsLW9wYWNpdHk6MTtmaWxsLXJ1bGU6ZXZlbm9kZDtzdHJva2U6bm9uZSIgaWQ9InBhdGgxMDQiIGlua3NjYXBlOmNvbm5lY3Rvci1jdXJ2YXR1cmU9IjAiLz48cGF0aCBkPSJtIDEzOC4wMywxNjcuNzgxIGMgLTYuNTE4LC00LjE4NyAtMTMuNzg2LC04Ljc0IC0yNC40NjYsLTcuNjg0IC0yLjI4MiwxLjk4NCAtMy4xNTIsNi4zOTkgLTAuOTM1LDkuMzE1IDEuMTU0LC0xLjk4NCAwLjQyOSwtNS42MzMgMy42NDUsLTYuMTgyIDYuMDYsLTEuMDM3IDEzLjExMywzLjcwNyAxNy40NzIsNS4zNjUgMi43MDMsNC41NTcgLTAuMjMzLDYuMjMzIC0yLjY2OCw5LjE2NiAtNC45ODUsNi4wMDkgLTExLjY3MiwxMy40NTcgLTExLjQyOSwyMi40NTMgMi4wMTUsMS40NjEgMi4xODksLTIuMjMgMi40NzgsLTIuOTAyIDIuNjAzLC02LjA5MiA5LjE1NCwtMTMuODgzIDEzLjkzNSwtMTkuMDk3IDEuMTc0LC0xLjI4NCAzLjEwNywtMi41MTYgMy4zMjIsLTMuMzY1IDAuNjIsLTIuNDY5IC0xLjYxMywtNS40MjcgLTEuMzU0LC03LjA2OSIgc3R5bGU9ImZpbGw6IzIzMWYyMDtmaWxsLW9wYWNpdHk6MTtmaWxsLXJ1bGU6ZXZlbm9kZDtzdHJva2U6bm9uZSIgaWQ9InBhdGgxMDYiIGlua3NjYXBlOmNvbm5lY3Rvci1jdXJ2YXR1cmU9IjAiLz48cGF0aCBkPSJtIDUyLjEwMTYsMTcyLjE4OSBjIC0yLjA0MywxLjE2NiAtMi41MjkzLDYuMzAyIC00LjkyNzgsNi40NDggLTMuNDI3NywwLjIwOCAtMi44MDI3LC02LjY2MyAtMi43ODksLTEwLjY4MSAtMi4zNTk0LDIuMTQyIC0yLjc3NDMsOC43MzcgLTEuMDQxLDEyLjEyNCAtMS45NzU0LDAuOTcgLTIuODU3NSwtMS4wNyAtMy45NTMyLC0xLjc4OSAxLjQwODIsMTAuMjMgMTQuOTY0OSw0Ljc0NSAxMi43MTEsLTYuMTAyIiBzdHlsZT0iZmlsbDojMjMxZjIwO2ZpbGwtb3BhY2l0eToxO2ZpbGwtcnVsZTpldmVub2RkO3N0cm9rZTpub25lIiBpZD0icGF0aDEwOCIgaW5rc2NhcGU6Y29ubmVjdG9yLWN1cnZhdHVyZT0iMCIvPjxwYXRoIGQ9Im0gMTQyLjE4LDE2My41MjEgYyAtMy4wMzQsLTUuNzc1IC03LjMyNiwtMTIuMTM1IC0xNi4yMjksLTEyLjMyIC0wLjE4MSwxLjg2NSAtMC4zMiw0LjcwMyAwLjAxLDUuODI2IDYuODA2LDAuNjU0IDExLjAwOCw0LjExOCAxNi4yMTksNi40OTQiIHN0eWxlPSJmaWxsOiMyMzFmMjA7ZmlsbC1vcGFjaXR5OjE7ZmlsbC1ydWxlOmV2ZW5vZGQ7c3Ryb2tlOm5vbmUiIGlkPSJwYXRoMTEwIiBpbmtzY2FwZTpjb25uZWN0b3ItY3VydmF0dXJlPSIwIi8+PHBhdGggZD0ibSA5OS41MjY2LDE1OS43NzcgYyA1LjY3ODQsLTIuOTg2IDE2LjExNDQsLTMuMzA3IDIzLjgzMjQsLTMuMDgxIDAuNDE0LC0xLjY5MSAwLjQwNCwtMy43OCAwLjQyLC01Ljg0MiAtOS45MjEsLTAuNDk1IC0yMS42NTEsMS45NiAtMjQuMjUyNCw4LjkyMyIgc3R5bGU9ImZpbGw6IzIzMWYyMDtmaWxsLW9wYWNpdHk6MTtmaWxsLXJ1bGU6ZXZlbm9kZDtzdHJva2U6bm9uZSIgaWQ9InBhdGgxMTIiIGlua3NjYXBlOmNvbm5lY3Rvci1jdXJ2YXR1cmU9IjAiLz48cGF0aCBkPSJtIDk4LjQ0NzMsMTU0LjIwOSBjIDMuOTI2NywtOS44NTkgMTcuNDIyNywtOC43MjQgMjguODAzNywtOC40NTIgLTAuNTAxLC0xLjI4IC0xLjU4NywtMi43OTIgLTIuOTM3LC0zLjMzOSAtMy42NDcsLTEuNDg0IC0xMy43MDYsLTIuNjEgLTE4Ljc2OSwwLjA3OSAtMy4yMTEsMS43MDcgLTUuMjc0LDUuNTY0IC03LjAzMzMsNy44MjUgLTAuODQ5NiwxLjA5MiAtNS4wODAxLDMuODgxIC0wLjA2NDQsMy44ODciIHN0eWxlPSJmaWxsOiMyMzFmMjA7ZmlsbC1vcGFjaXR5OjE7ZmlsbC1ydWxlOmV2ZW5vZGQ7c3Ryb2tlOm5vbmUiIGlkPSJwYXRoMTE0IiBpbmtzY2FwZTpjb25uZWN0b3ItY3VydmF0dXJlPSIwIi8+PHBhdGggZD0ibSAxMzcuNTU2LDk5LjgyNjIgYyAtNC42MDgsLTcuODkyMiAtOS4wMTcsLTE1Ljk5ODEgLTE0LjQ4NCwtMjIuOTU5NCAyLjI5Miw2LjczOTEgMy4yNzMsMTguMDE4NCAzLjYxOSwyNi42MTcyIDQuNzk1LDIuMjQ0IDguOTAxLC0wLjUwNSAxMC44NjUsLTMuNjU3OCIgc3R5bGU9ImZpbGw6IzgxYjBjNDtmaWxsLW9wYWNpdHk6MTtmaWxsLXJ1bGU6ZXZlbm9kZDtzdHJva2U6bm9uZSIgaWQ9InBhdGgxMTYiIGlua3NjYXBlOmNvbm5lY3Rvci1jdXJ2YXR1cmU9IjAiLz48cGF0aCBkPSJtIDE2Mi4zNTIsNzEuNDYwOSBjIC01LjE1OSwtMS4wMzI4IC04Ljc4NCwtNi4wNDY4IC0xMy44MTcsLTUuNzI1IDIuNzY2LDMuODk5MyA3LjYxMyw1LjU0MyAxMy44MTcsNS43MjUiIHN0eWxlPSJmaWxsOiMyMzFmMjA7ZmlsbC1vcGFjaXR5OjE7ZmlsbC1ydWxlOmV2ZW5vZGQ7c3Ryb2tlOm5vbmUiIGlkPSJwYXRoMTE4IiBpbmtzY2FwZTpjb25uZWN0b3ItY3VydmF0dXJlPSIwIi8+PHBhdGggZD0ibSAxNjQuNjI4LDYzLjM4NzEgYyAtNC4yMDUsLTAuNDQ0MSAtOS4xNDQsLTEuMTI1IC0xMy40MDksLTAuNzc0MiAyLjAxOSwzLjA4NCA5Ljc5OCwyLjAxOTkgMTMuNDA5LDAuNzc0MiIgc3R5bGU9ImZpbGw6IzIzMWYyMDtmaWxsLW9wYWNpdHk6MTtmaWxsLXJ1bGU6ZXZlbm9kZDtzdHJva2U6bm9uZSIgaWQ9InBhdGgxMjAiIGlua3NjYXBlOmNvbm5lY3Rvci1jdXJ2YXR1cmU9IjAiLz48cGF0aCBkPSJtIDE2Ni4wODUsNTYuNDI2MiBjIC00LjcyNiwtMC4xMDI0IC0xMC42LC0wLjAwODIgLTE1LjA5MiwwLjM2ODcgMi42NTcsMi44NTM5IDEyLjAyNywxLjA1OSAxNS4wOTIsLTAuMzY4NyIgc3R5bGU9ImZpbGw6IzIzMWYyMDtmaWxsLW9wYWNpdHk6MTtmaWxsLXJ1bGU6ZXZlbm9kZDtzdHJva2U6bm9uZSIgaWQ9InBhdGgxMjIiIGlua3NjYXBlOmNvbm5lY3Rvci1jdXJ2YXR1cmU9IjAiLz48cGF0aCBkPSJtIDEyOC42NjQsMzcuMzc3IGMgMC42NzgsLTUuOTM1MiAzLjAzMSwtMTEuOTQ4OSAyLjczNiwtMTguNDQ4OSAtMi42MTMsLTAuODgxMiAtNC4xMTQsLTEuNjUxOSAtNy42MTUsLTEuNjQ3MiAtMC4yNDcsNS41MjQyIC0wLjk4NiwxMy45NjkxIC0wLjc2NSwxOS4yMzUxIDEuNzIyLC0wLjExNCA0LjI2MSwxLjIzMDEgNS42NDQsMC44NjEiIHN0eWxlPSJmaWxsOiNkY2Q5ZDg7ZmlsbC1vcGFjaXR5OjE7ZmlsbC1ydWxlOmV2ZW5vZGQ7c3Ryb2tlOm5vbmUiIGlkPSJwYXRoMTI0IiBpbmtzY2FwZTpjb25uZWN0b3ItY3VydmF0dXJlPSIwIi8+PHBhdGggZD0ibSAxMjEuMDQ1LDEyNC44NDkgYyAtMi4zNzMsLTEuNTQ5IC00LjM5NCwtMy40ODMgLTYuNjczLC01LjEzNyAtNS4wNTQsLTAuMjUgLTcuODEyLDAuMzUgLTExLjUyNSwzLjI1MiAwLjA2MSwwLjIzMyAwLjQzNCwwLjEyOSAwLjQ0OCwwLjQxNSA1LjQxLC0yLjQxMSAxMi4yODcsMC45ODIgMTcuNzUsMS40NyIgc3R5bGU9ImZpbGw6I2YwZDZiNztmaWxsLW9wYWNpdHk6MTtmaWxsLXJ1bGU6ZXZlbm9kZDtzdHJva2U6bm9uZSIgaWQ9InBhdGgxMjYiIGlua3NjYXBlOmNvbm5lY3Rvci1jdXJ2YXR1cmU9IjAiLz48cGF0aCBkPSJtIDkyLjY0NDUsODcuOTcxMSBjIDEuNDg2NCw2LjQ0MSA3LjMxMDYsOS43NzY5IDEyLjU5OTUsMTMuMzIzOSA1LjQ1OSwtNi45MjgyIDguNzc5LC0xNS44MzggMTIuNDM1LC0yNC40MzYgLTguNjM4LDIuNjAzOSAtMTcuNDY0LDYuODI4OSAtMjUuMDM0NSwxMS4xMTIxIiBzdHlsZT0iZmlsbDojODFiMGM0O2ZpbGwtb3BhY2l0eToxO2ZpbGwtcnVsZTpldmVub2RkO3N0cm9rZTpub25lIiBpZD0icGF0aDEyOCIgaW5rc2NhcGU6Y29ubmVjdG9yLWN1cnZhdHVyZT0iMCIvPjxwYXRoIGQ9Im0gMTIzLjAyLDM2LjUxNiBjIC0wLjIyMSwtNS4yNjYgMC41MTgsLTEzLjcxMDkgMC43NjUsLTE5LjIzNTEgMy41MDEsLTAuMDA0NyA1LjAwMiwwLjc2NiA3LjYxNSwxLjY0NzIgMC4yOTUsNi41IC0yLjA1OCwxMi41MTM3IC0yLjczNiwxOC40NDg5IC0xLjM4MywwLjM2OTEgLTMuOTIyLC0wLjk3NSAtNS42NDQsLTAuODYxIHogTSA2OC41MDU5LDY2LjQ2NDggQyA3MC44MTQ1LDQ1LjI0MTggNzQuMTU4MiwyNy40MDEyIDgwLjI5MSw4LjYwNzgxIDkzLjkwMjMsNC40NzUgMTEwLjMxMSw0LjExNDg0IDEyMi4zNDIsNy44NDQxNCAxMjAuMTMzLDE4LjQ1MTIgMTIxLjA5OCwzMS4zNjQ4IDExOS44MDcsNDIuNjg0IGMgLTAuOTczLDguNTA3OCAtMC40NzcsMTcuMDY4IC0xLjgxMSwyNS43NDggLTE0LjU3OCwzLjAzMjggLTM1LjE4MzUsMC43MDkgLTQ5LjQ5MDEsLTEuOTY3MiB6IG0gNTIuOTM3MSwxLjgzNCBjIC0wLjEyMywtOS4xMTQ4IDAuNDA4LC0xOC4xMDU4IDEuMTA0LC0yNy4yMzIgMy41LDAuNTI1NCA1Ljg3NSwwLjg3NjIgOS4xMjcsMS41ODkxIC0xLjA1Niw4Ljc4NTkgLTAuOTI2LDE4LjY3MjIgLTMuMDc3LDI2LjQ0NDEgLTIuNDg2LC0wLjAyMzggLTQuNjc1LDAuMDI4OSAtNy4xNTQsLTAuODAxMiB6IG0gMTcuNzU1LDEuNDY5MiBjIC0xLjY2MSwwLjM4MDggLTMuNTk1LDAuMDE0OCAtNS4xODIsLTAuMDE2IDAuNzQ2LC03LjQzMDEgMi41NTYsLTE1LjYyOSAzLjE5MywtMjMuNDI4MiAyLjQ5NywtMC4wNzc3IDMuODMxLDEuMSA1Ljg4NSwxLjQ5NjEgMC4xMSw2Ljg0NjEgLTAuNTk4LDE2LjI3ODEgLTMuODk2LDIxLjk0ODEgeiBtIDI2Ljg4NCwtMjQuNTYyOSBjIDUuMjA1LDEuMjY0IDguNDc4LDcuNjM5IDcuMDIyLDE0LjE4NTkgLTAuOTc3LDQuNCAtMi43MTcsMTIuNjg1MiAtNC41NzksMTUuNSAtMS4zNzYsMi4wODIgLTUuMTA3LDQuODA3OCAtOC4wODYsMi45IC00Ljg0NiwtMy4xMDMxIC0xMy4zODMsLTQuMDAzOSAtMTYuOTE3LC03Ljc2MDEgMS43NzIsLTUuOSAyLjMyMiwtMTQuMDAzOSAzLjA1MywtMjEuNDc5NyA2LjA1NCwtMC4zNzc0IDEzLjUwMywxLjY2NiAxOC41MzgsLTAuNTAyNCAtMy41MTUsLTEuMTM4NiAtOC4wNzYsLTEuMTQ3NiAtMTEuMTEzLC0yLjgwNyAyLjQ4MiwtMS4xOTg4IDguMjkzLC0wLjk1NjYgMTIuMDgyLC0wLjAzNjcgeiBNIDExNy42NzksNzYuODU5IGMgLTMuNjU2LDguNTk4IC02Ljk3NiwxNy41MDc4IC0xMi40MzUsMjQuNDM2IEMgOTkuOTU1MSw5Ny43NDggOTQuMTMwOSw5NC40MTIxIDkyLjY0NDUsODcuOTcxMSAxMDAuMjE1LDgzLjY4NzkgMTA5LjA0MSw3OS40NjI5IDExNy42NzksNzYuODU5IHogbSA5LjAxMiwyNi42MjUgYyAtMC4zNDYsLTguNTk4OCAtMS4zMjcsLTE5Ljg3ODEgLTMuNjE5LC0yNi42MTcyIDUuNDY3LDYuOTYxMyA5Ljg3NiwxNS4wNjcyIDE0LjQ4NCwyMi45NTk0IC0xLjk2NCwzLjE1MjggLTYuMDcsNS45MDE4IC0xMC44NjUsMy42NTc4IHogbSAtMTAuMjE2LDMuNjMgYyAtMi4wNzEsMC4yMjMgLTMuODI5LC0yLjM4MSAtNi41MjIsLTEuMjU1IC0wLjYxNywtMC42ODIgLTEuMTc4LC0xLjQyMSAtMS44MDcsLTIuMDg3IDUuOTQ4LC03LjE2ODEgOC42NTEsLTE3LjMzOCAxMy4yNDUsLTI1Ljc2MTggMi40NjUsOC4wOTE4IDIuMTgxLDE2Ljk1NyAyLjcyNCwyNS43ODg4IC0zLjM4NywtMC4yMTUgLTUuMjY2LDMuMDYzIC03LjY0LDMuMzE1IHogbSAtNi41NjksOC42NyBjIC0wLjIyMSwtMi40NTUgMC4zNSwtMy4yNTggMC44NDQsLTYuMDcyIDguMDcsLTIuNTIzIDYuNjYxLDExLjA3NiAtMC44NDQsNi4wNzIgeiBtIC04Ljk0OSwyLjkzOCBjIC0zLjQ3NzMsMS45IC04LjcwMTEsMy45NjkgLTEzLjE5MjUsNC44MjYgLTUuNTY3MiwxLjA2NSAtNS4wNDU3LC03LjU5NCAtNC44MDk0LC0xMi43NiAwLjE4NTUsLTQuMDkgMi4zMTI1LC04LjQxNSAzLjIzNjMsLTExLjEzMjEgMC40MzM2LC0xLjI2ODggMC41MzEzLC0yLjYxNDkgMS42MTYsLTIuODY2OCAxLjkxNzIsLTAuNDQ2OSA4LjI0MTQsMi4wODIgMTAuMDQzNCwzLjA2NDggMy44MTEyLDIuMDc4MSA2Ljc2ODIsNS4zNzgxIDEwLjAwNTIsNy41OTQxIDAuMDQyLDEuMDc4IDAuMDgzLDIuMTU1IDAuMTI2LDMuMjMzIC0xLjk0NiwwLjk3IC00LjE5NSwxLjY1OCAtNy4wNTIsMS43ODMgMS45MzgsMC45NzUgNC43ODksMC45NjEgNi41NTUsMi4xMjEgMC4wMTcsMC40MzIgMC4wMzUsMC44NjMgMC4wNSwxLjI5MSAtMy4yMjQsMC4yNDggLTQuNDUzLDEuNjg0IC02LjU3OCwyLjg0NiB6IG0gLTMzLjIxMzYsNi4wMzMgYyAtMi44ODYsLTIuOTMgOC4wOTQ1LC02LjkyNCAxMS41OTA2LC03LjEzOSAtMC4wMTk1LDEuODU0IDEuMDU2NiwzLjYwMiAwLjgzOTgsNC45MzIgLTQuMTUyMywwLjcyOSAtOS42MDkzLDAuMjQ4IC0xMi40MzA0LDIuMjA3IHogbSAzNS41NTE2LC0xLjM3NiBjIC0wLjAxNCwtMC4yODYgLTAuMzg3LC0wLjE4MiAtMC40NDgsLTAuNDE1IDMuNzEzLC0yLjkwMiA2LjQ3MSwtMy41MDIgMTEuNTI1LC0zLjI1MiAyLjI3OSwxLjY1NCA0LjMsMy41ODggNi42NzMsNS4xMzcgLTUuNDYzLC0wLjQ4OCAtMTIuMzQsLTMuODgxIC0xNy43NSwtMS40NyB6IG0gMzIuNjMyLC05Ljg5NSBjIC0wLjE1NiwzLjI1NSAtMS4wMTEsOS45NDkgLTMuMDIzLDExLjEyMSAtNC4yMjMsMi40NjUgLTExLjczLC00Ljk3NyAtMTQuOTEsLTYuMTEyIDAuMzQ2LC0wLjk5NiAwLjkxNywtMS43ODUgMC45NjEsLTMuMDU4IDEuODgxLDAuNDYzIDQuMTcxLDAuMTQ2IDUuODAxLC0wLjY1NSAtMS44ODUsLTAuMjExIC0zLjk3NSwtMC4xOTcgLTUuMjIyLC0xLjA5NSAtMC40NTcsLTEuMzIxIDAuMTEyLC0zLjEyMSAtMC4xOTIsLTQuOTU1IDQuNDc0LC0xLjI2MiA5LjU4NCwtMS45MzQgMTUuMjQsLTIuMSAxLjEsMS40MyAxLjQ3NSw0LjE1NCAxLjM0NSw2Ljg1NCB6IG0gLTczLjA0MjIsOC40MzcgYyAtMC45MDYzLDAuNjQ2IC03LjAzNzEsOC42MjMgLTcuODc3LDguMjkyIEMgNDMuOTE0MSwxMjUuODM4IDMzLjU0MSwxMTguMjczIDI0LjI3MTUsMTExLjExOCAzMy4xMDk0LDkyLjE1MzkgMzYuNjc3LDY4LjkxOTkgMzcuMzA3NCw0Ni41MjYyIDQ3LjQzMTYsNDEuNzkxIDU2LjMyNDIsMzQuOTY0OCA3MC4wNjI1LDM0LjI1MiA2OC40NzI3LDQ1LjUgNjcuMDIxNSw1NS41MzUyIDY2LjExOTEsNjYuMTI1IGMgLTMuNDUxOSwxLjQ1NTEgLTguNDA0MywtMC4wNjYgLTExLjYzNDcsMC40NTEyIC0wLjAyNzQsMy44OTI5IDQuOTMzNiwxLjcwNDcgNS4zNDY4LDQuMzIyNiAwLjMxMTQsMS45ODAxIC0yLjcyOTYsMi4xMzAxIC0xLjczOTQsNS4yNDgxIDIuNTI1NCwtMC45MTggMy44NTE2LC0yLjk0NTcgNi41NDQ5LC0zLjcwNzEgMi40NjEsNS4zODQgLTAuMDM0NCwxNC45MTAyIDAuMzIwMywxOS40MTAyIDAuMDY3MiwwLjg0NDkgMC40MjE5LDQuNjgwOSAyLjMxNDUsNC4wMDc4IDEuNjc1LC0wLjU5NTcgLTAuMDk1NywtMTAuMjAxOSAwLjA4NzksLTE0LjQ2MDkgMC4xNjcyLC0zLjkyMzkgLTAuNDczOSwtNy43MjA3IDEuMTE1MiwtMTAuMTg0IDEzLjI3NTQsMS44MDcgMjYuNzY1NiwyLjk3NSA0MS4xMjk0LDMuMzY5MSAtMy4xNiwxLjM1NTkgLTYuOTE0LDIuNjM5MSAtMTEuMDI5OCw0Ljk1OSAtMi4yMzEyLDEuMjU3OCAtOS4yNjQ0LDMuODc1IC05LjkwODIsNS45OTQyIC0xLjAyNzMsMy4zNzY5IDIuNjk1Myw1LjE3NTcgMy4zMzIsOC4wNzA3IC02LjcwMTEsLTMuNjU0NyAtOC4wMDg1LDMuNTAzMSAtOS41OTM3LDguNTc0MSAtMS40MzYzLDQuNTkzIC0yLjI1MzksOC4wMjQgLTIuNjA2MywxMC42NzMgLTUuNzcyNiwyLjc1MiAtMTEuOTQ0NSw1LjUzOSAtMTYuOTEzMiw5LjA2OCB6IG0gNjcuMTc5Miw3LjMyNyBjIDkuMjQzLDQuNDgyIDEwLjkwOSwtMTYuNzUxIDcuMjg2LC0yMy41OTEgMC41NiwtMi4wNCAyLjQ4NiwtMi44MjEgMy4yNzIsLTQuNjU1IC01LjE1OCwtOS4yMzk5IC0xMC44ODcsLTE3Ljg2NDkgLTE2LjE1LC0yNi45OTYxIDMuOTE1LDIuNDM3MSA5LjUwNywwLjQzNTkgMTQuMTE0LDIuMjYwMSAxLjY4NCwwLjY2NiAyLjkwMyw0LjUyMTEgNC4xNzgsNy42MDUxIDMuNTA3LDguNDg0OCA3LjE4OSwxOS4xODE5IDguODI3LDI3LjI3ODkgMC4zNywxLjg0NSAxLjM3OCw1Ljg2NSAxLjE1Miw3LjUwNyAtMC40MDMsMi45NCAtNC4zOTIsNS4xMiAtNi40MjEsNi45MzggLTMuNzM4LDMuMzU4IC02LjA5Miw2LjMxMyAtOS45OTEsOS40NTMgLTEuNTgxLC0yLjMzNCAtNC45NzQsLTMuOTAyIC02LjI2NywtNS44IHogbSAtODguMzE3OSw4MS45NjggYyAtNC40MDQzLC00Ljg0NiAtMy40ODI0LC0xMy45MjYgLTIuOTQ5MiwtMjAuMzg2IDcuOTYwOSw1LjAwOCAxOC41MjczLC0wLjM5NiAxOC40Mjc3LC04LjkxNCAzLjgwMDgsMC4xMDEgMS40MTk5LDQuNzQ3IDAuNzMyNCw3Ljc0IC0yLjI0NjgsOS43NzYgMy43ODUyLDIwLjM5NyAwLjI3MzUsMjkuMzM3IC02LjgxODQsLTAuNTE3IC0xMi40MiwtMy4zMDIgLTE2LjQ4NDQsLTcuNzc3IHogbSAzMS41MTM3LDI4LjEyNiBjIC05Ljk3MDcsLTIuODI2IC0yMi43NDkzLC0xMC4wNzEgLTI2Ljg0NjUsLTE5LjAyOCAzLjE3MjYsMC40NjEgNS4zNzUsMi4wNjEgOC41MDQ3LDIuMjU5IDEuMTgyOCwwLjA3NyAyLjczMjQsLTAuNDk2IDQuMDkxOCwtMC4xNTggMi43MDksMC42NzIgNC45OTUzLDYuNzQ2IDcuMDM5LDkuMDA2IDEuOTkyMiwyLjIwNyA0LjM4NjcsMy4xNSA2LjAyNTQsNS4xNjIgMS4wNTI4LDAuNTA4IDIuNjA5NCwwLjQ3MyAyLjY2OTIsMi4wNTQgLTAuNDU2MywwLjQ4OCAtMC45MzY4LDAuODYgLTEuNDgzNiwwLjcwNSB6IG0gNTEuOTAzMiwtMi42NTggYyAtMTAuMzQ5LDUuODM5IC0yNy44NjYxLDEwLjIzMSAtMzguODc0Nyw0Ljc0MyAtOC44ODI4LC00LjQyOSAtMjAuODg5OSwtMTEuNzU3IC0yNC45ODM2LC0yMS4wNDMgMy44MjQyLC04Ljk2MSAtMS4xMzI4LC0xNy4xNzIgLTEuNDQ5MiwtMjYuMjcgLTAuMTY4LC00Ljg0MSAyLjI3OTMsLTkuMDY3IDIuNDY2OCwtMTQuMzM3IC0xLjMwODYsLTIuMTU5IC01LjMwNjcsLTIuNDI1IC04LjA3NDMsLTIuMjc3IC0wLjkzMTYsNC42NjIgLTIuNTYyNSw5LjkwMiAtNy4zNjMyLDEwLjQyOCAtNi43OTMsMC43NDMgLTExLjc1OTgsLTQuODc5IC0xMi4wNjg0LC0xMC43NTQgLTAuMzY1MiwtNi45MDkgNS4zMDY2LC0xOC4zNiAxMy4zNDU3LC0xNy41NjUgMy4xMDU1LDAuMzA3IDMuODY4NCwzLjQyIDcuMjUyLDMuMzg4IDEuODMzOSwtMy42NTkgLTIuODI4OSwtNC44MDggLTMuMzA4NiwtNy40MjUgLTAuMTI1LC0wLjY3NiAwLjM4NjcsLTMuMzE4IDAuNjg0MywtNC41NTcgMS40NjAyLC02LjAzMyA0LjcxNTMsLTEzLjg0MSA3LjkxOTIsLTE4LjQzNCA0LjA2NjQsLTUuODI2IDEyLjA1NTUsLTYuNzA0IDIwLjY1MDQsLTcuMjc1IDEuNTM1MSwzLjMwNyA3LjE5MDIsMy4wMzUgMTAuODc1LDIuMTcgLTQuNDE2LDEuNzQ5IC04LjUyMTUsNS45ODkgLTExLjkyMzksOS43NDIgLTMuOTA4Miw0LjMwNiAtNy44NjcxLDguOTI1IC04LjA2NzEsMTQuNTUzIDcuMzg1NSwtMTAuMjQ2IDEzLjQ4NzEsLTE5LjE5NCAyNi45MTY4LC0yMy43MDEgMTAuMTYxOCwtMy40MDggMjIuMDI5OCwxLjU2MiAyOS44Mzc4LDcuMDQ1IDMuMjQsMi4yNzkgNS4xNzQsNS44OTUgNy40NzcsOS4yMDUgOC42MTcsMTIuMzk1IDEyLjYzOCwzMC4wODcgMTEuNzU0LDQ3LjIzNSAtMC4zNjQsNy4wNzIgLTAuMzQ4LDE0LjEyIC0yLjcyMSwxOC44NzggLTIuNDgsNC45NzUgLTEwLjg2OCw5LjQyNiAtMTUuNzc4LDQuOTI2IC0wLjkxLDQuODM4IDQuMDgzLDcuODMgOS45NDgsNi4wODkgLTQuMTgyLDUuMzk3IC04LjU3MSwxMS44ODIgLTE0LjUxNSwxNS4yMzYgeiBNIDE0NC40NDQsNzcuMTE2OCBjIDguMDg3LDQuMDIwMyAyMy4xOTcsMTAuODIxMSAyOC4yNjcsLTAuMDE0OCAxLjg3MSwtMy45OTQyIDQuMDY2LC0xMC43NDYxIDUuMDM1LC0xNC44NjkyIDEuMzY5LC01LjgxNjggLTEuNDg0LC0xOC4wNDMgLTcuNDYzLC0xOS45OTQ5IC01LjI4MSwtMS43MjM4IC0xMS40NDMsLTEuNjE4OCAtMTcuODA0LC0wLjM0MSAtMC43NDksMC42MjMgLTEuNTgzLDEuNzA5IC0yLjE2NiwyLjg0MSAtNC41NDIsMC4xNzYyIC04Ljc5NSwtMC4yNDM4IC0xMi4zODMsLTIuMTEwOSAwLjM0LC0zLjM1OSAtMS45MzIsLTMuODk4MSAtNC4wNjIsLTQuNTg5OSAtMS41NzksLTYuMjYwOSAzLjE1OSwtMTQuNDM3MSAyLjAyNSwtMjAuMTQ2MSAtMC44MDksLTQuMDY3MiAtNS44MTMsLTQuNjk2MSAtOS40OTEsLTUuNDU3IC0wLjEyLC0yLjI2MDIgMC4xNjEsLTQuMTQ2ODkgMC40MTIsLTYuMDU5IC0wLjg0MSwtMy4wOTg4MyAtNC42MTMsLTQuODYyODkgLTguMTg3LC01LjI5NDkyIC0xMS43NTksLTEuNDE0MDY0IC0yOS42MTMzLC0yLjA0OTIyMSAtNDAuOTIzOSwyLjAxNzk3IC0zLjE1NjIsNy43NDE3NSAtNS42NDI2LDE3LjE1Nzg1IC04LjI3MTUsMjUuOTk4MDUgLTExLjAzMTIsLTEuMTc4MSAtMTkuOTUzMSw0Ljc1OTggLTI4LjM2NCw4LjY1IC0yLjkxMjEsMS4zNSAtNi45NDA2LDIuMDkzNyAtOC4wMjg1LDQuNDExNyAtMS4wNTQ3LDIuMjQ0MiAtMC42MjMxLDYuNTQ1MyAtMC44ODQ4LDEwLjYwODIgLTAuNjY2LDEwLjM3NyAtMS4yMzYzLDIwLjM4NiAtMy45NzY2LDMxLjAxMSAtMS4yMzA0LDQuNzY3OSAtMy4zNzUsOC45NzUgLTQuODcxMSwxMy41NjkxIC0xLjM4MjgsNC4yNTc5IC0zLjc5ODgsOS41MTk5IC00LjQyODksMTMuNzY1OSAtMC45MzQzLDYuMjkzIDQuOTkxNCw2LjY0MyA4Ljc4MDUsOS4zNyA1Ljg1NzQsNC4yMTcgMTAuNDU1MSw2LjU0OSAxNi43OTg4LDEwLjM1NSAxLjg3ODksMS4xMjcgNy41NDUsMy45OCA4LjE4OTUsNS4yOTQgMS4yODEyLDIuNjA1IC0yLjE5OTIsNi4yNzggLTMuMTI5Nyw4LjMyIC0xLjQ3MTksMy4yMjkgLTIuMjM5NSw1Ljk3MiAtMi40NTA0LDkuMTU4IC01LjMyMTUsMC44NDEgLTkuMzU1NSw0LjAwOCAtMTEuNzkyMiw3LjU3OSAtNC4wMzA4LDUuOTEgLTYuODI2MiwxNi44NDQgLTMuMzM4NywyNS4xNjEgMC4yNzM1LDAuNjU1IDEuNjM3NSwxLjk0MyAxLjgzODcsMi45NDkgMC4zOTY5LDEuOTgxIC0wLjc0NjksNC42MTUgLTAuODE4LDYuNzIyIC0wLjM2NjQsMTAuODEgMS44MjksMjAuMTI0IDkuMTA2MywyMy4zODQgMi45NTQzLDExLjc2OSAxMy41MjgxLDE1LjY4MiAyMy40OTAyLDIxLjUzMSAzLjcyMzksMi4xODYgNy44Mjg5LDMuNTgzIDEyLjA2ODQsNS4xNDMgMTUuMjA4Miw1LjU5NyAzOC41NDE5LDQuNTQzIDUxLjE2MzksLTUuMDAzIDUuMzUyLC00LjA0OCAxMy45MDcsLTEyLjU5NSAxNi45NjcsLTE4Ljc4MyA4LjA4MiwtMTYuMzM3IDcuNTA4LC00My42NCAxLjg1NSwtNjMuNTEzIC0wLjc2LC0yLjY2OCAtMS44NjIsLTYuNTkgLTMuNDAxLC05Ljc5NSAtMS4wNzMsLTIuMjM4IC00LjQwOCwtNi43MTYgLTQuMDAzLC04LjY5MiAwLjQxNywtMi4wNDMgNy42MDQsLTcuNSA5LjE0NSwtOC45ODYgMi43NzUsLTIuNjc3IDguMDQ3LC02LjIzIDguNDc0LC05LjYwOCAwLjQ1OSwtMy41OTUgLTEuNTg0LC04LjUxMyAtMi42MTksLTExLjk4MiAtMy40NiwtMTEuNTc2OSAtNi44MzYsLTIyLjI3ODEgLTEwLjc1OSwtMzIuNTk5MiIgc3R5bGU9ImZpbGw6IzIzMWYyMDtmaWxsLW9wYWNpdHk6MTtmaWxsLXJ1bGU6ZXZlbm9kZDtzdHJva2U6bm9uZSIgaWQ9InBhdGgxMzAiIGlua3NjYXBlOmNvbm5lY3Rvci1jdXJ2YXR1cmU9IjAiLz48cGF0aCBkPSJtIDkwLjQ5MSwxNTcuMjU1IGMgMC40Mzg3LDAuNTg0IDIuODUwOCwxLjQ3MSA2LjIyNTgsLTAuMTU0IDAsMCAtNCwtMC42NjcgLTMuNjY3MiwtNy4zMzYgbCAtMS42NjY4LDAuMzM0IGMgMCwwIC0xLjcyMjYsNi4wNDcgLTAuODkxOCw3LjE1NiIgc3R5bGU9ImZpbGw6I2Y3ZTRjZDtmaWxsLW9wYWNpdHk6MTtmaWxsLXJ1bGU6ZXZlbm9kZDtzdHJva2U6bm9uZSIgaWQ9InBhdGgxMzIiIGlua3NjYXBlOmNvbm5lY3Rvci1jdXJ2YXR1cmU9IjAiLz48cGF0aCBkPSJtIDExOS43MTcsOTkuOTM0IGMgMCwtMS4wMTIxIC0wLjgyMSwtMS44MzI4IC0xLjgzNCwtMS44MzI4IC0xLjAxMiwwIC0xLjgzMywwLjgyMDcgLTEuODMzLDEuODMyOCAwLDEuMDEyIDAuODIxLDEuODM0IDEuODMzLDEuODM0IDEuMDEzLDAgMS44MzQsLTAuODIyIDEuODM0LC0xLjgzNCIgc3R5bGU9ImZpbGw6IzFkMTkxOTtmaWxsLW9wYWNpdHk6MTtmaWxsLXJ1bGU6ZXZlbm9kZDtzdHJva2U6bm9uZSIgaWQ9InBhdGgxMzQiIGlua3NjYXBlOmNvbm5lY3Rvci1jdXJ2YXR1cmU9IjAiLz48cGF0aCBkPSJtIDEyMS41NSw5MS40MzQgYyAwLC0xLjAxMjEgLTAuODIxLC0xLjgzMjggLTEuODM0LC0xLjgzMjggLTEuMDEyLDAgLTEuODMzLDAuODIwNyAtMS44MzMsMS44MzI4IDAsMS4wMTIxIDAuODIxLDEuODM0IDEuODMzLDEuODM0IDEuMDEzLDAgMS44MzQsLTAuODIxOSAxLjgzNCwtMS44MzQiIHN0eWxlPSJmaWxsOiMxZDE5MTk7ZmlsbC1vcGFjaXR5OjE7ZmlsbC1ydWxlOmV2ZW5vZGQ7c3Ryb2tlOm5vbmUiIGlkPSJwYXRoMTM2IiBpbmtzY2FwZTpjb25uZWN0b3ItY3VydmF0dXJlPSIwIi8+PC9nPjwvZz48L3N2Zz4=;" parent="1" vertex="1">
                    <mxGeometry x="447.53999999999996" y="287.57" width="34.69" height="47.89" as="geometry"/>
                </mxCell>
                <mxCell id="18" value="" style="shape=image;verticalLabelPosition=bottom;labelBackgroundColor=#ffffff;verticalAlign=top;aspect=fixed;imageAspect=0;image=data:image/png,iVBORw0KGgoAAAANSUhEUgAAAggAAAHkCAYAAABbktcHAAAAAXNSR0IArs4c6QAAIABJREFUeF7sXQd0VUXX3a/3vPRGEkJCR4oIggpSRUVABD4RUBQBpYsF6VIUVBALvSsgRZoiIr0XERCQXkNCCunt9f6vMwF+pKa8F1JmllmJ5N65M3tu3uw5ZR+By+VygTeOAEeAI8AR4AhwBDgCdyAg4ASBvw8cAY4AR4AjwBHgCNyNACcI/J3gCHAEPILAT0uWYM/evRgxfDiqV6vmkWfwTjkCHAHPIcAJguew5T1zBMo1AqFhYUhOSoK3ry+mffMNer3zTrnGg0+eI1DaEOAEobStGB8vR6CEI+B0OvHRxx9j1qxZ6Pvee9i9axcuX76Ml15+GaNHjcIzjRuX8Bnw4XEEOAKEACcI/D3gCHAE3IrA+QsX0Kx5c0SEh2Pvnj2wWCzo06cP/vjjD4hkMowaPhyfDhsGmUzm1ufyzjgCHAH3IsAJgnvx5L1xBMo9Ah1few0bNmzAmjVr0KVz59t4/LFpE8aPG4cTJ06gYePGGDViBDq0b1/u8eIAcARKKgKcIJTUleHj4giUMgQoY/rHn37Ce++/j86dOuGXVavumQFZE0aOGoUfFy+G3mBA7z598NmYMQgNDS1ls+XD5QiUfQQ4QSj7a8xnyBEoFgQys7LwdKNGMBmN2L9/P6IqVXrgc48ePYoRo0ax+ITKVapg2CefoG+fPsUyTv4QjgBHIH8IcIKQP5z4VRwBjsBDELBarXinVy9mNZj27bcY+sEH+cLru++/x/fffYeExES0f/VVTBw3DnXq1MnXvfwijgBHwLMIcILgWXx57xyBcoHAnHnzMGjQILzRtSuWLlkCkUiUr3lTxkNKSgpGjBiBZcuWwc/fH/3798fIESOgUCjy1Qe/iCPAEfAMApwgeAZX3itHoNwgcDUmBi1atoTVbMaBAwdQuXLlAs+diMLadeswedIknD5zBs8+9xwmjh+PJk2aQCKRFLg/fgNHgCNQdAQ4QSg6hrwHjkC5RUCn0yEsIgK52dnYt38/mjZpUiQsKIhxwsSJmDJlCrNCdO/RA3Nnz+YpkUVCld/MESgcApwgFA43fhdHgCMAoP/AgZg3dy5Gjx6NzydOdAsmZE0gS8QXkyZh9549qFK5MnNBvP6//0Eul7vlGbwTjgBH4NEIcILwaIz4FRwBjsBdCNAmTgGGnw4fzlwK586cyXfcQX7BpGfMnDWL1XKw2u1o1aoV1q9dC6VSCYFAkN9u+HUcAY5AIRHgBKGQwPHbOALlGYF169ejZ8+eqFqlCnbv3g1vb2+PwXHu3Dl8+eWXWLFyJQKDgjB40CAM//RTtxMSj02Ad8wRKKUIcIJQSheOD5sj8DgQIDGkEydPoknTppBKJNi6dSsaPf10gYdiWbMOoqhIiOvVA/KZ8bB27VoM/fBDlvVQ84knsHD+fNR/8klOFAqMPr+BI5A/BDhByB9O/CqOAEcAwKVLl9DmpZegy83Fht9+Y1kGBW324yeR80JrQCyBvMebUE7+HIJ8xhYkJSVhxowZ+Oqrr+AfEIDXOnfG1K++glarLegw+PUcAY7AIxDgBIG/IhwBjkC+ECBy8OLLLyM1JQUzZ84sVPlml8mE3Lbt4Th/CQKVEs60NIiqREE1ZQokrVrkaxx00d59+zBq5Ej89ddfqF6zJkuPbPfKKxCLxfnug1/IEeAIPBwBThD4G8IR4Ag8EgEy6zdv2RIxV68yQaP/delSqEBB85x5MI4bD4FKA7hc7LkupxPQ6SF5rQPU334DgXf+rAG5ublYumwZE1VyuFwsiHHmjBmoGBHxyPnwCzgCHIFHI8AJwqMx4ldwBMo1An8fOYKub7yBjLQ0TJgwAR988EGh/P62v48gt2kzCINDAaHwv5gKBHBmpUNU50l4796W77gE6uTkyZMYP2ECNv3xByqEhWHMmDGsiqQnAyfL9QvBJ19uEOAEodwsNZ8oR6DgCJw+fRotW7dGTnY2Vq5ciU6vvVYoywE9Obt5C7hiE+4/CKEAzsQkKKdNgWLQgAIP1O5wYMvmzejVqxcyMjPRsFEjrFq+HJUeUjCqwA/hN3AEyhkCnCCUswXn0+UI5BeBOXPnMmuBv78/Zkyfjk6dOhWOHLhcMIwYBfP8hRBSOmSeZ+E/zWUxQRhZEdqtmyHw8srvEO+5Li4ujqVErlq1Ck4AQ4cORa+33+ZEodCI8hvLMwKcIJTn1edz5wjcBwGbzcbSCefNmweZVIpdu3ahUaNGhcbK+sefyHm1PcQVowHnfdiBSAhXrgG+SdcAN9VdOHToEJ5r0gQyuRyTvvgCH3/0UaHHz2/kCJRXBDhBKK8rz+fNEbgPAnQCHzBoELZt3YqmTZsykkBSx4VtzsxM5DzbHDCb7t+FQABHWjJUkydBMWRwYR/zX2uEy4WBgwZhwYIFGDlyJCZOmOCWfnknHIHyhgAnCOVtxfl8OQIPQIAEkMiNQFoDnTt3xuJFi4pU+4BSGnNeeBnOCxchUKvv+1SX0QBR3TrQbt/ilnVxOByg0tNDBg1C42eewfZt26BSqdzSN++EI1DeEOAEobytOJ8vR+AuBEgdkaULjh6NGwkJ+OGHHzBgwIAiawoYxnwGy4IFECjV9407oGG45BJod+6AqEKoW9aFJKC7dOmCpxs1wqaNG1n8BG8cAY5A4RDgBKFwuPG7OAJlAgHSEpg9ezYmTpoEf19fzJ4zB+3ati3a3Ox2mOYugGH4CIgCg27rHdzdqTM1GeoF8yHr0a1oz7t598VLl9CiRQuYLRZs3bwZDRs2dEu/vBOOQHlFgBOE8rryfN4cAQD/69oV69asQf369fH7778jJCSkcJkKd6BpWb0W+l7vQRhAp/f7BCUKAKfBAHmf3lB9MeFeTYRCrExsXBxaNG+OpORkHNi/Hw0bNChEL/wWjgBH4E4EOEHg7wNHoBwicO78efTu0wdH/v4bHTp0wOxZsxg5KFJzOmFZvQ76t3tDGBwIPKAks8tihjAyHNpNf0Dg61ukR9LNer2eCTlt2bKFpTh+OmxYkfvkHXAEOAIAJwj8LeAIlDMEjv3zD15u2xbpqakYM3Ysxo8bVyhlxLthsx04hNwXXoIwNARwkArB/ZsrPQPel87mXVfE5nQ60alLF2b96NevH2ZOnw7h3SqNRXwGv50jUF4R4AShvK48n3e5RIAi/OmETZH9U6dORfdu3dxCDizLV0Lfpx8E/n4QPKh8s8sFZ042NEsWQ/pqB7fgP/WbbzB27Fi0adMGv6xaBYVC4ZZ+eSccAY4AtyDwd4AjUC4QIPGjESNH4ofp0yGTSLBt+3Y89+yzRZ+70wnbrj3Ifak9hBUjAIf9/n0KAWdmBhSfT4Ry8KAiP5cyL5YsXYp3e/VCWEQEzp89y9MZi4wq74Aj8F8EuAWBvxEcgTKOQNKNGxg0eDArZvT0009j4cKFqFa1qltmbZo7H8YPPoEwMAAQ3VWA6dYTBIAjPRWKEcOhGj3KLc89cPAgOnbsCKVKhc2bNqFWrVpu6Zd3whHgCPw/Apwg8LeBI1CGEYiJiUHnLl1w5swZdHz1VSxfsQJSN8gZuywWWH5aCsOQjyAMC3u45UCfC9kb3aCe/r1bkD577hzq1KkDL29vrF29Gq1atnRLv7wTjgBHgFsQ+DvAESgXCOzYuRPvvf8+YmNiMG78eBZ74C4fvWXlKuh6vg1RhYgHYykEHKkpUAwcANXXX7kFc1JKfLJ+fcRcu4ZFCxei6+uvu6Vf3glHgCNwLwLcgsDfCo5AGUPAYrHgz82b0ff992G3WECBfH379HHrLJ1p6dB16QzH2UsQaDT3iiGR1oHJAHm3blBNm+oWrYO0tDS80KYNSBBp9KhRGDN6tFvnxDvjCHAEuAWBvwMcgTKNAAUjTvv2W4QEBWHz5s2oUaOGR1L/XDodcjt1gePcBQiksv8nCRRzkJYMxaDBUE36HHhQVkMBV+G1Tp2wceNGfDp8OCZ9/nmRBZ0K+Hh+OUeg3CHALQjlbsn5hMsqAunp6Rg+YgR++ukn1H/ySfy0ZAlq1azp0ek6rsYgp0MHICsHApmcKSc6jQbI+/WDasI4tzyb5KAHDxmCZcuWoeNrr2HpTz9B/YDiT255IO+EI8ARYAhwgsBfBI5AGUDAarWiRatW+OvQIbRv3x5rVq+GVCotlpm5zBZk1a0HgdUJR2oiFCNGQjV6pFvcCjQBshh8M3Uq2nfogPXr1rlFt6FYgOEP4QiUcgQ4QSjlC8iHX/oQMBgMoFNxdk4OsrOyoNProdPpmGSw2WyG0WhkP9O/22020OZPef+kZWCz2yG4WeGAshHEYjH73Z69e3H58mV4eXlh+PDh8NJooFQqoVap2GlbrdFAq9XCW6tl19C/CR4ghVwYRO3/HEduu/aQD/sEyo8+LEwX99xDWFBw5dQpU9CydWss+fFHVKhQwS198044AhyBRyPACcKjMeJXlHAEaIOk6PZb350uF1xOJ25/dzqRS/7y3FxYbm7AtDnSv9E9dzeZVMo2V+rTS6uFRCKB9o5Nle4lOV/6LhAKIbz5//RvbCO32+Gw29lmf/78eVy8fBlnz57F1atXceXKFSQlJTES4HI54XQ6ADjhcgoAl+B2/QIB0YDbGzhRglvtzp/vHPvNn2nutwoksbm57pmjSq1GcEgIKlasiCqVK6NKlSqoUb06qlevjoCAAHZCJ+JB3+nrcTSSUP5m2jQM//RTPN24MXZu387dCo9jIfgzyzUCnCCU6+UvXZOnTSMzMxNx168jPj6ebbT0lZycjLT0dBgNBuTk5sKo18NkNsNkMsFqscBKJ2+bjZ3GiTTgPqTgQUjcIgFEEmjTpO8kziOVySCXyVjaoEIuZyp+CqUSNqsVN24kIT09g42ViAA9TyASQCRWQSzVQCL3gljqBYlUDfHtLxUkEjUEEhVEEjmEIgkEQgkEAhH7mfZ8oVAEgVB8034ggNNpY0SIuITTYQUY4bCxnx02E1w2E2w2A+w2PWwWPRxWA2w2PexWHewW3c3vejjsNjZ9mhNZF/z8/BDg7w//gABER0ejcuXKTFiJvtMJ3tO1DmitPvvsM3w9ZQoaNmqElcuXI6pSpdL1svLRcgTKAAKcIJSBRSxLU6ATOJ28yeROJvYrly+DigsdP3ECZ8+cwbXYWHZCd9ntEEskoNM++dppc6OfaROnE7KPjw98/fzg7e3NNj2VUsmsAbSpazQaOB0OaL2976k4SOdzs8XCyAZthDSOW2Z8Kim8Z88enDp16j+bpMtJ1gsBhCIZhCIpxFI55KpAyL3CoFCHQqEOgVTpD6nMGyKpmhEA2vhpZ8/b5O1wOezMoiBwUV9kVbijUHJ+CM1Na8Mt+wL17xIQoRAyUkFfQkYuiK844bRb4LAZYLVkw2bOgkmfAoshGSZdEiy6G7CYdYxoOB0WOB00RgdEYjGzOjRo0ADPPvMMnm7UCBVCQxme9EU4FbURqfvuhx9YGmP9p57Cxg0bEBoaWtRu+f0cAY5AIRDgBKEQoPFb3I9AdnY2duzYgT379uHkiRPMKpCZkcHcAg6nk53OIytWZGZwMovTRlW1alV4+/hAqVAwlwCd5mVEFGQyRhqKYh4nohIbG4vdu3dj3/79uHTxIm7cuAHKxSergFAiYZu/UhsJlXcEVNpKkGmCIZV5sZM/7el5wsN5W7aLuRGc7JR/x9bvfiDz3aMgLwZBQK4SYR5RYu6JvNEJQG4bM6ymTJh1STDmxMOQex2m3HiY9TfgsNmZNcXX15dZHGg9iDA0adIEDRs0YPEOBW2E+YCBAzFv7lw0a9GCZSuEh4cXtBt+PUeAI+AmBDhBcBOQvJuCIcA24Lg4HD9+HCtXrcKuXbuQlZUFlUKB4OBg5guvU7cuk9StW6cOy+WnjchTjQIByW1BCn07d+wAqRASUSFyIpEqIZb5QKHxhdqvBjS+VaHURkAm94NIooDTac8z6TttBXJfeGou7uyXuVjIMiJRQAAh7HYjrKZ0ZmkwZF+FPv0yTLoU2Cy5zGVB1gaNlxezMDRt2pQRhrDwcISGhDxUxZECN0eOHs3KNTdt1gwrli9n1gneOAIcgceHACcIjw/7cvvkCxcu4Kuvv8bWbduQnpoKu92OZ597Dj26d0fz5s0ZOSCfPlkFPN3IKvDz8uVYvXo14mJjkZOTw7IGpAovaIPrwSf4SXgF1GIuAyI1LubrpzgG583gv3uDHD095sfb/y2rQ55lRCCSsBgJm0UHY3YsctLPIif1NHTpF+Cw2Zg1h8U1BASgQ/v2rMASWRjudkd8MmwYpn3zDV5u2xYrV6wolAXi8eLCn84RKHsIcIJQ9ta0xM7o0KFDmDd/Pjb8/jv0ublo1Lgx2zTatWtXbNX4yMdNhYv279+PLVu2YPeePSzjQKrwhUIbBu+AWtAG1WHxA1KZlvnr7VYDBMw1wNsDEWCZHNLbFhWrORPG3Hjkpp2DLv0iTPobsBoyWHwFBT6SdaFV69aoU7s21q5fjy8+/xzPP/88lvz0EyIiHlLfgS8BR4AjUGwIcIJQbFCX3weR375f//7Y9OefsJhMjBjMmjmTuQ/Ij10cjSLjSVnwyy+/REJ8PLNaUACfd3AdBEW1gW+FRhBLVbCbcljgYEEyHYpj/G59BrkNbnUooABGEVzIS9m8uwnIasK+yGLiYEGU1O6XHvrfe8nSAEAkgUSmZa4Hffo5pMcfQnrCQZh1aSzQkywJtDYRkZG4fPFisb0PbsWTd8YRKKMIcIJQRhe2JEyL/Mqz5szB3LlzcS0mBi+++CKGDB6Mli1bQi4nWV7PNipatGXrVqYquHfvXiQkJECm9GUuA7+wRtD4V4dU4cf2MYctLx2xVDcKOCST/82sBcqOcDrscDopG8EMB2Uu2M1wUKqjndIg6d9M7N8oS4F+/n/mcCtakbQQ8rIzhGIZsxAIxXKIWTqmMu93YjlEQikEdA09WyBkcRkUk0FjuIUrXUfuCLvNCIsxDblpZ5CdfAq6zKuwWzOhUqrRqFEjtGjRgrmanqpfv9jUIEv1uvPBcwQ8hAAnCB4Ctjx3S6fLa9euoVuPHjh65AiCg4Iwc9YsdHrtNY/DQloJ5EaguIIxY8eyGAehUAKFVzBCq7ZDQKXWkMq9YDGkkXjA7SwDjw/MrQ/IO53TRsw2Zdq0IYDVnAOzPpllGhh08TCzr2RYTBksiPDm4T9vJLetCLcTIx8xwlvk6aYM0x1kSigRQir3hUzpD7k6BApNBSi14VCowyBTBzG9B1oXJ5EShyWPL1BKp0gGqcIHNqsOmUlHkRazA1kpp5i1QSQWIDIyCh8MGYLu3bqxNMrisja5dal4ZxyBUowAJwilePFK6tApzmDixInIysxEn7598dGHHyIyMtLjwz19+jQWLVqEP/74g6kWkrXAv2JTBFZqCYUqmJ1enTYzM5eXuiYUQyJVwelywmbOhcWYDENOHAyZV2HMTYTNnAO7JZcJIdEGS5mLIqEcYjGd8lUQipQQiRUQieQQi+i7gsUMCIWym4JMQghxt44BJTuSa4E0GhzMIuBwkS6CBQ6HCXZHnvXB4TDC6TCy75TlwLQdXIBILMsTgpJ5sXgOpTYMSp9oqLzCIFMGQiLzZm4Np93Ksiwd9DSrAbrMS8hI+BvZySdgNWfD398PT9V/igU4vtaxIwIDA0vd8vEBcwRKIwKcIJTGVSuhYyZRoZGjRrFARH9fX8yeM4d9oHuy0cmU0hOpvPHCBQtgsdrYaTa0enuERL/EhIlsxgxPDsEjfVNcAKUYupiKohOm7Hhkp55CLn1lXILNrGcWBLKOkO6CWCKHTOYHqTQAUlkAJBIfSCWaPHJA5n8B1WwgYpQXS3Dnz7cmcL+4gv/Wa8iTlwZobPRz3nemn+Cyw+G0wG43wGanTJAs2KzpsFpTYbFkw2Gzwumy5olCuZyQyFVQ+VaGl39NePvXgtK3ElOaJAsDKUaK5N6wGjOQkXgYqTE7oc+KgQB5io/vvvsuBg4YwHQxyLLAG0eAI+AZBDhB8Ayu5a5XUjjs3r07jhw5gmbPP4/58+czaV5PNnJjTPziC/z5xx9ITUuDNqAGwmq8Bu/gerQP5vnAS5O1QACIZXkCQ4bsOGQn/4PMG8dgvqkzQKd1sYSEoAIhk4dCqQiBTBYEscQrT5mReQFIAOlWEGHxpmLm1Y+gQMc8EabbhIPG43TAbs+B2ZwKs4WUGpNhMafCZjdBKJBALNOwYEZtYHV4B9eHxrca5Oqgm6qSAlw4MBlpcQeYa0QkkTBlTBLM6ty5M/r368fTIj35h8b7LrcIcIJQbpfefRO/fOUK3nzrLRw5fBjv9+uHuXPmuK/z+/SUkpKClStX4suvvkJaahrUvpUQVrML/MOfY+Z1p9V4j4SyRwdUhM4pqJDJIsMFSg3MjP8LGUlHkZt2FqTFKBapIJapoVJGQKGMhFweDImYCIE4L/jQaS0hyoz5ASEvFZK+yIpht+tgsabBbEqAwXiduRMcdj0cTiurV6H1rwX/iOeQeeMoUmP24uWXX0bLVq0w6YsvoDcab1ej9PH2Ro8ePZiOBglqFYd+Rn5my6/hCJR2BDhBKO0r+JjHf+HiRbzSoQOuXb6M6TNmoG+fPkwcx1Pt199+w8cff8yyIuTqQETV7wvfCk/DaTOyU2qpaC4XRDIVc3/oMi8jPW4fMuL3w2LMYZoLIokManVleHnVhFIZyeIGWOrl7cqMpTCG4r4LQ5aGm4LUAop/EDKXhE5/BSbDVVgsabA7zKxuRrfuPTB39mwmurRz506079ABFqsVEpkSCnUF5KRegNZHi9q162LM6NFo88ILpeJV4IPkCJRkBDhBKMmrU8LHdvrMGXR/802cP3OGlealiPP/+qzdN4GLFy8yDYMVK1ZAIFYhKLoNKlTvyNLtHBad+x7kwZ4oTZBM8DZzNjKTjiA94TByU8+xzZ+CCZXKMHhpa0GhrAipRAuni9IULR4cUcnrmqwpEokWRmMsrl9fwdIzh37wASZPnvyflMe4uDj0798fW7Zug3dQbQRVaoms5H8Zri6HGS1atkC/9/vhhdateZxCyVtmPqJSggAnCKVkoUraMJNTUtC8VStcPn8eq375BV06d/YYOdi8ZQveeustZKSnQxtUEzWajGYbKlUjLPnNxU7JUnUg9JmXEfvvMmQmHGObv1AkhFpdEVJpEPz8noNE4gWbTQcISMq55M/M3SOkmAWpVIucnH+RmLABMqkEy1eswKsdOty3xDSJXY0aPRpTp0xhLol6bb6DQhOMC4emIi1uH0QiAapWq4HpP/yAVi1bunu4vD+OQJlHgBOEMr/E7p9gekYGXn/9dezZvRuTJk/GsE8+cUup3ztHSiJL5y9cwOJFizBn7lzIlH6IqNUVQVEvsDLEFO3+X1Uf98+zqD2KpCo4HFZkp5xE8pWtyE4+yeINFMoK0GprQqWuwmIMqAgSi/AvTQGVRQXnrvsJF0q5TE3difS0g6hevQZmTJ+OVq1aPZR4Wm02Vkdj1KhRiL9+HZH1eiKybi8Yc+MQf/YXpF3fD4nIiRdfegkfD/0Qzz777H3Jhpunw7vjCJQJBDhBKBPLWHyTcDgceOvtt/HLL79g5PDh+OKLL9zycEpXNJvNoEJOixYvxpo1a5CWmsqCDUl0p+4LX0NEVgNLboknBpTbL1b4IuP6QVw7sZjpFAiEYmi8KsI/oCVUyijYbLkUlgi4boseuwXHUtkJpWsKRIiN/RFmYworHb1v374ClXq+dPkyWrZogaSkJBabEln3HYTV6gJDVgwu/jUNmYnHIZVJ8PFHH7EYBSoNzhtHgCPwcAQ4QeBvSIEQWPTjjxg8aBA7ia1ft44FjRWlUeXE7Tt24Ldff8XBgwdxNSYGRELYaVogQnit1xFWoxNcdpLtpUC9krqhupgyoFiiRFrCISSe/xW6jMsQisTQeteDj099SCXeLNAwL+CQN8JCJFLCaEpActJGmE3pGDx4MMaPHw9fX98CA5SamorPxo3DvLlzIRAJWfBiYKVmCIl+GVZLDq4cncWqTNZ/6il8NXkys07wxhHgCDwYAU4Q+NuRbwSoCiJ9uFI55kuXLrFc9MI08jWnp6dj+/btmDp1Kv7991+o1WpUqVYNeoOBZSi4IEWVRoNZ6iIJHd2Kdi/M8zx+D8kWixWwGlMQc3wBO62KxHJ4eVeDv38LyKS+ebEF5TGw4EHgk56BSImc7JNISvwDGrUK4ydMwIdDhxZ5ub799ltMmDABRgvVnrCxtMoK1dojvHZ3JJxfh6QLGyBwWTFz5ky83bMnr/dQZMR5B2UVAU4QyurKemBePcm1sGoVC0osrEIi1UkgtwT5jeOuX4dCpUKf3r3xZo8eWLFyJebPmweTFajTchLkqmA47WYPzMRdXboglKjhcpoRc3wR0uMPs6JPWp8nEBDQDGKxF1ygokWlJP3SXbA8oh9SfyRLUFLSeuTmXEZYhQpYumwpmjdr5rYR7Nu/H++8/TZir19n8TEupxNCsQp+4c/AJ7geEs6vh80Qj44dX8PcuXPgxRUZ3YY976jsIMAJQtlZS4/OJDExEVWqVkXtOnVwYN++AhfOSU5OBmkYfPbZZ8jOzka1GjVY5kPf3r3h4+OD8RMn4vvvv4NSG43aLT5nWv5U3KfEuhSEIlbhMCf5JK6eWASTLglKVQUEBLaEWhUNh8OQj5LIHl2ykte5AOw0b7VkIClxA0zGZLRr1w4///yzR5QQc3U6Jp60adMmiCUSCEUyOKjMt1iGgIhnkZN6GhZDMrq+3hWzZ80qsrus5AHOR8QRKBoCnCAUDb9yczcp2FHJ5CtXrqBSAQsvbdiwAR999BGrmSBTqTDzhx/Qvl07RgyoJPPb7/TCuvVrofarhlrNJsBlowyFkpnnR+4RKkJEgYgXD3+HjPi/QXUTAoJaw9enPpwuCzut8vZfBKjok0Tsjaysv5GSvAMiEZglaUD//lATpUdkAAAgAElEQVSpVB6Di7JhqJLoZ2PHwiWQwMe3ISzmFORknYdYSroUeRS07csvM+uYJ0W+PDZJ3jFHwEMIcILgIWDLUrfnzp9nsQcUJf7npk35nhqpLE6eNImdEEMrVEDPnj0xbNgwkDQuNSIHnw4fjtlzZsMrsC5qNB3NyAEV9CmpTSRTIyftDK78PRNmQxpU6kgEBbWBXB4Iu8NQUnnNY4TTxawGTpcLqclbkJV1EtWqVsPXU6agQ/v2HtPOuHPClCGzbv16jBgxArGx1xAQ2AIKRTjS0/bBaIplxaHEYim+mTqFFYHijSPAEchDgBME/iY8EgHSIRgwYAAWLFjA4gXy0yhOgQLAHC4XWjRvjlUrV7LI9FtKi3QSH/LBUOb/VflWQd0238JmSM9P14/tGrlXBVw+8gMSz//OyiCHhLZlAkc2exYnBvddFReLwzCZEhEbuxhOux3PPfcc26yDHkPJZop5adasGeJi4yBTeKFK1U+h111EYuJ6VqZaKpVjxozp6N2rF9dKeGx/ZfzBJQkBThBK0mqU0LG80r49q5h49epVREVFPXSUlIc+eswYppPg7++Pzz//HN27dbsnZoFIB1kThPJQPNFiYt4GWyItBy4IxHLYrXpcPTYbGYnHoFSGIDi0HeSyIDgcFCfB290IkO4DGe8zMw4gI/0oREInPv/iCyaqdT857kvpcfh65yLsPrcXH784EO806ACVVF5gYNMMWZiy+0c8HfEE/lenzT336/V6lgr53bffsrLgFcJehUIRgazMv5GRcRgupxFNmzZlLrFX2rYt8PP5DRyBsoQAJwhlaTU9MBfy4QYEBaFevXo4dODAQ5+g0+nQrHlz/HvyJJq3bMl0ErT30UlYs3Ytur35JsRiNRq0X5DnVnCVzEh/oUTBlBtPbP0QZn0KvLxrISL8ddjseqph7AHES3mXFIgIcilYER+/EkZ9IqpXr46t27YhIjz8nslZ7DasPPEnhq6dCINYCqVcBV1GPF6r9zKWdv8SKmn+BI0cLieIZLy+YCDOZidCYLXi/aZvYkr7D6GW3puO+8vq1Xi3Vy+YTGYEhrRAUNBLsNtycSP5D+RknoZQLECXLv9jRCI4KKiULwofPkegcAhwglA43MrNXSSMRBUaSdmwc6dOD5z3zl278M477yAtPR0jhg9n+exarfae66nITtPmzZCUkIx6baZCrg6B014SCxK5IFH4Ij3hIC4fngGH3YzA4Jbw8W4Al8tWrmWRH/zyk7aBAllZx5CethcioQP9+vVjlqLQ0ND/3EYupu2XD+PzbXPwT8I5CGVKFgtAhiQBBLCZDYjS+ODLjiPRoebD0x/JavD51llYfGwjnBRPIJGz9bGb9ajhF47J7T/Bi9Wfu0di68iRI6zg04kTx6HRVkdo6KtMm8FsTkJq6i4Y9FdRKSoKgwYOYn8DngymLDcfKHyipQoBThBK1XIV72ApuOultm1x9MgRpNy4Ael9yjiT6iGRg06dOrHf04mLYg/u1zIzM1HziSeQnp6Fas9+BN/gBkw3oMQ1F1g55oyEg7hwcBpLZ6wQ1hEaTU3Y7aWjcmRxY5oXiOhAUuJ66HOvICQ0lNVSoPfi7uZwOTDo16+xcPdiSHxCIBaJ75uzInC5YMhKxoS2QzC0xTv3WAIsdisOx/2LN34egQx9BuQa33tSS51OB1y6DAx/eTAGPtsVfipvRkBuNXI5dOvWDVu2bIFQpEZ4xBuQSv1YYGVW9gmkp+6Cw2lE8+YtMGfWLOZiE1EKBm8cgXKAACcI5WCRCzvFlNRUNGjYEBFhYUwb/34fjOQuIMuBf2Ag1q9Zg/r16z8wMr1f//5YMH8+wmu/gYgnesBuyirs0Dx6n1QVwBT3Yo4vhkSiQcXItyCWaFjp4RKry+BRRB5iMxAIWSBiRuYhpKUegN2ai7d69sTEiRMRWbHifW8k6wFt7APXf45zSZch1fjD9ZC0VqfZgBqBkVjc9QvUCa3K+swy69F31RhsO78fTpkKQlGe9eHuRlTABQGMadfRvmZTrHpvHuRi6X8uIzfa0mXLWHyE2eJEYHAL+Po8DYfTzDJq0tL2ITv7OPz9/dC373sYN3ZsgXVAHtPy8MdyBIqEACcIRYKvbN98/MQJpm73xhtvYN68ef/Z+Mm6QMJH9LuQChXw89KleL5p0wduCPQB3Lt3byi0Eaj3wjewW/QlUj5ZKFUh6eIGXDvxE6QyX0RUfAMSiRZOp5WTgztXl2INBFLY7XqkpGxHbs55VIyoyMovv9e3b77+MMwOOz5aPwmL//kdEqkSApHkvkSBTvxWmwl+AhEW9fwGabp0DPttCjKsRqiUWlD8wQOb3Qqhw443n2qHcS8NRqAqL8X2fu3PzZtZnZGYazHw9WuA4KCX4XTZIBIrWLZDcvJ22O3ZeOaZZ/D9t98+lAznCwB+EUeghCPACUIJX6DHOTxKR6OyznPmzLnnQ//I0aNo3bo1vH19sWXTJtSsWfOBQz11+jRav9AaeqMADdovZBkBKHHywy5IFX5IuPgbsxxIpVpUiupLicBcKvmulaUsBAowzcj4C2mpe2G3mdC5SxfMmjkTgYGBBdI2sDnsOBx/Bm/+OAQ37HYoZHKmmXC/RpYHIpZigQiQKh76HBqjIScVT4ZUw4Iek1AnqApEwke7Bq5fv47uPXqwwmFSmRcqVnwbEokXI4gCgRRpaTuQkfE3fHz98cHgwUyAiTeOQFlFgBOEsrqybpjXpyNGYOqUKfjrr7/QuFGj2z2eOHECbV58kZl1ly5Zghfb3JtOdutio8mEDq++il07dqB6k2HwCXkarhInoeyCSKZBSsx2XP57FmSKAISHd4VYrCqx2RVuWN4Cd0GbrlAog8WSxoL4KNagcuXKGDlqFJM0lkr/a7ovyAOuZiTgw/WTsfPKEQgValbmuzCNrA1OiwFasQx9n++Boc91h7dCU+Cuho8YgSlffw2JVIuQ0BehVleFw2mBWKSEXn8FKcnbYbNnoG3bdvhy8mTUeghBLvDD+Q0cgRKCACcIJWQhSuIwWrVujQMHDiA9LQ2am8VsKKir8TPPICY2Fps3bUKz559/6ND7DxzI4g6CotugSoNBsJoyS9xUxTIN9FmX8e+2ERCK5YiOHsDcHy5XyVV0LFYQBeTFJ7VBDVJStyMj9RCcTjsL7iPX0613o6hjIlfBwr/Xo9/ST6AOCAeYlkL+m1gogi4zCbUjnsC6t79FlG9Y/m++60pyoe0/cICpPVL6rm9gY1QIbg+LLZNhIRFrcD1hNXKyTkHjpcWPixc/NMun0APhN3IEHiMCnCA8RvBL+qMDAgOZxPLWzZvZUM0WCzp37owdO3YwAaSPP/rooRHdm7dsQbfu3eEU+qLOC9PgtJEUcUmqseCCQCSFMTcep3eNgVAgRnhEd0hlfnA5bSV9eYplfAII8zAyXENa6m4YDUl46qmnMHbsWLzyyiusUqK72+Hrp/Dxxm9xPPkyk0DOT6O0xkoyL/Rr9hYGPvt6fm7J1zUUh/PBkCGMKGu0VRES8gpEYiWcTguEQjn0ueeRkkq1JWzo368/Ro4YwQTCeOMIlAUEOEEoC6t4nzmQv9bhdMLpcIBSEelExL5c5FN3wmw2w2A0giwC9CGvy81lv6drk27cwLF//sH333+PatWq4emnn4bdZkNCQgJ2794NKty0fu1aVtiGvu6njBcTE4NqNWvCaXfiyZe+g1TuU8LIAVmxhZCoAnB0wzsw6ZNRsWJ3KJUV4WDZCuW8sSBEWlshEhPXIif7POQyOfoPGIBJX3wBhSJ/AkYFRdHhdCAmKxE9V4zBmdQrgFiWry5cNhN29FuIBqE1QJYEdzb6W6FS57+uX88yIiIi34FCHgS7wwSRUAaH04rrcUtgtWUhOioaW7dsKXBBM3eOl/fFEXAXApwguAvJx9gPkYEbN24gNi4OtDFTaeb4hAT2nVK4cnNyoDcYGCkwGo2sSJLNZmNkgL4TYSBywBoRCPrmdLKNn7QNbp0S6RqT0cj+jUSQqPzzU/Xrs2juBg0a4IlatVgXFy5cwP+6voHz5y/m6R2EPA0HBSaWoEYnTpFUidM7RyM34yKCQ9vkpbYx6eTC+b9L0PQKPxSXi5VFpncqM+svZGX8A5tVhw4dOmDkyJFo3Lhx4ft+xJ05FgOG//Y1lp/4Ey6JDEKx7KHpj3d3R8JIb9d9GdNfHwepm0mC1WrFz8uX46MPP4TeYEFAYBP4+j7DNBIEAjFzO6SnH0BGxn6ER1TCxPHj8WaPHrymg8feFt5xcSDACUJxoOymZ9jtduTm5rKv6/Hx+Pvvv3Hsn2M4/s9xJCQmgn6fp0RHp+P/bnL0gX+LANB1MqkUSqWSqcPR98pVq7JAq0qVKiE8PByBAQHMVOrl5XW7BC7dFxsbiwMHDzJLAgkkEeGgzVYqlaFr19fh4+2D6TNnAi4hwmt2QljNN2A3Z5e4lEaxwgfxZ1Yg9t/l8PGrh7AKr8NqK3nxEW56dfLVDZWtJquB0RiLG0m/w2bNRYUKFfDFpEno+dZb+eqjMBdZHTZsv3gIPVeNgt5shFTtWygZa3rnrfosBGsDsfqtaaweg7vbob/+Qo/uPRAXFwutT02EhnaB02WG02FnmS85uWdxI3EThCI7I1Qff/ih22I03D0X3h9H4FEIcILwKIQe8+/p1E6SsLQZkx80PiEeqSmpyM7Kgt3hgFShhconCkKxEnBaYbfkwGLKgMWUBZfj/60CYokEdevWRZ26dVG/Xj32s6+fH7y1WkYCiCjcz1Vwv+mTZWLyl19i8eJFsFrtCI5+AWZjGrKS/mFFl+SaEETV7wPvkKfgtJQ85UE6meqzYnBmzziIhGJERfWHS+AqvxUZBcirumiMR2rqDhj1CXA6bay4Uu9330VISIjH/gquZydjwLovcODyYdgpdVH08JgGS04aRCotZGIp7le9gwkjOWyQ220Y0qo3Pm3eCzKRxK3jp4JkQ4cOxZq1ayCT+aNCWCcoFCGwO0jbQwqnw4SEhPUwmxPwyivtsXb16iJleLh18LwzjkABEOAEoQBgFcel5BKgegWnzpzB1q1bsHPnLtxISoQTTkgkPpCpAqDwCoXaJwoSuS+sxlQYdUkw5lyHKSee1Qygk39wcDCiKlViSoiNnn4aderUYTnqRWnp6elYv349xo0fj7S0TCi04ahU9y34hjaC02GBISeWnaQUXuEs59xuJfNrCTTXC0U4/udA2G1GREW9x9IZaUMsb43iC8g8Tm6VjIyDyMw8CpVChRdeeIERwOrVqnkMEpPNgl9ObsHYP75DstUApULzQP0DNgirGRqxFENb9sH2MztxIOEsJHL1A/UXmbhSTgra122Dr9t9jCi/wmc03A0CWc2osun777+Pw0cOM6tLcOiL0Kirs7RYgUDEvqiMtJ7qOVSqiOXLlqNRo6c9hifvmCPgCQQ4QfAEqoXok0z3Py1ZApIuTkm5gazMbGa6V2rD4VuhEYIqPg+5JgyGrBikxO1G9o0TsJl1rJYBfShVq1GDlad96cUXUaNGDajVamYVcFeU+datW/HxJ5/g3LlzLEXdL/wZ1Gn5NUy58UyOlpXYuen3pfiFknocl6oCcfWf2Ug4twFBIc3h59cEDgfVgyiBRKYQ71G+bhG4IBLmVThMTd2GrMxTcNhNqPfkk1i4YAGeeOKJ226lfPVXwIvic1LwwqxeuJaTDLnCC84HkEi2IgIhTFnJeKFGE0zvMhaVfcOgsxjw5a4FmLZtPqTeD660SPfbbBYEulyY9/a3eKnqMwUc6X8vp3THBQsXMu0P+ns1GA1Mr8FLWxdeXrVY+W/6m2WNxKREGmRkHELKja3wCwjA/Hnz8FrHjkUaA7+ZI1CcCHCCUJxo3/EsCg48f/489u7di02b/8T+/QdgMVsgVfpDpY2Eb0RjePvXhFiqYdaB1Lj9yEo6CpMuGUqVClWrVEH1GjXQqlUrJv1K/y+RuNeUSjEHx44dw7fffYe1a9bkfegxMRwXnA4n/Co8i4i6b0Gu8IPDanhMSOb/sQKhGIacGJzeNRZSuT8qRb7LItDvLN6T/95K45UCVnjK4bAgN+c0MjP+gtWai6fqP8WqLvbq1atYChHprUYsOboRc/Ytw5WcZEgUGkbP7k6AdZj1CFN645M2/dGrYQdI7tBFcLqc2HB2D0b/9jWuGbMhkanuL9MsEMJqMcCmy8D8ntPwboP2BVpvshQcPXYMG3//Hdu2b0d6ehqLNZArghgpUCorsTodLqf1HisUhfuKRSro9Zdx48YfoFpnkyd/iUEDSGejHBHS0vinwsecx3Ndt6PXOCLFhcBfhw8z9TmKLTCbjCwC2jfsKQRHt4V/xSYsJTDt+j4knluH9Ot/sVMJfUVERqLPu++ib9++8PPzY9YBT33QUOwDFVda8tNPoAjuwErPweWwIz3+CCMJcrkcBr2eRbxHPdkbIdU6wKpPyUtlLIEffvSaSxRaHN88BGZdEqKiB0Aklt+0fhTXyj+m5whcrG4ClTKmokopybvgtFNtCRfmL1iAd94mOWH3ksv8zJRklof9MQ2zts2FzD/8tgVKBAFy0+PweqPOmNN5DHwUXg/sLsOYg64/D8Oes3uhIDfCHXUZXAIhjBmJCAuMxC9vTUXDsJr5ToGkINwvv/oKe/fsYcG/REiUqhD4+DaC1qsm00CgOhS3LQYPmTC5cewOI65dnQ2hWIS33+qJ2bNmPRbM87Mu/BqOwC0EOEEopneBTJLrf/0Va9asYScSgVAKL/+a8I9oDJ/gBlB4VYBZn4zUmB1ITzgMXfpFlk74dMOGaNu2LZ5//nkmUEO6A55sGRkZWLJ0KWbOmIHY2Dh4BdZEWM3O8A5+ksoSIDlmG+JOLYcQFkRUrMj0EeJiY6EJqImIJ16HNqA2U9lz2UtW5UOxVI3U+H249Nd0+PjWRXBw23LgWhBAJFLAbjdApz+HrMzjMJtSEB1dGb3eeQfvejgAMT/vKakn7rv6DyZtn4v9V4+CNvXaAZEY9fIgdK7dOj9dsGJNcw6sxNitM2GjNE2pEmZDFqr7hWPg8z3R7cmX4CVXP7SvnJwc7Nu/n5V93rVrFy5dusgyb+SKMGg00VCpyELnw2ILSCSpYC40FysfTfUcEhPWw2JNxKsdXsUPP/yAUA8GgOYLPH4RR+Bh5JZbEDz3ftApnDbcad99hx9++J65EEQSBQIimyKsehdofKPhcNhgMaYh7tQyJF/dCoFLwOIH2lPe+YgRqHVTW8Bzo8zrmVweVICJcreJGIgkckTVfxdh1TvBbEgDaNN3OSGWesFsTMaZXWNgNmagSZMmqFXrCSxbthRGgwHeIXVQteFgyDShcJiyC5TH7sk5knvh6B992Id75eghzLddslQd3Th7qpkgkDLrUmb2UaSn7ofDZmIxKYMHD8a4ceM8TjQLM5tpe5chNTcZX7cfVpjbkaTLwCsze+Jy0iWM7PgpRrd6eFVJk8mE5ORkTJ8+HT8tXYrszExGACQyBbTauvD2JkIexIgkpTLCVXS3AMlVx8evhF5/CU891ZDJlZM1kDeOQElEgFsQPLQqZDGY+s00/LFpIxLi46H0roSQ6BfhG9YIEomGnXIMmZcRf24dsljAYQ7bbPu+9x4rmxwZGemhkd3bLaVPfj1lCv7ctAkiiQqhVdshpGpbiMVKtrHc3ciPTf7VuDMrWWnkypWroHv37rCYzZg1axaMZht8gusipGp7aANrM3LhsBofm+tBIJYj8cIaXD+9mkWb+zBBJApMLEvNxTISqDSxxZyG7OzjyM29CKslk6n7UcQ9yWRHRUWVpUnfM5dUfSbS9JmoFVz5gfMk98FvGzZg/759OH/hAswWE1NGVGkqw0tTHVKpH4hQUrCt2+tx3CRvaWl7WeZI7dp1WWBowwYNyvS68MmVTgQ4QXDzuqWkpmLxjz9i7GefAU5ApgpCeM3OCKjUKq9ssNPGcu7j/l2GxAsbmWQtlUombftXX33VzaN5cHdk3aB87i+//JKVc6ZYAm1gDUQ3GAilVwVYjOkPDeaigDKZKpDFSlw9Ng8WQxqGDRvG9PlJWOfI338jV6eDd1AtVKjRGT7B9eCy2/LiKVjWQ/E1scIbxza+B4fFhOjK/eB0Wd1yGiy+GTzsSZQ9IoQQUlhtGawUcU7OKQhcToRHRKB/v34sAJG0LsprI2Gx1NRUUPnyxYsX49LFixAKJRBLlFBrIqHxqgOVshJzKTgcBqYi6dEmACRib6Sl70Vqyi4mTkb1TqKjoz0WU+TR+fDOyywCnCC4cWnnzJ2L72dMx5WLlyBTBiKy3tvwDW0IEDEQ5uVGx59bjeQr29gG/HSjRpgwYQKee/bZYlVbI60F2sSXLV3K5Ji1QbUQWe8dqH2i4bJbbqct5gcaEh2imIMrx2YjLXY/qlSpgomff85SLX/4/nusWrUKZosNCnUw/COeRWBUa6i8wmCzGoul7LNY5oWkyxsR889CBIa0ZHLKZULzgMSNRGrm19bpLiIr6yjMplSmg/HMs8/i008/xbPPPFNk7Yv8vAMl9RoqtETvH6XoXr9+HdnZWZDKtKx0M0tLlFOKpID9V9yklTATiWQswyEx8Tf4+HjzNMiS+iKV43FxguCGxT/8999MPGjnju0Qy/wQUuUlhFXrmFfTwG6GUCJHduoZXDu+AKbcRFStWhUffPABO9kVZyP1xd179+LTYcNw9WoMC4wMq9ERIZVfht1qgNNmLrQbQCzX4sbVzYg//Qvslmz0798fH3/8McjPO2v2bGzfto3ViXC4HPALexZBFZuxwEYqdkMf0E6HrVDyuo/CzyUQ4Pif/Zk1J6ryAPaM/ESeP6rfx/N7AYQ3U/0ogp5kfXOzT8FsSod/QACeadyYZbi80q4dhCUwk8TTmOVkZyPm2jUmA7569WomRS4UiZlKpEIVAi9NTahUlVg2B4lDkX7I425isRp63UUkJvwGuUqCebPn4n//68IzHB73wvDnMwQ4QSjCi0Cb32fjx2PRokUswIkkh6Mb9mcVFJ12M6Ryb1jMWbhw6Gvo0i7B6bAyk/57770HX1/fIjy54LcePHQIQwYPxunTp5liXcXaPRFavSMbp8tBKW9Fb3k59mZcOPwtspNOspoO3377LTp16oTs7GxQeue0b77B7j17mDmXMgu0AdURFNUa3kFPQiLXwsokoilKvOgBYSxI78YxXDj0HQKDm8E/oAUc9pJVNCo/qNM8RCI184frdOeQlXUEJmMaw9o/IBBDBg3Cm2++yeomSJlORflqFEewcOFCVm2R1D5J0EgslUGjqc6CDZWKCBYzQ/jlkUMPuxAKCH9ehoMZ12IWQSS2YfKkyRj6wQcF7IVfzhFwPwKcIBQCU/JRHj58GKPGjMG+vXtZLYTIum/DO6gu7OYc5s+n/e3G1S2IP7sGcJhYfMHoMWNQr27dQjyxcLdQued/jh3DD9OnY8Xy5ZDIvOAX1hjhtV6HXB3ExuruRlr6QokKyZd+R/z531hswtvvvMMyMqh0NLWTJ0/i940bsW3rVpw6dYp9oMvVAfAKqMViFciyIJF6QUTV/JwORmAKfup3sUyKf3cMQ07yGURXfo/lrpeWRj5yyrQgCWuLJRU63QXodVdgsWTC29sHzz33HLp07szeKx8fn9IyLbeMk1IS6b3Zf+AA/vzzTxbvYndQwTAfKJQh0GiqQaEIh0SiZS4Y+irZzQWBUAa7NRPxCetgt2dh7NjPMHzYMKY3whtH4HEhwAlCIZCnWIOPh30Cs8GIsOodmdXAYkhnsQYSdQAMmVdwZvdYWIzZzLe4bt06pmMgErm3Tv2jht6nb18mC0spjNqgGqj27KeQq4JhM2Y86tYi/56yNOikdnb3WGSnnGMn27nz5rH8+1uNBGjIsjB//nwsWLCAydeSyBJZF2RqX/iHNYZv6HPQBNSAVKaB1ZILp4UUG/NxAmRR6FYc29gXMmUQIsLeLAUbhYDVhaBYFaMxHtk5x5kbwWk1s8C5gKAgfDR0KCsURMJGxf0+FfmlKGIHFEdA7iqKnUlLS2PFykRiEbMUeHvXh1pdmRFJ0n3I1ztSxPG4+3bKQiFrwtUrs+FwZeOjoR/j66++cvdjeH8cgXwjwAlCvqEi3fpUDBs+HMt//hlydRiinuoN78A6cFh0EEqUsNtNiD+7CikxuyFwWVjtgoEDBiAszH2FYh413Bs3brAsinlz5yIhITFP6KhGJ/gEP8lcHHnuhKKb7x81DvqAplQxoViO9PgDiP13GezmTLzQpg3GjhnD5KHvbBaLhZ0K/z5yBIcOHsSxf/7B5UuXWIS+TOkHhaYC1D6VoPGvBoUmnLlvRBJlnnCNw8LmdqeugUiqQtyZpUg4+xvCK3aFShVV4gjCrQ2BTN92uw5mczL0+iswmW7AYkljq1S7dm20bt2a1dggqwFlvZSXRpalgwcPYs/evdizZw97P8xmI2SyACiU4dBoqkAuD4VIpAIFmZR8S8GjV47qmVA8TmLiOlYNckD/gfhm6tRy6Tp6NFr8Ck8jwAlCPhH+99QpNG3eHEadjkX7P9H6K7jsVrYxSWRa6LOu4sLBr2HSp7BiNxQ9XatmzXz2XvTLzGYz/ty8Gf3efx9p6eksHz66QV+EVX+NjQkUBPg4mssJEVkTRFJcODQFGdcPs4jxMWPHYvjw4VCr6MP9/u3kv/9i7dq12LhxI67FxIBIBFlD6DQtU/tA41edqVFq/apB5hUBqVxLVSLYidvpsuPo729DLFQhuvIQJov7eE+VeaSMSBMFZtJJl0iA3nAJev1FGA2JeWmxMhm8vb3Rvn17FsRav379x7Fqj+WZlHpLcT3XYmMxb948rFixApkZGYwEiiRi5jrw0taDWlWJyZPbHTrPpyQ+FiQEEImViLk6FzZbOt55513MnjmTk4THshbl+6GcICmP8WMAACAASURBVORj/VesXMlqJ1yPi0VU/d4IrdoBTqsBAhEFF9kRd3oZS13UajVs0+v97rus5HJxNPpQXbtuHVODO3jgAGRKX1So/ioL/BOJ5PcVOiqOcd39DFYCVyyDLvMirh1fDH3mFXY6pkyHN95446EffuSKiI+PzyuDffo0i2E4fvw4Ll26BJPRmBepLtMwokaWBYUmBGK5F+LPrIbWpw5CQ15lAWoCgYTlmefVtqCANdJjoOC1fLgs8gkaK/wkELI8e5oz9U0BaDa7DlZLBiyWRBiNibBZdcxq4LBbERAYyKwDZCl48sknWZnl4g5izef0PHIZWea279iBTX9swqlT/+LS5cuw220sDVGprgQvdVVIZYE3MzgEN9NU3bdmHplUETsly5kAYiQkroXRcBVvvdkTPy5eXMRe+e0cgYIhwAnCQ/CiIkWLfvyRuQrsdiFqNPkU3oH1YDNlQST3gj7rCs7v/xIOSzYrt0yFjZ4qphMfnaZpwxwyZAjL86aMAP/wRois1xtSuResxqwSKLpCbgcpRFIFrp9eiaRLm2Cz5DJZ6WnTpiE6KgpCoTDfbzD5oY8ePQrK0CBrw5VLl1jAI+k8GE0mVmSHfNSUGiiR+LKgNdLTl0i9IRHTz16sVgEFLwogvJ3imRcQSV83T/15NOIu14zrjntuuWycLLOATrZEBsyWdFjNKbBYU2Cz5sLpcLFKnN5aLQKDgphyJglLkXKmUplXfrk8NLISkJXrxPHjWL5iBX779VfYaK2EUla9VKOpDI2mJgs0JEJXLOJFJRR4Cni+HrcUZnMSOnf+HxbOn1+smiklFBY+rGJCgBOEBwBNH2KDP/gAy39eBoHEG7WafQaZIoBtEmQ5uHJ0BtLi9kMkcOGrr75E7969i02t7vSZMxg/bhy2b98OvcGAwMhmiHiiG2Ryf+aPLwn53Q99f+mELZLCasnB9VPLkBq3D74+vuja9XWmKBkcHFzg158sKXq9HlnZ2aB8eDqVXrhwARcuXsS58+dZQan4hATYLBa27wvJokFfQqqImfdFlgiRSMokpok0kAWGgsbyLA95xIVqOdyyCtDPlE9vsxvhJJVIp52dbl0uG5wu+n8XVGo1U8ok4tioUSPmfgoMDGQWpvJECgi7M2fPYv369dhGmhhXryIlJYVZW5TKMKg0VeGlqQqqVUCNMHa7zHGB36rHfwO9d6TbkJCwmglidenyP/yycuXjHxgfQblAgBOE+yxzZmYmho8YgcU/LobGrwZqPj+WnUJpQ9FnXsLlIzNhzIlnZuHpM2bgyXr1PP6y0AZ4+fJlFu1P9Q6sdhfUvlGIrPMWfEOegsWUyWoeFE8AonumSwFZJLCUEX8IcadXwJAVi/DwMKbE2L5dO7ea2W8Vzoq7fp2pR167do2RCPr/tJQUkBwvkUKyPNB3q8UCq80Gh50CCMkdkWfSFkskzMpBWQSUmUExA0qFgm32XlotQitUYJYQks2tVrUqU5QsrzLHRAAI5507d+L3338HKRs6HHYmXCST+zJFQ5U6CnJpALPPENl6vHEi7nmv3d4LK9ctQ/z15TCZE9Ghw6v4cdEiaLVatz+Kd8gRuBMBThDueh/IrdD1jTewYcNv8K3QCDWajGAKg2KpCldPLEDy5W0QwI5JkycznXuNJu/E48lGp+IJ48dj2bJlIPKi9q2EqPrvQRtUBw5zbsm3GDwCHJbtIFEg5dpOxJ5cAodVxzbWyZMno0OHDp6EFkQciAQQGSAiQF8UCOlwOEA6ElSwx2ikan55BIHIgFAkgkhIJzsR+yKycOdXQdwkHp3cY+ic/n7IQvDzihXYv3cvS2M1mowQS6RQ3ZQ4Vikjb5c/zosBIXcObw9FQCCAROyFuLilMBqvoXv3Hlj6008cNI6ARxHgBOEOeOlEOWjwYKxbtxZ+4U1QtdEHgFAMU+51xBybh+yUM2jYsCG+/OortGrZ0qMLQ51TjMHqNWswY/oMJCQkQO0bjZCqryAg4nkI4ILdaiyBcQaFg4W2X1JSpBoViefXIfX6ATitOrRt25bJUjdt2pRHcRcOWo/eReSJXDgUNLp3zx7s3bcPiQkJEImlkEr9oVSFQKWqCrk8BCQrDBcRL0q1LdtBhh4BneJfBRIkJqxlJOGtN9/CjOnTWXl43jgCnkCAE4Q7UO3UuTN+/W09giJboPrzn7FNOOHcasT8s5ilM9JG9c0330AsFntiLW73SadYciN8Nm4cM31LZGoWfBhatS1sxiy4nI8pZdGjs77VuQsiuRYOqx6Xjk5HRtxhdkonoan5CxagcnR0sYyCP+ThCFy8eBELFi7EqpUrWSwBWVwokFOhDICXV214eT0BmSyQxWw4nOb/aFRwbIuAAFWCFGlxLW4RTMZ49O37HubOnl2EDvmtHIEHI8AJAsDM9u/374/169bCP7wJqjcZCbP+BmKOL0T69UOoWasWJk/+Eh3at/PoiZ0iuykTYsmSJThz5gyU2jAER7dGQGQrpiRot5S+OgKF++PLy3agIle6jItIvPAbMhOPQaWUoV27dhg4aBCrgMlb8SBAbgMiBEePHcOe3btvp5jaHTZmJZArQ5g2AWUdUJAhpXiSaFGJD5YtHvjc/hTK7IBAdNuSMHDAICamRG4u3jgC7kSg3BMEOvkM+fBDzJ09C74VGqPBK/OReHE9zu6dwCritWrdGmtWr/ZorAEFxf3666/48KOPWOAcWQwq1HgNETX+x6ofOi26UhV86M4XlPqSqYOQnfIvrv4zD/rMayxbgISEpk6dyoIBPW3Rcfd8Snp/9DdBwltJSUnMxbV02TJcunCBkWMK1BVLldBoqkLj9QQrhESZHzabnmcdFPPCisSq22JKY0aPxZjRo/nfQjGvQVl/XLkmCGTK/3T4cEyfMR1egXVRq+loXPlnHtKu7YVGLWdFjrq+/jqLVPdEow/ilatWYfoPP+DEiRMQSTWoUK0jAiKbQyLVwGEn0ywP4CLshVS4CWBZJAlkUUg4yhQHKTZh4MBBePHFNp5YonLTJwVrUqVPkjSmIkjnz51jGQgmswkymRYyeRjU6kgolRHMSkBpoRRHQEJhPJ7g8bwmLPVWIER83EqYrQn4bMx4fDZ2zOMZDH9qmUSgXBMEUkjs3ac35NpqqN1iIk5u+wT6jMusTsCPP/2EqlWqeGTR6cOYag2MHDkSu3buhESmQUBkM1Ss3Z2RBIcp+7Zoj0cGUGo7JdeDhKVG5qT8y1IjdRmXmVpk0+efx+cTJ6JOnTrlrrphYZaTggvJtXb16lVs2bIFG37fiPPnzjK9BxLnEUsVUKuiWOaBkrkO1CwNsSzUOygMXiX1HlovygKhUtFOpx4LFy1Cj27duCWhpC5YKRtXuSUIv/3+O3r16gW7wJtVDUy69CecdgPGjRuHwYMGeSzHmCoWUsGn7Vu3IjdXh6Do1qhYuxtTkHOR2I7LUcpeocczXBKrIjlasz4Z8RfWIe3aHkgkUiZT/HrXrujbpw8TJOLt/xEw6PU4cPAgtm3fjgMHDjA9iNSUFNjsNsjkWigUkVCro5iVQCRU5uUZCMiIxa0EJfk9ojRhsjTGXvsRLpcOixYtRo/u3UrykPnYSgkC5ZIgUMDVy6+8wlIHFdow6DKuoXJUNL777jsmfeuJlpqWxqpAfvX110hLTYU28AlE1OkB78DasJHFoCBpX+QLZlr/wjwJYFKdY9LA9KMDLqfjdtQ4baJkhiTfcd7nPf1M0sD0ddNETNeX0kYYiBXe0GdfQ/LF35F54yTMhlQEBgSge/fu6NatG2rVqgXVQ4pCldKpP3TYpOVAlT0TEhNx9MiRPNfBwYPISEuDUCRhZaXJcqVWRUOhjIRcFgixSH0z68BSFiEpw3NysfRHmy0LcbHLoFRJsXHDBpb5wxtHoCgIlDuCQMFX9erXR0xMDFPHs9us6NjxNcyfNw8BASSl7N5GpzAKQBz64YdIjI+HROGHyg37wze0AewWA8sLz28TyTSsxLHdnANDbhz0mVdhyo2FITceVmMm7FYTE/b5T9zCTTJAREEiU0Kq8IVCHQK5VxjU2kgovMIhVQYy8R+7WQ+nndTsSl9jRIhJIwtw7dQyJF3YwMiSSqlGSHAwy3zo06fPQ6tHlr5Z/3fElG1Arqs/N23Cn1u2sPdNp9fDbDJBIBJCoQiGUlUFGk00ZNKgvFLZTJOA+CQRTK5NUJrfAZIFdziMiLk6D74B3tiy6c9iUXktzZjxsT8cgXJFECgosd+AAVi6dCnbSL00GowZMwaDBg1ye4oQkY9jx46xSPsNGzYAIiWCo9ugQrUOEEnUTC3w4bLILlbzgWoW2G0mlnaZnXISuvQLMOTEwWrMYOp+CqEQvkIhvAVCaERCKAVCSEnl72b9ILvTBavLBZPLCZ3DiRyXE9lUt+AmkaCMCbk6CAqvivDyjYbavzrkqiBWLpq6yAuULD0bBwUzmo0pOPHnEHj5PAGhQAqd7hLsVh38AwJYmmSH9u1Z1cSKFSuW2s8H0scgmWiqaUAiRfSuUUnypMREZlkSSzSsKJVCEQSFoiKrjEj/JgClIFI9CXIb8Fa2EHCxug063XkkJvyKatWrY92aNUyVlDeOQGEQKFcEYcvWrej42muwmEwIDw/H5i1bULNGDbdrG9gdDowZPQbTvv0/9s4Dyooq+/q/Ci+/1zlDN6GRHAQTghElmXPOaUTHMOo34xjGrH9HZ8xiRB0wCwYMKAgCiooIkhTJoXNOr1+q8K1bjY6OhO6mu+lQdy3WuKarbti36t1T5+yzz7/QYjGSuu3PgINvRFI9jTYMRGqfKImcv34mpRu+QIvUWl95sqrQx+lmvNvDYU43I5xOuiuqFY+3AgfCY2CCtP1MN7cXRxRBCHHOC4Jkqa6zWouxJBbhy0iYRdEINdEoGMJVKVkZA0nd9yOtxxiSux8IsoNYsGy7Z+KXyoXNedxa/56GokomSz65GpcjkZ49r7C+qiqrllJZuZhwfSmyOEBVlXHjx3PtNdcwZswYS4ypvTfBGRDP8IcffcSC+fOpramxBIrEnoqkAo9bqBb2wefLtXgEDXoEYXTdVi5s73vbkvNTFR81davJ2/YOgwcPY+6cOW1Wfr4l12H3tfcR6DIGwulnnsm8efOoKC+3Ki8+cP/9Lf7SCD0DkTf+r4cfZuXKVQRS+pIz+EwSM4ZjaFFMy5278wNWcfrRtHoq8xdTsnm+5S3Q9Qj9nC4O9XgZ4/ayr9NBtmCaC06BKZgHJkJXUZUkCg2Nz0MhEhSFFEWhp6ySpYhrZesQiZimKGqMIknWP6syJcK7YLLB0Pg5FmVRJMx3oRArYlGihoHbl0oguT/JOSOJSx6Iy5NoSTw3qDm2T2PB4Uvhh1nXUV+zmd69/2zxLhTFZaXkxaIV1AbXEqzdRDhciK5FLU/CiBEjGDV6NAcecICVCSFSKPdWExLb69evZ/1274BINxTZBuL/byh25LLKVztdyVbYwO3uZpWxVlQ3suSwQit2tsHe2r32Ma7wJJSWfkF52ZeMGz+RN157tdWI1+1jxfYsWgOBTm8gCFe/qJ0gZIs9LpdVffHiiy5qUSzF4StSxs4880zmzp1r/VBnDz6dHoPPJRau3q1hICkOhHFQtP5jNv0wBT0awiMrjPT6+FsggSPcHssACIpCQtsP9V8WYCIhMtK3mgaHFG2j2tC3ew9ESqBCH4eT07xezvP66aW6iBoa+g4iBlYtBAl8SoOM9CYtwtT6el4M1lAeiRAyDFSHj7TeYyytBm+gG9FQ5XavQvsKQTh9qaxZ9E+KN35O7j6TEF9Uv23CWFBkH6FIATU1q6mrXUW4vtpyuwsvTSAujiOOPNIKRQiiV0Z6ulUHQngd9lSUyeK9bC8KZRWG0jR+XL2axYsX8/U331ihgs2bNlnTFd4QyyOiKLhdiZZSoSAUej3dcToSLfKprgdtLYIWfZs7SWdCkllNID9/OtU1KznnrLN5+aWXOoSnrJPsQKdYRqc3EBZ/9x2HH3GEpeE/ZcoUDth//xbduMrKSv75z3/ywgsvUFFZRWqPwy2vgcubih6r30X8frucsOKgeMtcCn6eSbBqC90cLi4PxHGSL45cWbE+0kVVwR3JJRmSiUdS+CYW4fzSIkqER0GXfq2OJ4wH4WiQJBM3EsMcDs7zxXO2z4+QfgqLkMJOiGkOSzVPQjNN1ugaH4eCvB+sY3kkjKp6CCTtQ1ruUSRnHYSiuqwQSHtpIkRSvGkO6797lu45p+D377PD9FFB0hOCP8IwMPSwZTAEg1sIh/KJRkotAqvL7bZIjunp6VbaZN9+/ejZsyeZWVlkpqdbmgv+gMgG+K8RIjIIhM5AXV0dVdXVljqmyGIpKixk27Zt5G3bhnhuyisqKC8vp6a62spGETg6HfEN3gF3Mh63MExSUVQ/stRQblw0K1OlCeTW9rIv9jzaGAERLpQcbNv2OppWxO23/4Nbbr65jSdhD9eREejUBoL4sj/tjDN4d/p0ps+YwSknn9xieyXCCYIxfv7557N1y1ZcvlRy97uCtJ5HWLn5uyP2KU4v4foy1n39CDVla0hzqJwbSOCOuEQ8kkytru/08LYOCQm8ssTH4TCnlRQgyyqSYXLJxR6OO87FipUai5fEWLk8RmmpQTC8XXvJ1BnkdPPPxGTGON0EBXt9Nw4AYSj4JQVdMpkVDvJobQ0rwkEqNQNPIIPug84gJedQJEOkWIqv8L3vUQiHSlk26wYSk4eTlXkimrZ7A0YYC4risTgM0VgFoVAhkXAe4XABkXA1hi50KjQMy9MgUkkbHieBj9vj+VXcShgImuB0bG8N2vkN3gAxRsM4qlVfw+FItooaCUPA6UzC4YhDkoT5pqPr4e2GwN7Hs8VeHLujtkXACkc62LTxOXSjmhdeeJELzjuvbedgj9ZhEejUBsJTTz/Ndddfz9lnncVLU6bssXv4l13OLyhg0qRJzJk9m2hMJ2foeWTtc4xgAFpVH3fVhKiJ6k5g49JnKFo/G00PcXUgkeviE+guK1bGgW6KL/udN3FQxysOXqir4e+VpQRlGS1i8I/bvPzt/3lBFweRCAlIVAZh0wadd94JM+WlMJVVBooqCy47J3n9PJqYitM0BD9xt4wCwVgQ3AVx3m3WdV6rq+G5umoqYjHc/gzS9xlHVp9jkRU3eqR6r3IUhAG15MPLcKiJ5OZeRSwm5tP41kB2FF/sgrjZYAsIDomm1RGL1Vj9aVrQIkCKeP9vY/4NhoDDUiQUBoeIBzsdAUt7QFFEMSMXDeI2/3vwG796fxo/U/tKG4FdIyBCjVosyMaNz5GSksi8ufMscrbdbAR2h0CnNRA2b9nCqEMOwe1w8NNPP7VIPYWqqiqmTZvG//vrX4lGdRLSh9B7xKV443sQDVVY7IBdNZE6GA6Xs/abf1NT+jPD3G7uT0plrMtL0Pry3t12Nfw9TlF4oq6aGytKGgSTDJP77/fxl2t9RGpFMOK/AQnTlHA4RQlllbx8jX89EuLVaWFq60VWg8EQh4vX0zLpLklErZDD7puYpoKER5EpMXSerKlmerCW9dGIlTKZM/C0Bo+CIEdqe0d0R+hFrF/yOCWbF9Kr96U4nEnbFQF3v75dXyEjyw2hCckyIHZhBwkNK+sCERJo8Do0eFcaudF7OlX7fhuB7QgIozQUEuGtd/AH3Hy/ZAm9e/Wy8bER2CUCndZAuPa663jqySd55LHHuPbPf97jx+DbxYs568wzLfVFU1Lpf8jNJGcdYJEQd1dQSRzEDncClcVLWfPlw9ZX55/jk7g7IRnZNNDF53sjmjhc/A6V6yvKmVJXhSEIhbrOm68nMGGcA8M6i3dR3EmScXlk1m2Kcu75tfzwg47shHjDYGZGNsMcChF9956E305VfF27JJl64KW6av6vqoIKTcPtT6PH8EtI73EEkfoypMZaP43AoTGXiFLRdZUbWDH7bySnjiQ19Sgr/99uNgJdFQHhzaqqWkZh/kccNXasJfduNxuBXSHQKQ2EufPmWTnuBx10EPPnzduj0IJILXvk0Ud5/vnniUR1MvtMIHvQmVbanBata2CZ76Yp7jiK189iw9IXSZNN7k9K41yvl6De+EqNlndCkbilsswKLRhCGMkLLzwfx/HHuIgFjf+KH+xqPqaE6pGprjO47vpa3nw7iuyQ6C1JvJfeje6CGd+Mw1wYCm5ZoUDXeLK2mtdqayjRdUsxMnvwGQQSctEs0mbj17w7XHf3d4c/je8/uNSSsu6dO8l23+8OMPvvnRoBQYRVFS9FRR9SXb2CCy+8mCceewyv19up120vrvkIdDoDIRgMcvT48axescIqoZybm9tsdKZPn84FF11EfV0dvoQchhx5F05PqpXe11DPYNdNeA6c/jQ2LplM3poPLEPlu8xs+ooiQ42I+f/SuxhKlVUmlOTxTSRsOfhTEg1W/JBCfEBGCzdervnXPpFxJkjccH0tTzwVRnGCyPxfldUDh2EgN2J9O1q9iP3HSzIlpsGV5WV8EKxGMiUy+04kd/+r0cNVDbUimtn/7jD/7d9VTyLrFj9K8fq59Ox9AS5nSkPtCrvZCHRVBITHz5HCho3PEo3m8fxzL3LhBed3VTTsde8GgU5nILz99tucd/75VnbBM5MnN8t7ILIT7r3nXj6Z9QmS4rO+gNN6jrEOOpEO1ygnvGmieuLZsnwqeWveY1+Xg9fTssiSZEuAaPfmRUOkWpWgxIQry4uZFw1bBMT+fSX+MzWewf0UtJDwHDT3OZcRlMpJV9Xy9owIkmJygdfP80np1OjNl+IV83YKA0CWmBcO82B1OYvq6/HF96DHvueRmLk/elTUoWj9w7quejMrP7+NpJT9yco6wSIY2s1GoCsjID5uBJl68+aX8fpkpr8znTFHHtmVIbHXvhMEOpWBIHLPM7KyLHljkXMeFxfXpI0XqYvPPPsst95yC+FIlKRu+9Fv5I2IIihCy78x4QQxoPhKdXgS2bryVbaufJ3+Hg/fpmejNSKl8HdfwDKEUTi6aBsr9RhoEoMHScydl0ycyyQm3BB72IREsydR5pDR5Xy7RGQzaLyRmslEl8fSQNiTZhkKsjByVP6vuoKHqiuo1zTSex1Ov9F/a5CPFutqxSbqWSydNQk9Uk/vPkJV8b86Ea04rN21jUC7RsD6TYvVsHHTc+T27sXnn39O927d2vWc7cm1PQKdxkAQBD6hlvjAAw8wefJkLr/ssiahKeoy3HnnnSz+9lt8CT3pte+FJKQPbch9b5KssInqiqNo8xw2LnmOXFXms/RuJAirvbFkRBo0DpZrGueXFrJBFFbSYPw4J08/7ScjSUGPNpFNuAs0ZEVi+RqDg0dVIDslcmWZBRnZuPbQQPh1yO1Exp80jdsrS/mkvg6vvxu9hl9EcvdRxEIVTdqrplysuPyUbJzD2sVPkp45hsSEgzDN1jVKmjI/+1obgb2FgEjDrapcQnHRZ4w5aiwff/hhixet21trs8dtGQQ6jYEgVOsOOPBAIpEIXy9aZCnf7a4Jo6K4uJj/e/BBnnj8cWTVQ2rPw8gdcbmVjmYIUl0T/feSolJbsY6Vn99OhsvF15k5JIlEtyYctqIaY4Guc1RxHnmYyBocfpiTt96Kw6uA0QRy4+4w+OXvTq/CnfcEefDhekzZZEpiCmd6A5bEcks1VRaGj4MHayr4d1U55TGN7EGnkzPkbEwt0sBNaIUmSKJLPrjM8lb06i3IipEGpSm72Qh0ZQQsOeY4CvJnWJLjoiT9gw88gCxKp9vNRkCcfmZ7kL1rga2YOm0aF110Effccw+3/P3vjepx6tSp1vXr1q0jPq0/uftPwhPIwdBCzWLbC/EbYZUv+ehPECrng8xsRjociJLLjWlChcCnyHwaqueiskJqRIaEbvKnyz3c/4AfhxA9bMED+7dzkmSJCBIHHFjB5m0GvRwqK9K6EzFEOaiWbW5ZZq2uc3FZET+EQwSScul3yN+scsRYQlMte3gLTYQNy56laP0csnPOwOfrZRczatkttXvrqAgI4TMUNm96HqdL44P3P+Dwww7rqKux593CCHQKA0FwD/r07YuuaWzdsmW3okirf/yR++69l9dffx2XN5msfseRPfD0hiqFusiVb84BZSI7PKyadxv15Wt5MDmdK/0BQvrO6x38fi8lFFliZqieKyuKCUsyTsXk0ks8PPCAH0IGVmmGhlpKFoPR1E0MQ8y1JY5wCZdf4i83BXny6XqLsPheWhaHO10YTfB+NOb5tMiXSMRkiVuqynihphqHO5FhYx9GEekULZ0KKUlEQhX88Olf8HqzyOlxkaVFYTcbARsBkVCkounVbNn0H1xuhWXff0+fPn1saGwEOocHQdRZOO300y3PgTj4d9ZE0aNHHnmE+++7D6GKmNRtf/odfKOlRmjEQnvwOIiMhUQKfn6fDUte4LyEBF5JTqdaa1wmgCi6FCc7eayuklsryjAUBS2q88QjASZd7cPQQHEAUYO8AoNo1CTglUntvl3JL6wTsqIhe2goSDKr1mqMHF0Fisk5gQBTEpOp31H5xz1AS9wq7BqfrDC+tJCFwVpLqrrHsEswhfemFZrDk8TP3zxEycYvyO55Fl5vdqt5Y1ph+naXNgKtioAQUaqt+ZG8/Pc4/vjjef/dd1t1PLvzjoFAp/AgXHzppbz+6qsWE3f06NE7RH7R119z15138tlnn+GNyyJ7yNmk5hyGEQ3usYCOCC3oeohls64noNezKLMHqeKsboQjoqGOj8xD1ZXcX1OJjEJ8wOSBBwJcfoWH9Ws1PpoZYc7cKKtWGxSVGAi7w+2CjDQYMdzJCSe4GDfeQZxHRo+KgZvHGxBzcXplhh1YxZq1OkMUhQWZ2eh6y3IDZCGqJCmcXV7Ee8E6MnqPpc8BV6MJVcrWarJKLFzBD5/dhNudRo+cC9BsL0JroW33xFqxOwAAIABJREFU2+EQMK26IaI8dG3tWu664y5uvfWWRum9dLil2hNuNAKdwkBISU3F4/WyacOGP+geaLrO7bfdxkMPPYSuG2TkjqHvwTeiR+owmh1O+C2+JrLTz8q5N1NTto55md050OUm0ggioSi6lKQ4mFRRzPO1tZbGv8hOeHdGIiee7OPhf9Zw6601aLqE4hAFgP64r2IYUzNJS5OY8kKAice6CZZqonhgs5rTr3D7P+p46JEQaTIszczBI4oV7aFz4pfJaJJJquJgfEkBs+tqSMgYxtCjHiASLGt0GmmzFibInk4/P83/B1XFP9Iz9xJcrtTdFtdq3lj2XTYCHREByaooun7doxhSLTPfe5+xRx/dERdiz7mFEOjwBsLkZ57h6quv5qWXX+bC8/+rCKZpGrNmzeKee+/lu8WL8SfvQ899LyA+dTB6tOUkf2XVRU35z6z+4m6O83l4Jy2TutjuQwuiKqJLlrm4vJg36ussz0F6qsQrLyfQt5/CVZOq+HhW1GIUC+7B7poI26uKyTVXu7nzrgBmqHlf/c6Awsz3Ipx+Ti0O1WR+ahZDHQ7CLWAhCAMnTnFwWXkRL9dUkdL9YPofIvQQhGhS87weu8Plt38XVe3qg0WsmP1X3O4UevS4BMPKaGhKL/a1NgKdFwHBR4hEitm86SWGDtuXhfMXEAgEOu+C7ZXtEoEObSBEo1FyevdGNk0K8vOthYqkDCG3/Ne//Y1nn33WkiXO7HcMfYZfTiwiZH7FQdQI338jHxyHN5nls2+gruxnvsjKYZAsyAK7PnGsmokSVvz9+2gEVZLxeU0WLEhin74qx0yoZN78GA5n0+YpMveEB+L8cz28OCWOcKXeZEVjl0tizXqDkYdWEYyZvJqcyqluP/V7mIIoeBY+WeWyihJeq67CG9+dEcc8ZdVJaKwAVSO3ZJeXuXxprPnmYYrWfUZ2j1PxeXMxmxmSaYn52H3YCLQ3BFTVS1n5V5SVzGfiMcfw3owZKEojvlLa20Ls+ewxAh3aQPhq0SLGjBnDeeedx4svvGCBIVIXhViSKPGcmLEvPYdfiC++J7ogIbbwV6rgHlSWLOWnhQ9xcXwik5NSqW9EvF54Dp6oq+HmilIUSWXgAJk3Xo8nN1fhnHOqee/9KIqjacbBL0+ClSEgmzz2iJ+LzvcQq2+aJ0FRJLaVw8iDKqioM3gsIZk/+eL3zECwPAcqV1eU8lxVBQmZ+zLosH9gaOFW0z7Y6ZshycSiNSybdQMuVwK9e19NLFa5xy+S3YGNQKdBYLs+wpbN/0EzCpj68lROPfWUTrM8eyGNR6BDGwj3PfAAt91yCzNmzGDEiBH8/ZZbeP2113C44+k+4ERyBp9LLFSJKdIAWryZyC4/K+b8P9TKLSzt1pMk8QXfCFd8QJa5o7aK+6srcakKG35MIi1d4vMFMU46qRLDbCaBYPsaxRS0qMm6NclkJgtDo/Hue5FqmVcpDIRyymtNHk1I4Up/XKMMnx1BLLwaQvjpmsoyXqmqwBufzb7jH0GPhvYaAUoWughLn6Jo/edkdjuWxITh6FaNDbvZCNgICASEXLxhRNm08XmSkuJYtXIVaampNjhdDIEObSDsO3w4paWl3HrrrTxw//3k5eWRnH0Quftdackdm3uUurjrJ0GkRkaCxfww569M9Lp5KzmdkK43KnjhUeBfNbXcVlWOgsKalQnk9ndw9NFVzF8YbXYlxd/OWBgIV13p4bFHA4RrGm8gKYpMXoX5q4HwSHwKkwLNMxCsyo6KylUVJbxYVYk/pT/Dxj2MFqlpe8/Bb8ARIQ3Z6WHJzD8RDVeR2+cqSyymMRU6u9jvg73cLoyAoripq1trZTZMnHgsb7/5Jm63uwsj0vWW3mENBFHK+aCDD8br91FdXoHbn0bOoDPI3OcYoqFqQe1vUa7B/z4aQthn3XePUbhxNh9kZHOYw43RyBCGU4GX6oJcU1ECuso3Xybg9UgMHVGB6pSazBvY2WPbt4/E0mXJaDV6o7MQHE5Yt8Vk5Kgq6qImLyemcpa36RwEQUh0SDI3VJXxfHUlgaQ+DDriTmikqmTrvoomijOOoo2fsH7xM6SkHkR6xjFoWm3rDmv3biPQoRAQqY8B8vLeJBLZxGuvvsYpJ5/coVZgT3bPEOiwBsK5553HW++8jRaJktbzcPoefD2mrmFoQgmxlZskoRsxvv/wcgY4HHyXkU1Y1xtNhhd6Rp/FwpxVUgCmwrRXEtiyzeC222qsdMaWaiK4sG5FEhlZNLryo9MvM2dWjONOq0bwkj5PyeAAl4tQEw52QUgU6ZvnlhXzdm0V3uR9GDbu3+jhmj3WnGgpbCwiqepi6UdXEAvX0Tv3T6hqANMyLO1mI2AjIBCwvGqmwfoNT+Hze/lh6VJ69uhhg9NFEOiQBoIIKxw0ciR5hWX0OeBaUrodYOkaNLDRm0fua9J+yzLl+d+y7pvHeSg5jWvi4gk2QvfglzFEFsMaI8YhhdssA+FvN3kpLDGY+kq42eTEHc0/FoXXp/o55SQXsVDjeAgizfGBB4LcdW+IJNXk+4xsEpBoLNVRRkLUWri8soRpNVUkpA1hwKG3iApTVoZJe2qy6qa+No8Vc27G5Uwkp8eF2ys9tsEz1J6AsOdiI7ALBCyVxdqfyS94j5NOPIE3BM/LIbK17NbZEeiQBsLcuXM57oTj8cQPYOjYfxKpLWgbw2D70yC74/h54b3ECr5nQbee9JClJnvOxXdqt6JtxGIm+++nkpGu8PHHkRY1EAzd5IF7A1z358YbCO44hcPGVPHN4hgDVIUvM3MwG5GZIaDRTJMEh8qY4gK+CtbiT+7D8AmPE62vaAuzrVnvaiBlAGu+/idbV71Ft+4nEB8/zK7T0Cwk7Zs6LQKSiSx52bbtP4RC+cz+9DOOPPLITrtce2H/RaBjGgjz5jFxwgQy+59C936ntLkansObxJKZV9AtWs43Gd2RmuB+/wV6r6JwTnkJ79XXEeeTGThE5ZuvYi1uIDx4v59rrnI3zoMgyWwtNCwuhIbJyV4fryWlE2qEBoLcoBnNOWUFfFwXJL3nYexz0HVWjQuzkdyM1n8xTSTZieLwEI1UUVv+MxV5X1NTvp5QdT6q00ev3pchS2o7mnPro2KPYCOwOwQEsVdkg23a/CL+gJPFX39Nbm7u7m6z/97BEeiQBsLTTz/Nn//8ZwYefhtxyf1bTge4EZspshdi4XKWfvoXzvH5eS4hiVAzXOduSWZhNMKEskJkU0J1gBaDlizFLkIMb7/m54TjG+dBcHok7ns4zN1314FsMCUlnZPdvt1WcxQFY+skiYOKtlEYjZCYOZzBR9zV4DloruZzI/aiKZeIeSjueMK1BRSs/YDiDbPQYzFcqkSS18ngVBefbw7iC/Ske/dz0A2htmmHGpqCsX1t50ZAVTxUVa+gsPADLr3kCp579pnOvWB7dR2zmuOVV03i2WeeZb9jnsDpTmxTA0F1BSjaMIt13z3D1PRunOj2WK71JjfB8pdV9i/YzHrTtAox7qjWQpP7/c0NDhVLYyExEbTIrucoyEimW2bUqApWrTFIUyR+TO+OZEpWTvSOmoGJS1LYaOoW4fKncIjsQafTc+iFaBGRSdIMXPZkwf9zr+A8CK+AsLrK876mcN3H1FVsQI+FGZzi5pTeXo7u46VfwEGcT+HEGYXM3hKie87p+Px9MPTWqSzZgku0u7IRaFMEJMnJ1q2voMg1zJr1KaMOPrhNx7cHa1sEOqQHYcxRY/jqm+8YPmEyghTXlk1x+ln73b+p2LKI1Vk5ZMpK8wwEwCvL/K26ksdrKlFbWMpUnM3DBkt8/W0K0ardM/MdXpkZ06Occ1ENsgr3xCVwQ1wS9fqO7xVHv0eWWRKLcUJxPjWmRPeBp9BjyLnE2oHnQKhcKk4vVUU/sHnFVGrL1pPoVjgw08s1w+IY28ttPTuh+obsE0ky2VBvcOgb+UQlN716T2rgu+5lI6ctn217LBuB3SEg3itDD7Nx42Ti4+NZv/ZnEhISdneb/fcOikCHNBB65+ZSXi0x+KgHMbW2VcCTFAcrPr+JtPpS1mTmUG8YTdAp/N+nRKIWg/6F24j9klLUQg+SFjW4+e8+7r7NSyS4mwwGUyKvHA4cWU5dSCIdk6+ycrBe+x04AYTnIF5x8HqojhvLiimNxeg36gZSexyOHtn7WgJOXyrVxStYv+RZ6qu3opgGVw6L40/D48j1qmiiAqYuVvH75nErTPuplsvmFBNIGEi3bqeha3VtSoBtoe23u7ERaDUEVNVHaek8ysq+5MH/+yc33Xhjq41ld7x3EehwBkJNTQ2ZWVl4UoYwcNQtlipfWzYD3dI/OMThZE56d2p28oXd2DmJlMCXg7VcV1nWYgQEwZlMiofvFyeS5JNB2oWBIEl4kxXOPKOK6TNimJLOHYnJ3OSPJ2oVtvpvs760heagIvOfumqrlkTMEbCMg4T04dsLL7WtR+e38xOVNTU9Qv5P0ylc+yEuyeCkPgH+emACA5OdVl2KXYaDTDA8MifPKGZBfojsHmfi9fXcXha8sTtqX2cj0LkRECFHwenZsGEyCfEefli6jG7dunXuRXfR1XU4A2H9+vUMGDiA1N5j6bPf1WjhqjbdOk0P8d0Hl3N6IJ7XUzOp0Xbvvt/VBE3JxCmrHFacx/JYFGUPSX2CVyfpBp98nMiho53Egjufn2HI+BLgtn+EePiROgxJ5kiHk5lp3QjtwPBRRF0FReX8siLera1G9SQz7Oj7cbgStgtU7R3jQHANHL5kKvK+Zd23jxIN1bBvupc3J6aRE68QDQvTpnF8CFmSqdQM+v1nGxFDok+fq6zsDImWE7Bq0wfWHsxGoBUQkBUX4VA+W7b8h1GjDuGLuXPtio+tgPPe7rLDGQiLFy9m1OjRdB9wGjlDzkULV+8AQ3FKNqTdWUpg1g98w+H1W739hvCysIfNhtoApvi364MkGq3h+w+vsqo3Pp+SvscGgpiBmN1mU+e44nwKMZvNqxAz16MGf7/Zz223eDBCgvm4k/VIEp6AxONPh7nxxlokVSIBky8ycsiW5T9kLjgUic2azrXlpcyrr7MyFfYZeR0Ohw8j1rZhnt/6NETaotjabateJ3/dJyQ5DW7cP5ErhsbhM03CMfG107TXzCVCDWvqmDS7GG98P7KzzyUWa1tDtGkztq+2EWhrBEwcjgS2bX0NTd/GO2+9zYQJE9p6EvZ4rYxAhzMQ5syZw4SJE+k57CKy+p9s5dlLDjeK4kIWBBpDs3QRxP+vx4JWlT4tFrb+WxgA2q+cBRNZdlj3qU4/DmcAhzcFxeElUley01oOsVgtS2ZO4oL4BKakZLSIgfAr4S8aZXzxNmKK2mTqpfjgV2Sdxx+N59JLPURqDKSdhBZM4TlIk7n3riB33l2H4lLQNY1v07Ppr6rEfmMk6ZJJouxgYTTMSSX5VEdjZPWbSN+RNxGpLWr0l3lrPMey6kFSFJbOup76yi0MSHYz89Qserok6iLCMGic1+B/52YaEn6PzCEzivgmv5as7seTICo+avWtsQy7TxuBDomA+LDStSAbNjzLwIGDWL1yZYdchz3pnSPQ4QyE6e++yxlnnE72oDPwJ+YSrNxEuL6EWKgGTRgEsXp0LYShhdH1qCXuYeiCAmg0OAd+l9ve8HUpyQoifq06A3gC3cncZyJJ3Q60agf8b9ONKN/NvJQJHj8z07u1iIHQ4MdoyGp4N1zPNeXFVImKg78Z3FJyNkxk4effTq43DSHabPlFGD9e4aab/Bx8gIoe3jnnwOFVyCvUuevOIG+8HUY3hLdAZ2pKBqd4fIS3iyKJHjySQp1k8kB1BY9XV+BwJdJz3wtJzTkMPSrIe3urmYhiWeWF37Fh8VOW3sI1IxK5c2QCQgBWjwnPyZ7NTZYl6mSJI17LY211lN65l+JwJGEKL5PdbARsBCwEFMVLaennVFR8y3333sff/vpXG5lOhEC7NRB0XSccDhOJRlmxfDnzFy7kqy+/4vulS6muqUWPibLIJqqK9U8Q51RFxeWRyciUyEhTSE6WSE6WiY8ziY+TEfLhcQFZUGxE1IFw2KQ+aFJWbpJXoLFsmc7GDVHq6zVyhpxOzqDzLBLk78oAKy5WzLkBJVjMlqwe1iGut1AqnDASArLKwmiIk4vzqJMVFKFPYEJ8gkRqskxxUUNlRvHP7ZGZOM7BlVe6OOAgF9FqA03bwZez1EAsNJww+5MIl11ZQ0WlhKRCgmHwYUZ3hqlOQoaBUD0Qh6tHVlghhJxKC6mKxXC449h37L9weJIxoiJTYQ9P4Ga+RGLdDneAsrxFrPnqIXyKzDNj0zhzcID6qliLTsupSswqjHDquwW4vVn0zp20PdTQPM9EM5ds32Yj0K4REEbChnVPkJ2TzPwv5pOVldWu52tPrvEItDsDYfmKFSxYsICvv/mGNWvWkrctn/KyUkxTIiFRZp8+Df9691TpkyuT1UMlIV4iEJAI+CV8XgmPQxgM4oNbHK6mde9298GOkREcBdlAkPaWr9a44opqVq3Wyd3/CjJzxxP7jSdB5NaLQk3icDouEMfUpAx0Q2ux41IcPW5ZYp1ucE1FMV+FQ8iKiipD/34Kl17s5phjXRYhKD7eJM4PImqiRX/xQzQs0ekC09FwiJcW67zzXpTXXg2xeImOZHkhdA5zunk8KY2eqkLMaDhbxYG7Xotxd3UFHwVrqTcgZ+i5dOt/EqYew9TFQHvHOBDjOn3JbFkxjc3LX6VvoouXjkljRJKTaLRxxaga/2o0PDJOt8wdi6p46PtyEpOGkJlxApoR+pXT0pT+7GttBDojApLkoLp6GcVFn/H3W27l3rvv7ozL7JJr2usGQm1tLXn5+cyc+SGvv/EGK1eusn6ZE+IhMVFh8BCVUQc7GHmgg6EDZAJJwgOwvekGsZCEyMYz/yclr3m7KaHIkFcGo0ZXUFahsd+xT+F0xv1Gm9/E6Utj1bzbqCxYwi1JqdwUl2RVKzRa0JMgW0qLMvfXVPFCTRWlYtW6bJVedbkljhnvYtzRDvYboZCQquJ0Sg0xdxOiUago1Vi21GDO3DCffa5RU20gqyKeAinApXEJ3BqXhG6KeYOwJcpMeKGuivurKi2jKpDSj30OvBpvXM522eS9ZRg0hGCESNXmFS+T/+N79IhzM/P0TPp7ZOqjTSciNvb5EORWf4KDo1/PZ962erJ7nIbf3wddb4Oy4o2dpH2djcBeRUB4KN1s2vSs5WFbtWIF/fr126szsgdvGQT2moEgwgePP/EEb7z1Jps2bKW6qoq0NJkJ410cM9HJ0OEqqSkyAY+JRSHY/oFsag15B63XJJwemL9I47jjy/GnHcCAQ/6OHq79jRayhCnD6i/usKR7j/ULT0I6LhlCughgtMz8BD9ClWSKdIPng1U8U1dLra5hSgqKFWsHr1fC6zVxuYSB0EBmCEdMgvWSFUIRnhSR6CibOomKymW+AJcE4q1MhYhh4lNUygyNB2uqmBGsIT8awx3fnV7DLyExfRiG1sDj2JtNoOnypbJ+yWQK1nzAgRlepp+eSYJmojehzHZz1yD2c0vYZOi0PBTFSa9elyFK4Np8hOYiat/X2RAQhO/6+jzytr3BOeecw0tTXrTTHjvBJrepgSDc/Rs3buTNt9/m0Ucfo7y8gu5ZMgcd5OC001xMPMqJxy9OOYNYndnkEsotth8iNOGSmXhsJd8uURlxzOMokut3B4JQVBQn8s+L/kVF/mJ6OF3cl5TCCW6vdUjHWrCCoTj4fbJKsR5jeqie90NBtsQilJgmddv5eA3MioambzdRfEC6LJHrcDHR4+U0r58MWSViCnlhifW6xtS6ap6rq6FeM/DGZZOxzzgye0+wjDA9Wv97/kWLAdy0joTnYNPyl8n/6X1GpPmYcUo6ybTt8+F0yXy6JcS5HxdhOFPp2fMSDMOK69jNRsBGQKRny262bHkFl6uexd8upo9d7bHDPxdtaiA89PDDPPrYYxQWlFjegXvv9nLiKW4S/RATOfsW+a5lvr73dGdkReGdmREuuLCCnKFn0HPw+cTClb/rVhyyTk8CRRs+Yf2S51GNGN3dbiYnJHO0x09I14mIQkwt5VEQcj2ShEOSCGJSosVYoUVZH9MoFyGO7UZCqqyS61AZojpJdzjwA1HDxCOIisBn9fU8XFvNsnCQWl3HHcig59ALSOt5OFokuJ1nsKcItsD9lgBSKpuWv0jeqhnsm+Zm1tnd8IZbLpzT2FmKkIvfK3Pd/AqeWlZJcsoIMjNPIKa1rZJnY+drX2cj0NYIiDoNkXARmze/wujRh7Jw/vy2noI9Xgsj0CYGwg/Ll3PzLbcw+9M5DOgnc8UVXi67xIVDlYkFxbdqyxPM9hQnS9BQkek7uJyyKh/DJzyFtD0F8Pd9myiuAJFgCdt+nE7Z1i8x9TCHuz2cF4jnaLeHZCE8ZJi/0xfY0/mJ+52ShGrlaf6RG9BgaAlkZWKmzhpdZ1aojhnBOlZFIsgOj1UqO6PPOBIz9kO83FYdhaaqCrXEQnbYh4nqiiNvzQw2LXuFA9J9vHVyhsWfaCmuR7Om7lI4fkYRC4Q+QrdjiI8fjmEIoai9x89o1jrsm2wEWgEB1RFP3rbXCQbX8cH7HzDRFk9qBZTbrstWNxCEsNHxJ5xIOBTl4gs9PP5UHC5ZIlK3cyGftlv+rkdyxSvcdGMtjz1Rw5Cj78cf32OnSouW3K83GT1cybrvJ1O6+cuGrACng8v98VwTiKeXw0lE0whaYYHW85SI+g4eRaFC03ilvo4n66rZHA5ZRoqsOi2jIHvA6XgCWUSCpRbxsb011R1PRcG3rJ5/H9l+J19emE2y4BzsZQ+TII+WqzKHvLyVwrCQYr4aITtrGL8QZdobkvZ8bATaFgFNq2Xjhhc59fRTePuNN9t2cHu0FkWgVQ2EF6dM4ZZbbydcX8bjjwc4/xwX4RohWLSdTdeiS2n5zpxuibkLdU44qYyMvqfQfeBZu60eKckOJMVJpL6Y0s1fWCmRwaotlgjSSJeH8V4fR7k9lmKh0P2PGTp7ousjPAiO7fUbgqbOCk1jYSTEglCQZZGIZSS4PAnEpQ4iJWcUcamDcTjjrAJEezdlcWf7ZSI7vFSXruLH+XfTw6/y9kmZDPCpaG1ASNzdUyTsE5dDYm5hlNNmFmAo8fToeSGSJGijdrMRsBGQZSd5eW+gaUUs+moR+w4bZoPSQRFoFQPBMAz+/cgjVk5svN/ko08SGTFIIVIvPNjt72t1p3tnShTVwMEHlxGT+7PvhH8TqS1u1FZbHgV3nKXQWLZtEQXrZlJT8rOl8GgqEge4PFzu9zPR7SdZVaw0TZHKLzwLO/It/OrAFumPkmyFFgRFrlrT+TIW4sNQkFmhEGWxqFVYSHzVBpJ6ktZrLCnZo3F5ky1vgWl96bZfd7ggf0qqiyXvX4wSq2HWad0YmewkJIQa2lHz+FSeWVbD9V8U44vLpWfPS4nGyhtbE6odrcSeio1AyyJghStjQTZunkzvXrn8tHq1ndHQshC3WW8tbiAI5cObb76Z5557nqwMjXdnJNCnh9wgf9uKbvXWQkxxS4w6rJqf1vnY7/jnMaKipkPTwgOK6raO/VisjurilZTlfU1NyUpi0SCCUNjX5eQQt5cxbq/lWUiUJZymjKj0KBIM6w2DCtMkT9fZrMVYo8VYFY2SH41QoGtUGIbljfDGdSeQOoDEjOEEkvtadSVkSdRZiDYUouoATTiXls/+K7G6YqZOSOekXC+RiAhHtbPJi9LQLpkrPyvjrbU1JKXsR3r6RDQ9aIsotbOtsqfT9gg4BBch7y3qQ2uZ+f5Mxo0d2/aTsEfcYwRa1EDQNI07776LBx98iBHDFBYuTEIPmxixjnE47QhN1SVz290h/vVIDcOOfgBffG/LC9C8ZiKpHpyeeOprCqgsWkLZlgXUV+URi9RgmBoOVSVVVoiTG2ox1JgmNYZBja5bYkxCuEdWnAijQ1G9+JN6EJc2jPjUQXjjc1BUF7FwdTsNH+wKNaGSmMJPC+6lZMuX3HJQMncdmkR9jdZuHR4io8TnVxj9Wj5fFwTpnnMKcXEDbBGl5r0c9l2dDIForILNG6Zw7vkXMPWVVzrZ6rrGclrMQBC1E2766195+unJDOoHH89KJM4pyig37Wu7vcGuOGUWLooxbmIFOcPOoMfAs9AE239PmygQJStWYqJpatSW/0x18WqCtVusEta6qFIpBI5UD6rTaxVKcnlT8QQy8cR1x+VLR3F4rNCEMCRM09jrgkbNhUSEYxR3HFuXv0zeT+8zvqeP149PRw7volx1cwdr4fuEkbA5YjDslW1WJkiPXhfgcibbpMUWxtnuruMhIMsutuVNxdDK+f777+lvqyt2uE1sMQPhmWef5S833MjQwQYL5idiRITnoGMbB2I3FRVihkzOPqWYzj4MPuyePfAg7Oz5MJGsstM+SwdCMOJNUb/ZqjSpWmWspe1EREOLNHyh7jDlssM9f9aERcpldelqfpx/L0OTVb47vxuRoLHXMxYai6bDKbO4JMpJ7xUQNJ306n054sdRGG12sxHoqggIdcVItJytW15m3NhxvP/eu6iisp7dOgwCLWIgiGyFa6+9joA/yrKlScS5fimO1GFw2OVEPYkKRxxZzldfxzjghCnIltBxa7dfgu4d38jaFVKC/a8bEb7/aBJaNMq352Yz0K9itENtjJ2adyb4PQqPr6zmhrll+PyZ9Ox1BZpe2xFpN639YNv9dyEERIn0TZuex+WuYd7n8xg6ZEgXWn3HX+oeGwjffPMNJ596GpJZxuzPksjNkdBbobLe3oTanahwzdW1TH62huET/43bk9quMwH2JlZNG1tCdnpY+fktaFXreG58BqcKUmJIkBI7lmEkPD8+j8r188uZvLySuMRBZGaeiGHYRZ1b+uT2AAAgAElEQVSa9kzYV3cmBITnMxhcT962d7njzju54/Z/dKbldfq17JGBUFFRQfecHEL1UT79OIFDRzrRYx3vx313u+wJSLz8coTLJlXQ9+C/kJx1QAtVj9zdyJ37705fKhu/n8y2H9/j/EGJvDwuldpgrF3Uf2gW8qaEM17hmNcLmZdfS3rGUaSmHkEsVt2s7uybbAQ6AwKypLJx01M4HFBeWobT6ewMy+oSa2i2gRCLxTj9zDOZ9cmH/OuhAFdc5iFaJ2KuHevLrzG7LEkSi1cajB1bQnqf4+g94gqLSGi35iLQIIZUvu0r1iz6N6Oy/Lx/SjrOTsBZEc+KKJt92nsFLCsNk9XtOOLih2HoIdvr1NzHxb6vQyMgKp9WVS2juGQWd/7jTm679dYOvZ6uNPlmGQjCnfr05Mlcc+1fGHuUkw9nJhCp0tjOo+uU+BVXw8BB5XiThzBs3MNEago65TrbYlGCeCkEkZbMvJw4all4bjbZqoTWwTNefsHOqUgU6HDoq9soDkv07n0ZqiPBDje0xcNlj9EuERCVHjesf5JBg3P5Yu5c4uLi2uU87Un9HoFmGQjzvviC8RMmMrCfxOzZifjUjp/OuLsHQ3HLDBpRRWFxHPsf+yxatK7Jgkm7G6Mr/F0w+xWnl+Wzb6KuYiv/mZjO6bk+ItF2KIbUzA0RPjSXKvFNaYxj3y0gJrnJ6XEeDkecndnQTEzt2zo2ApLspKR4FvX1P/H5nM8ZdfDBHXtBXWT2TTYQhN7B2PHj+XLBAj76OJHDR8rEQiIfr/OFFn77DDjcCtfdVMtzLwTZd9y/cPuz2k9Z5A70sKqeJDYte578n97j2uFJPHxUCvU1nbPQkdur8sbPtVw2qxjFnUZu7pXoer1tJHSg57UrTVUQClsrNVf0HY1VsnnTS5x44onMeOedrgRth11rkw2EO++6i3vuuZ8rLnXzyMMB9LDebpXuWnJXVLfMZ7NjnHBKOb0PuJSs3hPRY/UtOUSn70tIP1eVLOPHhf+kh1/iu3O74bBKQ3RO41IUJRNS3Y98X80/virD7UumV8/L0Q1RL6O9aUd3+sfPXuAuEBBEwqhWg9uVhmnq6EY9WEX1Wq6pqp+tW6cRjebzw9Kl9O/fv+U6t3tqFQSaZCCsXr2akaNG06N7lJUrEwlVm5h65/xx/1+0VScEgxI5/UrxJh9E3wOvR4gW2a2RCMgysWgtSz+aRKpLYcHZ3enmktE7/fMj4QvIXPN5OZOXVZKYPJSsrJOtmg1NrenRSKTty2wEmoSA0CKJRkvZsvkVPJ5uBOIGEfD3Q1E9FrG2oZT5nv/OC/GwuuA68vOn8/9u+isP3Hdfx81YahLCHffiJhkIV119Nc9Mfo4pUxI4+1QnWqTrKMUJdronSWbw4DI25cczbNzjSELt0G67R0CScPkzWPbptVQX/cgLEzM5r4/X4h10iWZKCA/UUdOL+LagjsTkfcnMOIGYXmd7ErrEA9C+Fync/+FwCfl50zHMoNA2BUPF40snMekgAv4Bogwvui54V3uwFhGJlhQ2rJvM8BED+GLuPDweYYTYrb0i0GgDYfny5Rx08CgG9IMv5ydiRsyOVbq5BXbAm6wyYXw5n88z2f+E50RR5RbotbN3YaI4/axf+gxFaz/jkiEJPH1kCuGw3v4qNLbiVsgyuD0KR75ZwFeFYTIyx5GYdCC65UloxYHtrm0EGoGALDvR9RBFRZ8SrFuLrCgYhm45uZzOJAKBfsTHD8HhSLC8CQ1ehaY3Ib9cXPwJ9cE1LFnyPYMGDmx6J/YdbYZAowwEUaVx5KiDWbF8BZt+TiE1WSIW6bgVGpuLrjAQLr6ghqmvhxl+zOM4Hf7mdtVF7hNFmBIoz1vEmoUPMjrTw7yLsgmVR7vkmWgaEnUq9HxuK5qh0T37ROICg9HNUIvHe7vIA2YvsyURkMDpSKa8fBEFeTNRnQ6cThd+f4Dy8hJ03SAQ6EVa2ng8nu7EYlVNDj1IkkrECmdM4awzz+HVadNacgV2Xy2MQKMMhK+/+YZx445h7FEx3noznki10WmJZbvC15ugcNddQe6+v44hR92DL64H2AV5dg6Z4iBUm8fqL+7CL4WYf0Y3enkUDPFZ0kWbqkpsCBsc91YB+SGJ7jln4PP2sL7e7GYjsPcRMBHCRpFIOYWFH6LFShh58MGcfdZZfPnVV7z//nvUh4J43T1JSt4PrzfXKianG+FGe8JUNcDmzS+g6+WsX7uWbt267f1l2zPYIQKNMhAuuPAipk17lVkfJzJ6P1GNq2v+wDscElPfiXL55ZX0H30DiZkH2qmOO3mxBGcD1cXSj67GDJcx97TujEhzEO1CvJUdQSNsI4cKX5VpnDijgLCp0bv3lTiccbZ8t/0j3X4QEK+v4qegYCbV1T+Qnp7BzPffJz4+nhtuuomFCxdQXVWFy5NCWtpYAr590I1Qo9IkFcVLecVXlJbO44XnXuTiiy5qP+u2Z/I7BHZrIPz888/sO2I/DtwfPvs4Hi0kjIOuaSDIisSsLzROObWM3BEXk7HPCRhCMMluv0fANFFcPlbOu53q4h+555BU/jIiDj0sPE82WAIBt0vh47wQF35YRFj207PnJSiKq9mxXRtVG4EWR0CSUETmQd06igpnISsRLrjwYh77979Zu3Ytr73xBi+9NIXy8nJcrnSSk0cTF9ffeoZ3yVGQQNfq2bjhOc4+5yym/Wdqi0/d7rBlENilgSAkla+cNIkpU15m9ofxjDrEQay+63EPfoFasH2/Xa4z5qhicgadSs6wi9HDIg5nt98ioHoTWbvoYUo3fcGFgxN4fmwqwaB4brqmYbljT4KE3yPz5Ioabl5YhqH46NX7ciy98i4cgrHfpPaHgJBJFiGwvLy3iEQKGDBgIC9PeYn99tuPzVu2cNfdd/PJJx9RUlyCP9CbtLSjcTpTMM0o4gzZURPZDCLMkJrqZdOGTSiK0v4Wbs+IXRoIZWVlHHLYEShsYOGXSbisrLQukpq2k4fjx41w4EHFZPWdSJ8D/0ysvsJ+jLYjIFTYHN4UNv0glBJnMjrTxUenZCJFDds02MlT4vMqPPlDDTfOL8Xt7Uav3lcQ02ptbov9VrUrBMTHkdAxKK9YRGnxF6SkpXDL32/lumuuQajrbtiwgYcefphXX32NWEzD5+9Devp4HI4AmpUe+XvXociaqKj4lrLS+Xz00UeMHzeuXa3XnkwDArs0EAQpZcyRY5k0ycnD93uJWuGFrt02F8HgIaWk9z6M/qNvJhos7dqA/Gb1qieR/DXT2fj9FIane5lzWhZO3aCT1GBqlX0WX1hOj8L1X1TywopKPL7uZOecA2i2I6FVELc7bS4CJiYO1U9d3XoKCz/BMOu45KKLueOOO8jKzLS8BfPmzePe+++3OAqS5CEl9RDi44ZaoUXT+K9ujPAgGEaYjZue4fDDDmP2p5/aoknN3ZhWvG+XBsIZZ53N22/OYPmSBPr0Um0SFZBfbtKvfwWpPUcy6NDbiQRLWnF7OkbXDZ6DZMs42LxsKn4VllycTYYk7dTF2DFW1nazdAUcXPNpCc+vrCIuYQA9epxPNFZuR2XabgvskRqJgDjchTz6tm1vEqrfRp99+vH+jBm/SieHQiE+/Ww2115/HXn5m3E70snMOsFSadR04R1r8CY4HUls3PQsslzFT6tX29kMjcS/LS/bqYFQWlpKj169GTrEZNH8eMK1hv1FA5TVSvTsXU5y9giGHHkvkbqittyv9jeWJFQCE8hf8y4bl77IgEQ300/JJMcpoemmzUls5I6JUG3UKXPhhyV8srmWhORhZGYci2FGbCOhkRjal7UdAsJIENyE0tIvqKhYRGpqCnfecScXXXghLpfLmsi2vDwe/te/eO21V6msqCIxaX+Sk0chCzKuHkWWPZSVzaWq6lvef28mEydMaLsF2CM1CoGdGgivvvYa5513Cf/+Py/XXO8lUtN1yYm/RbKiTianVxlJ2cMZeuR9XdpAEJ4Dpz+dDYsfI//nj8U3AT9fkU2WZHZxpkqj3r0/XCS+q3zJDsZNy+fzrXWkpI0iM+M4ojGb59I8RO27WhUByUSVA4QjRWzZ/B+Qopx//oVMeeGF3w27atUqTjntNDZsXIeMm+ycM/H7colqFUQiZWze+B/uuutu/nH77a06XbvzpiOwQwPByl64ahKvTXuJuZ8nMqSvhF12oAHcokqJPn3LGkIMh91OpK4rhhhMZNVtxRQ3LJlMyZavGJnp5tUTMkhTRAqTzVVp+qvYcIeo8lgOnDuziEWFQVLTDyE19Uh0zRZSai6m9n2tiYBpkRc1LUhR0cfUBzdxyKGH8sTjjzNk8OBfB66vr+fJp57i0ccfo7iokPi4fUlLH4NQVly37iEOP/wIPp89pzUnavfdDAR2aCBEIhGOOPIo8rct4dvFyQRUUXfB/tEX+G4pgkFDyraTFP/WJUmKiitANFTG8tk3o9WXcXiOn/dOysAMdY3S3814z5p0i0OGqFvhsGl5rCwLk9ntWBIT90fTbM2NJgFpX9ymCDgccRQWfkBlxXIUVWb6O+9w/HHH/W4O+fn5HH/Cifz402piWpQeORdTVbUYTdtCaXHJr+GJNp24PdhOEdihgVBXV0ev3vswfL86PpoRRzTYtVMbf4veqg0mI0eWkNX3GPoceHWXSXMUXiXV5ccwdbateoOi9Z+iR+u5a3QyN42IQ4sZGPZj0mI/NaoM26ImJ84oYm11tKG4U+IBDcWdbGZHi+Fsd9SSCEgoipvaunUU5L9DXHw8f7r8Cm679VZ8Pt+vA4nz5c233uKGG28gVB9DdXiIaXXM2IFB0ZKzs/tqOgI7NBC+WrSIQw87ggfvD3DNlR70qM0/sNy/ksIX38Y49tgSegw9i+zB56KHq5uOege6Q+Q/S7KKpLqoKFjMpmUvEq4tZmCymyePSmVUNw+hOs32MLXCnjpVicKIyZi38tkaNMjOOR2fL9eu29AKWNtdthACkgg5eNC1WrZtfZOYVs7JJ53Mk088QVpa2u8GycvL44orr2TOnNmW0XvFFVfw5OOPt9BE7G5aAoEdGgj/uONO7rn7ARYtiGf4UBU9ZocXBNgOh8q06SEuu6ySfUZeS0r30Zh6pCX2oV32oXoSMKL1FG2eQ+HaTwjXFaFictfBiVw8LI6AKTIVbLdBa26eqkhsChoc+VY+5RGT7jkn4/f3Q9frbU9CawJv971HCFipkEBh4cfU1q5i2LARvP7qq/Tr1+93/dbW1vL2O+9wy623kpmRwZLvvrNVFfcI+Za9eYcGwqGHH8FPP37D1nXJyJg26Ww75t4khRv+UsfjTwYZMvYBfH4hDtKyG7K3e5MVJ8gS0XA1pZvnUbj+U6L15XQPqEzoGeCm/ePoFecgJCS37boKbbJdTpfCdyVhTnqviBrdQY+e51tStkJoxt6ENtkCe5DmICBJOJQ4iks/o7zsazIzM3lm8mQmjB+Pqoqif/9tS77/nrvvuYdnnn6arKys5oxm39MKCPzBQAjW15OWns6wwQZffplIuErvdIdgc3H0JqsccXg5X31tsv/xzyJvt5Kb21/7uc9EUt04PUlUFS4l78e3qSxeZTHnUzxObj0wnnOGxhMwTWLRrlusa2/ul+qQWFWpcdib+cQMocVxIU5XKqYR25vTsse2EdgtAqrqJRjcQt7Wt3B7FO67736uveaaP9wnBJacTqftQdgtom13wR8MBKGp3W/AIE4/2cG01+IJV3ZO/oFIJ5MVkGUJZANTlneJuqzKLFwQ5pjjK/Gn7Uv/g/+OoYkvuA7cZBVFdaLF6qksXELxpvnUlKzCIRkckunh7IEBTuvlweNSiIR1u57CXt5qp1vh/U0hzp5ZiMMZIKfH2TgcCXYFyL28L+1peJE2KOrlCI2S9tNMFMVDOFxEQf4HxLQKbvjLDdx37704HI72M017Jn9A4A8GwqJFixh9yBhuvN7Ngw/5O4WBIOJhTjcovv/xiesmoSqT6jqTikqIxQxqak3k7SmdsiwTiuiUl8Mnn0WZOjUsAi4ceMLLyKoTU++gX28SOHxp6KEqtv34Jtt+fA/T1JElmeP6BHjg4AT6Z7iI1epE7EIK7eZnwzQlnB6ZBXlhJkzPR1Ed9NnnaiuXvH0dCO0Gsi41EfE7p2m1qGocIuVQ/LdhRv9QKGlvgdKgvuhkw4YnrLmNGzeBDz/4APE7a7f2icAfDIQPZs7kpBNP46H/83H9DR7CVe3JEt09iA6nOP0kZEkiFNLZvA02bdLYuMHg5zU6hUU6FZUm5RUxamugrt4kHDKJxkyE0f3HVL0Gl7okK/gSe9BjyDkkpg9HjwmSWEdqkpWmqMXC1Jb/SPHGOVQVryQWqWVgsouz+8ZxbF8v/QOqVbAzpnWsfe9IO7FHczXB7VN4fmUdf55TjMuTTE7O2SiKF9P8bzGcPRrDvrlDImAYMTZtfB5JlnG5Mwj4e+P19sbpTLYKIen63vd4NtRxkCkq+ICa2p8tnYRXX30Vn9fbITHv7JP+g4Ewddo0LrrwUl59OcAZpzoJ1bdvFp4ki/RDCUcA6kMy1eUxZs/RmPVpjHkLYpSV6FYKnqo6rfhWJBoBScMbl23VEFAdPhzueFSHF2QHivjfX9xzpniWVcud643rRiBlgHWgmlZooWMw9ESaouL0WuGBog2fkf/TdEK1xXhUmdwkD7cdEM9pA3yYMdMylmS5fe93Z38hG7M+4Unw+GVeWFHH9XOLwRFHbp9JYAq+kG3YNQbDzniNpVGydRqxWJUVOtU04eGU8PmySUg8gLjAQCv8YBiRvVtETTJQlTjy8t6grnY9vXr35utFi0hJTu6M29Kh1/QHA+GZZ5/lmj9fy7vvJjD+MOX/s3ce4FFU6xv/zcz23SSbTkInFKkCAqIgICA2UEDs7doL2HvHgr33Cgg2sAGCdFAEAUGU3gPpCaQnm91sm/9zTuD+9QIaICQB5twncgMzc855z+zON995v/fFL0lp9a0pWJwKiqawKy/E3AVBZs70s2GDn7Q0nTKPjs1qoXWbNpzUtSsd2rflhLZtSYiPZ/ynn/LeBx9gscXS+pS7cSd2JugrRjxID9SESJAIGoTByNHSNKsLwS4tLdhE3rY5FO9eh99TQLzDzGWtXVzczkUnt0lEV4QCYYNfcLQs7N5x6mC2a7z0ewlPLN6N3ZlAkyZXyPtY3q9GO/4QEC8Dqo1du+ZSWLAcVdWwOuNl1tDvLcZsjsLpakqUuwsOeyMZTIpgoU6aMHnTnOTlzqaw8DfOPPNMZkyfblg+18liHLjTfQKEN958k3vvuYcZP8bQt4dGsJ5oICiqgvyxKOwuCPP7igCff+lj6jQ/waBOVKSbBskJdO/ejTMHDaL/6afLspr9tVdfe41nxjxDWWkFTU+8iqSW5xAOetHDRzchU9HEA1/sRwcpzFxOzrYZlO7eitOs0CzSxtUdXNzYNgKnQ6OyIkjIeI7Us4/jwQ1HZBKckRqP/1LIyysKMTsa0KzZtYTDfiOTcHBQHjNH6+iYTZEUFi4jL28+FpubFl2uI1BZTNbm6dKePhSqxBnRgrjYU3A6mhLWBamx9renhKWb2RRBVta3crvh4gsvZNzYsYbccj26G/cJEF586SUpjTlnTjQnn6gRruOniCDOmSNV9GBYEgU/+NDHmjUBcnJ0NLNGjx49uOyyS+lz2mlSaCMmJuZf4Q2FQqxYuZIbb7qJdWvXEJXYidYn347VkUDAW/SP2YR/vXgdHKCaHWgmK6W718ugoDhvvdQuiLCYuKiVi6s6uOgYb8UWRlowh403zDpYpSPVpYLZqnD3okLe/7MIZ0QjmjS5ilDYK+p0jlSnxnXrMwKiMEux4vVmkpExWY60cbvhpHS7lfyMX8neOoPCzF+BEGZzDLGxpxAV1VkSlcO6r3ZJjWJ72BRBWtpn6HoOs2fN5tRTTqnP6B5XY9snQHjhxRd57NFHmTs3hh4dVcJ1xGLXLCqCcLhhW4hp3/uZ9I2XtWuDuKOiaNepLWcMGMgFw4bRoUOHQ05L7dq1izvuuouZP/5IaWkZzbtcQ1LLs2RqPhyso9RbNW8/IWgUVhTCgQqpXZC3cz7FeetwmDTaxVg5r5WLK1s7aBhtIegN4Q+K3QQjZVBNeI+qw6RNtEvjhjn5jF9XTIS7PY0bX0QgWCbvZaMdnwgIXwS/v4iszG/xVuSS1HIQLbrfgs2VzNp591OQuZjIKDclRUXYbA2IjeuFy9VSgiWyULXFsxLbYuXlm8nNncEP06ZLISWj1Q8E9gkQXnn1VR568EFmzoqhV1eNUC2y2XVdsG9FOaLK4p/9PPGUh1Wr/JSWKsTERXLDDTdww3XXya0Du91+yIHBX6EPBAL88ssvDBsxAk9ZOSZLFC173Ep80774y3ftSb3VE0KirqNZnJhskZTkriZr8/cUZv8pKypEqZDIFjzQNYqUBDNaZZigrhj70fXjc3bkR6HrmO0mBn+fy4IMD1HuVjRqdCmBYKmRSTjy6NfbHvaWFqZnfEV5yVYiE9rR+cxXKMz4lQ2/PMtbb79NUWEhz7/wAhUV5VjM0SQln4/L1Qp/oLCWAkyFioqdcqthwqcTufyyy+otnsfbwPYJEIRn91133sUP092c3tMsXfqOZBPvNyaTgmJSyC/SmT3Xz4QJPpYsCWCx2unTtxcXXXghg889l/j4+CM2lKKiIl56+WXGjh8rbUejk7qR3OY8ImJPkIFIOOA9Yn3/24VVk02WBvl9hRRmrSA/YzFl+ZulDPbJiTYGp7gY3tJOsygT4YBOZcDIFvwbpsfivyuiwteuMWxKHrN2lJKQ2Jf4hP4EQyKTcCzO2JhTdRCQhmuKiby8WdKKWRAX25xyF5sWP8+pPbuwYP581q9fz3vvf8DEzz7F46kkIqItcXG9sVjctVAeqeDzZZGe9iXvvfc+N914Y3WmZRxTCwjsEyB8MnYsN914C99MjmDwGVYqK49cgKCHVZzxOn6fymuvV/D8Cx5KSnTMVpURI0ZIZ6/o6OgayRRUF0sh93n5FVfww/TpBAN+nFGN5N5dTMOT8VcUoQe9kvl/xJvIFlidmO3RFGX/Tvr6LynK/nMPkdLMBa2dPNfTTUqSBb08iKf2OUZHHAKjg4NHQA/rBG0aTd5PpyIYoEHyGcRE9yQU9tTu3vLBD90440gioAjyYiwFBb+Qkz0Ts9WF3RVPRWkW27ZsoWnTprL3Xbt3M2z4Bfz22zJCoSCJDQYRF3uaLJ08ck2h0r+btB2f8uJLL3Pv3Xcfua6MKx8UAvsECMJZ6+KLL+f9t1xcf50db1nNMvsF81ozK2gWha2pIcaP9/Htdz7S0sO0btOaSy+9mAtHjKDtCScc1ERq8mBRJrZ4yRImTJzI9999R1FRAc7oVsQ16kl0w5NxRAgzEVEeKL50a/bVTGwhiFZRlkVBxmIKslZRUbxDuiie1tDG0JYuBjWz09ypEQrr+IM1239N4mhcq24QUDWFEkXhjC+z2FQckDbRYm85FKq7LFjdIGH0+ncEqiSPPZ6dZGdOJUy5VDYUnDPxs7d5PB6mz5ghK702btiEzd6QxMSB2GzJe1xEaxpXhUCgkB07xjL6iSd5/LHHaroD43qHiMA+AcKChQsZ0P8sHnnQyZPPOGpWallRsUQo5OSEefWVCj74uIJAwERy40QeuPc+rr3mGsktqE8tNzeXRx97jGk/TKMwvwAhRhKV0J7EFgOJTj4Ziy2KoL8CwsGq/f5DEKqRKUCTDVUzUZS9kqwtUynKXoNJhUiLifNaRnBf5whOaGAj6Avh9esG4bA+3ST1cCyaorOqLMwgYe6ESkrLkfJhIJjqRjueERBiaLY9D+RxKEqIk07qxrw5c3C5XH8Dptzj4a677uKLr77AV+EnoUF/YmNOIRiq6RcjhUCwRKpA3nvvfbz4/AvH8wLVq7nvEyBs2LiRDp26cNWlFj4ZJ8yaDjd3LfQLhPa/yvbtYV582cPs2ZXk7dbp0b07t99+G/3795ciRvW5paWns2zZMiZNnszsWbPwVXoxmaOwOhOIiE2RpZIud4rc31NVwd2oQP+XSgjNGikDirLCLezeuUBWIXhLs6XK4RlNHVzc2knPxg6SzFUS0KJE0WgGAtVFwGZVmZvh46LpOejmeJo1v4awqHev4axXdcdjHFd/EBDfUUKaOTNzMgF/HmeffTbvv/8+DRIT/zbIYDDIokWLeOChh1i1aiUOR3OSkgZLr4dQuKLGtq2CwXJ27PiAO26/i1dfeaX+AHWcj2SfAKG0tJSkhg3p3CnML4tiZAZBiG8cSlM0FdWikJ4V5qMPvLz5jgcFC526dOC2kaO49JJL9vEFP5R+avuc3fn5TP76a3744Qe2bdtKXm4eIi2namZcMS2IjOuAO6EDjujmUsoZKcCkV2UYBH9BNREOVlCQuYy87XMpzd8ig4ImkRZJOLy2rYvWCVZC3hC+gJEtqO31PVb6E7eb3alx/6Ii3vi9gKiYDjRKHl71Bmi04x4B+VWk2sjK+o7y8q2ceGJnvpk8iebNm++DjSBx3zpqFDNmTMfjKaNho4uIcLWRehs1EXCK7a/U1He58Yabee/dd4/7takvAOwTIIiB9es/gD/+WELmthjMmk7ooJIIimRMW90a+bt17nuwjLlzfOQXImWPn312DN1OOomoqKj6gsEhj0NE17t37yYnN5fly5czZ+4cFi78ifLyMvmZMZlcmKyRuGKaEhnfnqj49vjKc8neOh1PUTp+bxFRNjNDWzi5tn0E7RKtOHWdkDSNOrSg7JAnY5x4bCKgK+BQufHHXUzaWkp8wqnEJwwkFCyvtTr3YxPYY2RWioKmWtmdv4j83b/QvFkLxo8fz2m9e+8zQVESPuPHH7nq6qup8PiIjGpDUtL5hMO+wy6n/v8A4Sbee/e9YwTco38a+3Wu4YIAACAASURBVA0Q3nzrLe68416mfBvJGf0thKtV6qigmkVICqnpYb743Mcbb3oJhkx0OakzN99wA1dddVWtViTUxfKUl5dLlcYlS5awYsUK0tLTyEjPoLioSGIjWOaibNJqMjOqYwQ3nBhBYowZZ6WwVhYjVhAayCFdZBzqYgYH3+femg5V+WuBh/hlz7XkPPZMRpfTk+0omd7BA1LPzhDOpmUmhTMnZbG+METjJhfjdDathfK1egaEMZwDImAyRVBY9Jv0RhA6M+PHjaNf3777zfBu3bqVW0aOZOHCBdgdTWiYPAxVs6IfhrhSKBxg5463uPjiy/hswkRjpeoJAvsNEESpS9OmLTh3sMKkCZH4yv+Z2CQEjhzRCsXFYe6+18OUKV7KPApNmzbmnbffltHo/xJg6sn8j+gwRMQtyibFzx9//okIvH766SdE5kE8HB16GKum4LKZ6Jpg4aQEC13jLHSMNtMgQgOLVvUY9YssTpjKkNBMV+rkwaoqOpogmWrCJAt0kwKaiiKiGBH0iKyHP4w3BN5gWPwVvj2RgFlVMKtg0xQcQvNC/CKmpgolhzCKsNoOgT8YlpUZ4aPEKfOI3jw1fHFNVcjzh+kwIYPKsELzFtdiMkUaYVoN43zUXk7RURU7fn8eO3dOxGYz8fSTT3PXXXfud0oVFRWSvP3W22+CbqNJ04uw25sguASH0vYGCJdcfBkTjQDhUCA8IufsN0CorKyU2ww7U1eydGkMCRFCkW9fPQTxJqzZVHJ2hZk4wctb73gpLTPRq1dPLr/8cq64/HJpsWy0/0dAbEds2rSJzZs3s3HjRralppKelkF2VhbFxUWEdQWHRaWhQ6WxU6ORy0zjCBMtojQSI0zEOjTcFpVok4JLU7CIrITY1ZE/QntfVFLseT8Xfyn/7/+8q+/VcZDSy3vf9BVE6KGKh72u4AvreIJhSkI6JUEo9oYo8YbI9YTI8YTYXRGmuDJEUWWYkkCYMr84XqcypMsgQQQIfrFXIoSwVEX+WDWwa0jzqEiLSoxFJdaqkuA00dCl0UjMz6kRa9eIMasIs0m7pqDLOYr/VKUfxPaLUd158J8qi1Vj2s4KrpqRi2qNp3mLG/ekh4+c1snBj9I4oy4REPLMPl8uWZnfEwyVcPddd0tvnshIEUz+vQlO1bvvvc/oJ0dTVFRCYuIA3O6T9vASDm4WRoBwcHjV1tH7DRBE5yI6fPbZF3njpQhuGWXDVyJS41VfJOIt1mQCa7TGFxN93HZHKcUlEB0TyYRPP+Wcs88+5rcSamqB9lrzij9/X7WKxYsX89uKFfzxxx+kpqbKB6EwqpJv6fLJL4iOKqqmEu/USBZBhFOjoVOjgUMj3qoRa9OItIiHsCLf2kWW4q8WwL6Qgj8cpjQQoqRSp6hSJ88nHv5BMit0sjxBskUQUB5CF+UTewKMqjBDVKWo8qFtEtkEkNmhuLg43G43sbGx0jBL0zT5u+hXEDj9fj+FhUUUFOQjCE/CB0O8hYgkgx4SGQRx9b/kDhQVl0OlTZSZ9jFmOsZY6BRjobXbROMIFUVEGooisw8ic+ELhQmEFKP88x9uTPG5tdkVRi8t5vnfCrA742jR4lbp2WAYO9XUJ/rov45QXRRbDtu2vU0gkMvw4Rcx+auvDjixrKwsTu3dm4yMncTG9qJBg3OkTHPVt0P1Wijsl1sMl116FZ+OH1+9k4yjjjgCBwwQBFO/T79+pO3YyqMPO7ljlB2z4BgoOkVFOtNn+vn4Yy/LlwdpkdKMm2++gWuvvY6Y6OgjPujjpYP8/HxycnIQa5GXl4f4IApdhqycHAryC9mVt4uSkiJKSkoQ3IdwuCq1X5VAqPpwSqZyFW/0v03KNfz/b/JjLI4TfzocDmJiYomOjiE+IU4+7BMS4uW6NmnSRJJLRRAg3iii3W75pzjHarVKP4jqNDFOr8+Hp7ycwsJCioqLJdlTBA5paWnk5uWRnZ1DVlY2u/Jy5dz9gaptGZumEm1VSLApxNs1EhxmWkSZaOo2yQxEI4dGsk0ERxoh0554SnA6QhAwiJ9yjYWx07WzdvPp+hLiE3uRkDCIYLC0OktnHHOcICC0WcTnLSdnOuVlmznjjEGM++QTyU/YXxPl8bffcbvkJURGtCc5+XzCeqDauhvCbnrHjncZMmQI3379zXGCcv2f5gEDBDH0zMxM+p8xkK2bd9CoocaZZ1rweELMmhOgpCiMOzqSYcOH8fKLL0pJZKPVDQKV4u28oEA+ZAuLxFt6gXw7LystxeP14vP5/p7R0XX5dm82mXBHR8uHvAgEkpOSiI6JweWsUnOsL01wYgQxauOmTaxevVpuz2zZsgWP10dlpZ+At5JAoFIGSDoqkTaNVtEmOsRY6BprpkO0mdYxJpwus6R1WESgILZDwnsKePckZo4X0qQgygasGq0/yaTI56Nh42FERrYjHKrfDqb15X48nsZhMbvJzPqGkuK1NG7ShPlz55KSkrJfCIpLShg2fDhLlixG06Jo3vxaKSxXHdKUEPDasfM9zj7rTKZ+P+V4grhez/UfAwQx8p07d/Lx2LFM+mqyfLuz2ax06NiJ8847l8HnDqZD+/b1eoLG4I49BMS2hQh6RDAkqkPEnyLLsGXrVnbs3Mm2rdvZvn0bOdnZcgtDvDVHmhVirMoezoOZtjFmWsaYaBNloWWESpLDRFhkyEQLhPGHkITJY7Vpmko+MOCLDHaUhWnW/Eqs1gZ7bH6P1Vkb8zpoBCQX2U5R0Qp25S2gcZNGfDpuHH369NnvpcR24tNjxvDqa6+hqVE0bXq51FoI65X/KKpkBAgHvTK1csK/Bgh/HUVmVhYRLtcxoWFQK+gandQZAiKbIDJgmzZv5s/VqyUhVGQd8guLKC0qpaysFJ/XK7MOFrNKSpSZTjEmOsZa6BRnISXaRITTTKSq49AhIBkS4j+CJFmtl6I6m3t1O7ZoKnNyfFw0LQfdFEGLlOslv0XyToxmILAHAZFnM2suikv+IDd3rpRn/urLL7lg+PD9YiQC+CdGj+aNN9+g3FNO82Y3Yra40cPiU7T/ZgQI9fN2O6gAoX5OwRiVgUD1EBDVOYKrIdRCy8rKJAl09dq1/PnnatatW0dGejr+YAhVV4gwh4kQ1RZWE22iTXRuYKNLjIXOMWaSIzTConwkqBPyi/LTozPTIEZtt6lM3uzh6jl52OzJNGv2H0JhX/UANY46rhBQVSs+XzZpOz8jyh3BI488yj133XVADMaOG8fNt9yMrpul9obNliSrZvbyo/56YlWA8C7nnH0WU74zthjqy41lBAj1ZSWMcdQpAuKtJzs7m/UbNrB+/XpZiro9NZXc3F3szttFUVEhwVAIm0mTJaeC19Ax1kqXBAtJ0WYSbSqxKoTVPToVghi5l+NQpzP7l8514ZOicef8Aj5cU0R0XBeSkoYQChpyzPV52epkbFIrQRg9FZGR8RW67uHJ0U9y7z33HFAyX3jX3HnnHezOL6Jx40twOBoR2g/X5b9ljpdczsRPJ9TJ9IxO90XACBCMu8JAYD8IiIBBlGYKroPIPAj+zZJff+XXpctYtmyplNcW5llmXcemiR+N5jFmeifZ6J1kpVeChbgoE7qmQGWVA2f9pTQoqHaNEVNymJ1WTkLiacTF9SMkPRuqX6pm3EjHBwKywkEPk5r6HqoaYtjQYYwbOxabzbZfAGbNns2Q886TljQNG51PRMQJBEMVfyuDNAKE+nnvGAFC/VwXY1T1GIFQKCS3J7Zt3y4rK0TGYXvqDnZsFxmHHPyBEC6LSssojfZuMx3jrXRMsNAsykQTq4bZLDgMCnpQrzell8JavFhXGDA5i60lOo2aXojT0cyQY67H92FdDk1RTYhAITN9Ml5fGheOuIg3Xn+N+AO48i5YuJCrr76a3Nx8kpKHEBHRhlCo4r8BqCGUVJereeC+jQChfq6LMaqjEAGRdUjPyGDmzJnMnjOH+fPny1LMcECqQcl38QZRFgY1sjO0mZ1+jaxEuS2iXILKiqCsnKjLpqoKuX6dVmPTQAmR0upWTJq9xix963JuRt81j4AQRTebo8hI+wyPJ5WOnTqzcP48WUK9vybk5k/u2ZOg319VWhvRgWBYOPwqGAFCza9PTVzRCBBqAkXjGgYC+0FAECJFwHD//fczc9YcBp5uJjMrxOYtQemQ6raptIg0cUKMhZOTrJyYaKVDpJlIuyIrJkJ+nWAt70tYrCrT0rxcPT0HxRpHi5SbCIX81Ra8MW6EmkRAkRbyoqpECAnVy6aoaKqFvNw5FBatpFev3nz4/vu0bdt2v8NdtmwZIy66iLzcApKSziEisq3MJITDQijJMGuqb2tsBAj1bUWM8RxTCIi3pgEDzqBxw3L+WJ2IEgyydWuYeQv9zJzt5/eVAcrKgvh8OsEg0rhrUBMbw5rZ6dvEjjvCjD0YxicMrcT/jnDBhJBjtttVRi8v5sXlBVgcsbJMLaTvn31+TC1WPZqMopjJyp4kszfx8QOx2xsgLJHFW3t1hIdqdSqKjsUcTW7eHAryF9O2bTvmzJpNcnLyfochhM569+lDwe7dNGp8gQwSKv0F7Eh9jxtvMOyea3Xt/qUzI0CoT6thjOWYQ2DYBRcw5ftpfPm5m2HnmAkFdVRLFfFP0xRKPDqZWTpbNwdZ8qufX5cGWbsuSKU3hNuu0tRlon2cjf7NbJyeaKOxID4q4PeFCIaPjPdElRyziVvm5svKhtj4HiQlDSYQLKl/D6dj7o4RExIrEGbHjrEEAiXS18RiScTt7kxkRDs0k4NgqLx+rYUUVLJRKAWV5tCiRSvpqXDqKafsd4WW//YbZ59zDmWlFTRIOguHM4VtW1/h5ptulQ7ARqsfCBgBQv1YB2MUxyACn33+OVdfcy1nD7Iw5buovxme/XW6wgfD6lCQnthCvTQ1xIKfg8z4sZL1awPszg9SXq4jiGH9GloY1sxJv2Y2qcdgC4Pw8hLyyTWZXJBVHGaNUz/PYluJl6Tks3FHdzXkmGvpPlVU4aku5O6/wetNk1LpoWAIiyUCd3QP3O4TUVWL3PoRP/WiKTomLYqi4t/IzZlF48aNmTVzJie0abP/TMKWLZwx6AwyM7JokHwm+bvncv11N/DuO+/Ui+kYgxDWS3+1+TMQMRAwEKgRBEQZZN/TT6eibAdLFseQEAXh6ggqCXMt6ZKpoFp0SsoVduWHeet1Lx9+4kXTpD4T0SZo6DRxRnMHl7V00CnJhqrreL2hGgsUBGmxwqJy+mcZbCoK0qTZpTgcTY3Khhq5Q6pxEeHaqpjJz/9F/pjNVumOGgz60VQXEZEpxMaeis3WgECgrMqZrB40TbPi8eyQwU1MXAxffvY5A/r33+/IVqxcSZ++fQkGAyiKxh133M5LL7xQD2ZhDEHmsowAwbgRDARqHgEhNfv0U8/xxOMOHrnfTqWUFDj4L3BV1cgrCXHmWcXkF7r45uuvpSbDnLlzWfXnanZuTyUUDNA9wcrwFAenpzho5dCkFbcwohBaDYfaBN/BYlJZmu9n6JRsfNho1vw/aCYnuihqN9qRR0ARtuqRFBf/Tl7OHHQlgCs6BUW1Upa/WVBZiYxqT0xMTyyWWBkkhP9B0vjID1j0oEu76LKyjWRlfk9MXDSfT/yMgQMG/N00bs9ghCjZmWefLZ1r77rzTl54/vnaGabRy78iYAQI/wqRcYCBwMEhIASVBg48g9atYNlSN2HvoRHL9DBoTk0GB0uWBpjx4w+cNWiQHIzQYhBVEoLw9e4HH/Ddt99S7vHiVMI0jrRweVsnV7Zy0ijeiu4PycxC+BBFj6w2lcVZlZz1XTaaJZoWKTdXSeYardYQEDLH4XCl5CUEA6UktxlCUqtz2fzry5Tu3oSqmnG4kkhIOBOHowmBgLDvPvTgsCYmJsYsVBd37hhPRKSdrydNYsCAAfu9tKhu6NOvH489+qj8MVr9QMAIEOrHOhijOEYQEMqLgny1csUSZk53072rmWDlob1tmx0ak7+t5PobSxk6dLgkfVmt1v0iJWSi586bx6w5s1m2dDnpaWnYTSpd44W6o53eTW20j7aQZFUJqYokLgSqm10QcswOjaeXFvPc8nwiolrSuNFFhMKGPXTt3ba65ByEQj6ys6dRXpZKbONTOOGUuykvSiVz4/eU5K6WlQ4RkScQG3syNpuoIqjLjIKOqtnxVqSTmfEtkZE23nrrLS65+GJUtYpv89e2aNEili5fzgP33Vd7sBo9/SMCRoBg3CAGAjWIwNRp0xg2fATnDbby7SQX3tJDqzTQ0fD6wyQ0LMBsVdmdl1ttF1WRXRDKdW+8+SZz5swhIISawiEUVaFXQzuXtHQyrLmdpDizyFAT8oWoEMSGf2q6giPKxDUz8vhsQ7H0bGiYPBR/oPRvkrk1CKVxqQMgYLFEk575JSWF69BMNk4a/B7OmFaU7VrP9pXvUpSzWhZCOF2NaZA0BLstmUCguM7wVDWbzHqkbv8Qp8vGvLlz6d6tW52Nx+i4+ggYAUL1sTKONBD4RwS2bttGj54nE+Ws4NclMbgdorrgEKyTdQWTU+HaG8r49rsw48d/It+6DqVlZWWxes0ali5bxtJly/lz1R8UFRdh11RSIlXauC30TLbSIcFKhygzcXZV+kcoIsMg3Cr/EjeoKPhNMPj7XJbn+mmQPAi3uyuhcIWhtngoi3Oo5yiKLCksKlpBXu58TJYIWp9yBzHJJxMKePAU7yB78w8UZC4TNyCuyFaSzGi3N6zSUhB7V7XaRPbDhtebSVZmVSbh448/Zuj559fqKIzODh4BI0A4eMyMMwwE9ovA9TfewLhPJjDukwguu8xGZan4Ij74fWCTVSEtI8yJ3YrpclJ35s+Zg91urxHUBW9h7ty5fPf99/z000+UebxUlJVLFrlZ0+jewMqgxjb6JVtpG2/B5jBhC4akfkNAV1AVnUpFpd2nGeR5Kmna7HLs9kb1p9SuRlCq/xcRRa1mzUVp2SZJBAyH/DJISEw5k4C3CJszgZLd60n9/UPKCrbK9XHHdCUxQRAFVcJ64FBuzcMCRtPsVFbuYueOCcTERrL4l19o3arVYV3TOPnIImAECEcWX+PqxwkCv69axemnD6Bly0oWznWjhUA5hKoFoWRosiuc2qeIdRsEyXEJXbt0OSIolpSUkJGZSXp6OsuXL2fZ8t9YuWIFxSWlsuAi3q7QwK7RLNJM1yQLJ8ZZ6eA209Rt4ndPkCGfZ1EUtNIi5QbJqtfrnD1/RGCq1xcVJYU+3y7S0z+XlSUNWp5Jiy7XEfSVopqs6IpKecFm0td9RfGudZjNEUTHdCYm5hRJbBSchtprIpNglZmEjIzJJCTE8PXkr+l16qm1NwSjp4NCwAgQDgou4+DjGQFRgy7298WfIi+gKgomk4nS0lJatWlNhaeY35e7aZykEv63Pf0DACm0B36YG+CSS4u56eYbee/d2hWNERmGVatWsfDnn2XQsGPnTgoLiikuKiTgD6BpKq2iTfRNtpPuCTJrh0f6BaSkjERVTVJT32i1iIBSRV4UwUFa2kS8nhwapAykdc87ZZAgMgeqZkWzOMlNnUP6ukn4ynKx2eNIbCAqHpqhEzi0rbBDnKamOSkr3yiJix06dmTenDkkHMAF8hC7ME6rIQSMAKGGgDQuc2whkJuby6bNm9myZQuZmZlk5+Swe9cuyj0egoGADBAsFgsx0dGUlpUyZ/ZCHrrfxjNPu6goPrStBaGh7IjTGHpeEQsXWZg3bxY9uveoM2BFMFRcXExxSQl5eXmsWLFCssyXL1tORkYGuqqgiU2UcBiT2U1cfD+iItvLcry6r8WvM9jqpGOxbSCYiVmZ31BWup3I+LZ0PP3JKqMnmdlRUU1maQKWt/VH0td/TSjowxXRnMTEs7BaYwgGpVhHrYxf02wUFf9Bbs6PtG/fiZ8XLiAmJqZW+jY6qT4CRoBQfayMI49BBDwej3zYCdfF3377jT/+WM3adevISE/H7w9KcyRRWWi3gaABmM1Cc16RokfCkbHSD2Vl4HLp/LY8lljHoQkiCWhNZoVyHzRvU0i7dl1ZvGiRzFDUtyYCh507d/Ln6tWsW7+eP//4gxUrV5CTnYPd0UgS4sSbqZAHDof99W34x+54FBWT5iI7ewpFhauIjGvLCb3vxySErUKiJLXq4W92xOIp3snOP8dRlLtarlNCQl+i3F1kRUptBXdms5ucnOkUF6/g/vse4NkxY47dtTlKZ2YECEfpwhnDPjwExMNtwsSJfPvtt5SWeqgoryAQqEQV7P4WGj26mejU0cwJrTVaNNOIjQfNriLKt+XXrCIJ4oTCULpb+CSEaZhkIhQ4NM0DGSDYNF561cPjT3mYNvV7Bp977uFNspbODgaDMsPw0ssv89HHH+PzeRGlePEJA4mK6kAo6CGs+41Kh9pYD6G8qLrYnf8zu/IWYnMm0umM5zFb3YT9IkOwp4lKCFsUpbmr2bz0FSoFsdGeQOPGF2KxxBEMlYK+r1ZBjU5BbI8oVlJT30VV/SxcsJCTe9RdxqxG53aMXMwIEI6RhTSm8c8ICEKecJATYkJz58xnw8b1iPRA82YKbduY6HmymU5dTLRto9GogQpCqnivt3JIRw8pMhiQpkh7/l68eamqjmpSEYZLld6w/PNQm9mm0uO0IvLyYsjMSJMufkdTE7isWbNGBglTp00hJzsXq60hMbHdcDlboaiqZNsb7QgjIJ0VnRQWLmVX3gJM1kjanHIPUfHtCPnL/7KNoEtuQjDgJWPdV+TtWEA45CMuoS+xMaegE0I/wpwSRTVLjYSdOz9hyOBzpCKo0eoPAkaAUH/WwhjJEUBAkO4+/OgjXn7lFXJz8iWZyxWhcdmlVm663kaX7paqXivCeEU5v9ylrZvmDWs0alZAz5N78dPCeXUziBrqdebMmQwZOoyQX2RUgpitdpKSh+KO6ow/UGh4OdQQzv90GeGH4PFsJT3tK7l10HHgs0TGtiXgK/o710DXsbgSpCLjn7PvIhTwYbI5aNHsZum7EQ5VHDFuguBOCF2G1NT3uOSSEUwYP74WkDG6qC4CRoBQXaSM444qBObPn89nX3zO7NnzycvNoVlTE4PPNXP22Ta6dtZwR1ZlCIKVIiNQP6ZWqWskNy2gS+duLP31l/oxqEMYheAoXHzppcyfN40JE6P5ab6Xjz72UO7RsTv2ZhRaI4yoQsLTQT+MtMshjO/4OaVK6rjCs1PKMwcD5bTsfgtJLc8l4C38HxhEJsyOqM/JWD+JjPXfYDK7iE/ohdvdHV2v/G/mrCbxUxQTwWA5O3d+xG2jRvLqK6/U5OWNax0mAkaAcJgAGqfXHwQqKyvZsGEDd997L4sWLcZi0mnVSuP22xxccrENh0OV4kXSdvkQNAqO9ExtDoWBQ0pY/EuIb76ZzLnnnFMvSYr/hkNuXh69T+uLOyKdnxbF4LBBcUGIu+6rYMoUL2VlQax2Nwnxg6RvgKjFF+nsQ9CU+rehGP8OiIoBv79AChQFAx5a9riFBilnyTJIsU321ybKIi2OBEp3r2Hjkpeo9OQTFd2Ohg0vkIRT8e812RTFTCCQz860cTzx2BOGUVNNglsD1zIChBoA0bhE3SMwc9Ys3nz7bRYvWkJ5WYXcQrjxJgddOqpYNBU9FKZK9biepAv2A5ngMuwu0enbr5CcXBO3jryJ58Y8e0CDprpHff8jEG6WA/oP4sabzLzyvB2x7a1ZFVRNYcuOEJ9N9PL+BxWUloWw2xsQHdONyMgOUuGvdoV76iuCNT0uQaK1EA55SU/7Ep93F006XULzE/+D37N7v52pJhuBgIcdf3zM7p2/YHMkkJx8HjYp11xeY1kfoeFQIcycsr7k7Tff4eabbqrpyRvXOwwEjADhMMAzTq1bBAKBgLQ7fvKpp5kyZQoup06vU62MedpFh04mAqVBQqGqksSjoQkVRYtdYf3WMJdfVsLW1BCdO3fhww/ep0vnzkfDFOQY773vfl595XXmzo6mZ1dTVbmHjM3EWijYIhXy8kI88riHWbN85OUFpXBPXHwfXK42kgci31Try97PUYP8Pw9UUTVJEt2581P8vkKS255H887XVFU37OcjIrILZkccO1ePJ2vTNEIhD8nJQ4mK6rgnkDv8z5XwaCgrX09O9jQmT/qa4cOGHSNoHxvTMAKEY2Mdj7tZiO2EW0eNZOrU6RTkFzH0fCuPPOqgXRsNJcgeJcPD/wKrdWB1UE0KPhRefMHD8y9UkJgUz8iRt0obXCHOVJ+b3++nUZOmuFwlbFgdTdgnHvb/O2KRTQCzXSUtK8SE8V7eeLuC0pIgFlsMsbGn4HaLgEhUjhhGUDW53iJIULGQlj6eivIsElMG0LrnPQQq8g/YjWoR4l+prPvpSYJ+D+7ojiQlDSEUFoHF4fFHhD9DYdFydu9awM8//WzILtfkYtfAtYwAoQZANC5RewhUVFTw7Xff8eCDD5G/excnnaTxwP0uBp9rIeAJEwwcrAeCgia0iPZUFAoRJD2kE/CLL766q2gQD1V7lMa0GX4ee6yUDRt1Bp05gGeefppuJ51Ue4AfZE9iq2fwkPN58B4bo5+MwF/2z3vWYtvBZFfJyAzx6qteps/wkpYewOaIJyamB5GR7RBEtirxnqMw4DtI/GrncGFBrpCROQlPWToJzfvQsvvt6MHK/8/2/HUguo5qthMMlLFpyUuU7NpIRFRLGjYaIdfkcEohhSvl7vwFFBb+xqYNG2nZsmXtQGD0Ui0EjAChWjAZB9UHBHampTHsguFsWL8Zvy/A2E9cXHSxHS0AoWD1yVPiy9Hm0sFcpVJYUR5m8/owy1YGWLo8wJCzNIZfYMPvqesHkiI1FkSs8shD5bz/oQenK4Kbb7mJp0aPrnfcBKGDcN0NNzDpq4ks+jmKjq1NBCqrh6HgH9hdCkWlOm+/6+HlVyooLw9hfnj9WwAAIABJREFUstiJiztNmgsJn4ewbmQUauKzKD4DQishPWMiZaWpxCR1pv3pYwhWFMhtoP02oa9giWDLslfYtWMRJouL5i2uR2QBdKmYefDZBLHFkJs7lcrKVDLTM4iOjq6J6RnXqCEEjAChhoA0LnPkEBByyO+8+y6vv/EWu3LzuPIqK4887KRpQ43Kch1FOfCbvvwitIkqcPG9p5CZJ2quQ6xbG2TNnwE2bgnJ3/PyBJGrylegXz8L82a78Um75sNv4vtWmDDtdXcUj0w9rFSZPlXj+SlMoRSbxqy5lTz9tIc/VwfoeUpPHnvkYfr3719vth3Kysvp0+90yovXsuTXWJzqweOnaQqqTSMjK0i//sXk5ApzrDAWc6y0K46K7CBZ+SEpHVwN8A5/+Y7ZK4jPg6giyMmZRknReqIbdqNt74dlJuGAWQFFxWxzk7b2M9LWfiE9HJIbDsVmSyIsSlYPMkgQJMWsrEnY7RXkZGXtU1VxzIJ/lEzMCBCOkoU6XoeZlZXF+cOGsur3NcTHwQ9T3HTvYaE8Pyj3sffbdAWhSmiOqHqj2bYhwKRvKpn0tSiDDBIOSy9GzBYTVpsJwWcQfyVEfQYNsvL5py6cVkHoOvgHnNiT1cxgc2jof6ULiMrKvSKCio5u+evblk7Yo1PpPbBQk7SBNquYnPDQQ2W8/IoXzaxy0UUX8MVnn9eL20N4WrRq1ZbhI0x89pED76FmYBSVdZvD9OxdyNX/uYKuXTrz0MOP4PN5CIfDNEgaRHxsX8lPMHQUDm/phe6B2RxFetoEykq34XQ3psvZ7xKsKETwFfbXRMCmWV38NvVKQmJbIgRNm1+B3dFUymofTFMwkZ4xjsaNo+UWg9HqFwJGgFC/1sMYzR4ERIXCJ2PH8vTTYygszOWaq+zcd7+T5ASFoPd/dQyqSuhEpkA8/DdtCfHL4iA/L/SzYWOAralC+wAaNEikS9eu9DmtF8nJycxfsIDJk76hstLL2WdZGDXKyRmnm/F7wwT9/85lEI94kx0pISyyBPn5Ybam6mzZGmTrpiDbU8Pk7Q5TXBSmpFTH6xVfx+KtDZwOcEcpxMSoJCdpdOio0r6DiQ7tzDRMVKRTou4X4xBz/f/bQtFUTBaFFX8EGfNcOXPn+mnStDl33DGKa/9zDS6Xq87uoSdGP8lTTz3Lj9Mi6dfbQjh4CAGWcMl0aNz3cDnvvR9gzpyZ9O3Th7S0NL759js++vhDtm7dijD6iYrqRJS7M2ZzBKGQiK6MjMIhLb6wLdfs5ObOpCB/JdGJHelw+lNSUfFAmQTN4iJn+3R2rBqHZtLQwyoJiWfgdneR1Q7VzSSIWzt1x3uc1O1Efv1lySEN3zjpyCFgBAhHDlvjyoeIQGlpKbeOGsVXkyYR6VD4+ONIhg6zUpEflqZI/20yRaqg2RXyC3V+mOrj43GV/LHKL2vqHa5IkpNiGThwICNGjOC03r0RJMefFy3iyquuory0nNgYlfffd3He+TYqy3TC/vA/lkWK66qajmpT8fggY1tIpv5nzfWzfHmQCm8IVVWxWu1YrTZsdhMul5NGjRoRHxdHWG4r6NLcKCcnh/LyCnwVfmlwJMyidF3llFPMXDTCwuAhVhKTNKzKHsVHmfmoaiaTiupUGfuJl4ceLqO0HNq2a8u3kyfTvHlzzMJ2shabMGxKatgIh6OEnZtj8ZWH9uhOHNwgRKZEt6n07VNIqacJixf9RIMGDf52ESGb/cqrr5GfvwtxfGxsL2Jje8qHkq4Hjoji38HN4ug7WmYSTC6ysr6hpGgjNlcCXc9+i7DIEOynic+BYnGwcuo1REZYZTYuNzuH5IbnycCtyjr635soZ01NfZOzzz6HaVOm/fsJxhG1ioARINQq3EZn/4bAsuXLuWXkraxetZYh51p4+ZVIGjcQ6X9x5t4HpIIlQsXj0Zn2QyWTJvlY9UeQXfk6kZERDDrjDM499xw6d+5Mi+bN5Vu1eCgL98Z33nmXlSv/oHFDlYcfdjBihB2XBYLSM2C/X4UyCLG4RO8K27cFmTNPvNn6ZaYgI0OnMqATGeHkpJO60a37SZzYqRPNmjUjLi6OqMhIoqKiJE9ABA57m0iV+3w+iouLKSgoIG/XLlauWMmiXxYjMCguKSHSqdAyRaPv6RYuvMBC1y5mBN3C79kbxFRtpQhexXvvenjrHR8Wq4sLLxzGJx9//G9Q1+i/L/zpJwYMPItRN1t57bUIfCXVJ43+dSAmm0pqqk63UwoZcv4wuX3yV9z2Hpudnc2MH2fyxptvsHHTRmlzHBl5AtHRJ8t9cSHfu9dUq0YneixfTGYSnOTlzSZ/11LcMpPwJOGAUFAM7jNzsyOGTb88S9CzgY8/+oQnn3qKtWvXkJAwQFp+izX4txbWK9m29S2uvuoaxo0d+2+HG/9eywgYAUItA250t38EBA/g+6lTuOWWkVR6S7njdidjxjipLAvv0TQQ5ymIFLtPh7mzKnniKY98SMfGxtG2XWsuv+wyLhg+XD6Y9zbxEF6/fr0U71m8eDGx0XDJJTaeHROBWdWpLBdbBPumwiWpUIWwppCdF+aXBX4+n1TJL78GCAXE1kAcjZsl0+uUUxg0aBCn9+uH0+mskeUtKipizty5TJo8mTWr15CRnklYD9L3NDM332TnlN5WYqNAEMeFQqSgYFojVVauCnLrrWX8sSbI66+9zO233VYj46nORR559FFeevElpk91c/ppJvy+Q9xecGo89Gg5r73pZdbMGZwxcOA/du/1evn4k0947/332bJlsyTduWO6EePuLsmM4g21puWBq4PH0XqMzCRoTrJzplFcuBZXTDM6DngWQlVk0b83hdLCjWz4eQxPP/M0l156GUPOO49NmzaSlHQuUVEnVm39/EMLBsvYvv0D7rn7Xl5+6aWjFbZjdtxGgHDMLu3RNbE777qL9977iAaJQb77Jop2J5gIy+xm1ZeSplaRDqdMrWT0aA/rN4RISIxl5KiRXDhiBM2aNsVms/1t0qmpqdx7/33MnfMTwtXx5htt3HmncKlTCVboe8iK/39KFRFQwexUKS0NMfHzSiZP9rFlc5DCYjBbzAwePJhLLrpQZicSEhKIiIg4YkAL06Ndu3fLAGfixM/4+puvCfiDJCfpnHuujXvuctCsuYa/TCcU1DFbVbxBnZNPLSQr28ya1atlBqU2Wp++/dmw7ld+XxVDnEPEcofGBwig0jilkOSk5qxft6baXhQiCyO2jp4YPVo+oARDNCKyJXFxfbBaEwgESw2OQrVvBAWTSWQSZpG/ezmRca05ccBzBAPCWOt/ggSTmT9n3YbNHCIrI0Per4OHDGH9+nUkJg4kNu40goHiA3IS/P58duwYz5hnnuXhhx6q9giNA2sHASNAqB2cjV4OgEB2Tg6jbruNH6b9QJfOJj75OJITWmtUloUkmU+WYplVtqWHeG6Mh6+/9REXn8iFI4Zz37330rhx479dWaSVRWAw7tNPefGFl7BYwpx6iolHH3Fyak8L/godPfhXkqPQGqgiGlYEwvy5OsT333n55js/eXmCMZ9Ep07tGHr+UM4/7zySkpLqbC23bdvGhM8+Y/r06WxYv1ESyK75j41rr7PT8QRBFBNbDvDBh15uu7OcJ554mNFPPHHExyu2SRo1bkbv3mGmfxtBZcWhZQ/EGvy4MMBFFxYz+snHefyxRw967KIkVnBXxo4bx8oVvxEOK0RGnUhMTDdJbBRvwftLlx90R8f4CVWZBBe5eT9SWLBKBgnt+46WAYKwTN/bTNZIsrdOk3LMr736GreNGsXGjRsZPmIEW7Zskf4NQuyqKpPwvzoJKl5vGhnpk/nkk7Fc85//HOOoHn3TMwKEo2/NjpkRb922jUFnnkl6WgYXXWDlvQ8jsYaR5YXibV6K58QovPpKBc8+V0ZJicK5Q87m9ddepUXzFvvF4cWXX+a1118nL2c3jRpqTJgQQc+eZnSvvk/ZohRMcmt4ygU/oYK33vaRlhYkEFRJadmC++67l6HniS+4yHqjNSACIJENETyF++9/gDWr12G36fTuY+GlFyJkJURZSZgGDQuwWp3k5mTtk1mp6RtozHPP8dijT/D95CjOPMMqy0UPvinYYzSu+08Jk75RmDtv5mHJ7goy6srff+eOO+9g3bp1hEMKroimJMSfic2eSCBQcvBDPA7PMJlc5OT8QGH+KiLiWtJ50KsEvcV/EVNSUExmfp9+M127tmPe7Nk4HA4Ki4rocXIPUrftoFGT4URGtCMoTJ7+EiQIhczS0nXk5f3I15O+YZjhw1Dv7jAjQKh3S3J8DGjRokVce931ZGen8cD9Dh5+0ClT5WJLQVSrWZ0m1m4M8Oij5cya46djx/Y8+OADjLjggn0Y+uKtcdoPP/DKq6/zx6pVtGmtceONDkbeZEUPqbJsca9IkfiCMlsVTBZYuTrEpC99fD+1krT0EI0aN+asswYxbOhQWVpnt9vr9WKIyoHpM2bIPfgF83/CbKpkxHAbt97mpGB3kKHDSzjv/OF8PvEzNO1AohGHN0XB8WjRqiWaUsD2TbGEKvfYaR/kZQXnwxql0LZdIcFwI1atXCnJnYfbfJWVTJs2jYkTJ7Jw4QLE7xGutsTEdsdqFdURYqtJyDgb7UAIaJqD3NwZFBX8QUzySbTt+wghv1dE8vIUzeJk068vUVmyjl8W/SJJuqKtWLGCweedR2FBKY0aX4Dd3piw3DesyiSoqpXCwl8pKFrEzOmzGThggLEI9QwBI0CoZwtyPAxnxo8/Mmz4cAKVYcaPjeDqq6yUF1QpGYr/OGJUPh3n5ZrritHMJoaeP0QynPe335+Zmck5Ys9z7Qapgnj/fU5GP+VC8A79f1VZ1Ku2EmxuldStIW4YWcbCeVXysEmN4nnogQe57tpr5dvP0dhWrlzJDTffLKs/RBr9jTejmD7Nx9LfLCyYN5vu3bsfkWktX76cU3r15YpLLYz/NApvoXhoHDz/wGTT+O23AH0GlnDffXfw4gsv1Ph4RSbhiquukvvjQX8AZ0QjEhsMxmFvTEDukx/8uGt8kPXwglUlkFFkZHxGafEW3Int6DjwJWnwpCia/Ckt3sr6haO5/fbbef211/47i+zcXNq1a0tZqZeUlBvRzM7/aisInkNu7o+Ula9m0U+/cHKPHvVw9sf3kIwA4fhe/1qfvSg1vO/+BygvLWDixEiGnGXFX1GVNTDbFXJ369z3QLksX2yQ1ITnn3uGSy6+eJ9xbtq8mddff52JE78AKrn8Uiu3jrLTvpWJgBAk+ovFsNmlEgjqzJjpZ8IELz/9HMTr0znnnHP4z9VX0q9fP2JjYmodi5ruUGRSZs+ZIzUCli5djs2mEAzCZZdeyvhx42q0O1GmKSoIXnvjDR57ZDQTPo3ikmEm/Psvm//Xvi0OhUGDy1i+HLZt3SyFrI5EE+MWJZnjJ0xg2tSpeDxl2O3NJEfB6UyRqXP5lmvECn+HX3o32MnJmUJRwVoSU07nhFMfwC9cIHXQrE5Wz7kHgvls2rDhb+s3+euvufyKK9C0CJo0vRxh0CQ+n0LBMTNzEn7/Dn5fsZITTjjhSCy5cc3DQMAIEA4DPOPU6iMg9s5FmveGm24iKiLMgnmxtGquEvCJ9L9IU6qkpoc4b2gRqalw1jkDmDZl6j4s9rKyMj76+GMefvhhwqEQLZqb+OqLSDqdaMJXHPr/73VFQVV0wlaN35YFueOuUtatCxARFUn37ifxyssv/zcVWv1ZHB1HiuqHN99+mxeef17uBYs2c8YMBlQzhSvWStg2i9JTsYWQm5fH5s2b+eOPP9m2fbskgebn75YaDkLoKRwMsWljHMkxQlHy4AmKQhwqpzBM6xMKGXTWQGbPnFErQG/YuJH77r+fX39dTElxieQmxCcMJMLVilCoYk+QaUQKexdDZBJMmoO0tE/wlGeT2KIPrXrcS7CyBLM1krwd89i28h1GP/Ekjz36d4LpZ59/zg03Xo+uR5CScrMkLQrS6M60T0HPZfPGTUcsKKyVm+kY7cQIEI7Rha1P0xIPnBdefJHnnnsei1nUt7tp30ojFBCCPwr2KFW6940Z48FsjWL0k09w5RVXSpGhv7bvvv+eZ597jlW/r6Z1S5XHn3Bx3hArJl0nJFwDhceBrmB1qVK8SHgvfPyRlxUrg0RERnDV1VdyxeWX0/nEE2tdabAu1kM8zN98803Wb9jA2I8/pmnTpgcchnizFg9MsVUhyH0iQ5ObnUde3i5KS4oRfAdREeB0KcTFK8RGq0RFKVgtOo0amXnnDYfM3BxKs9pVJnzh57obS3jzrVclE762mgim1qxZI6tDxo4di8dTgdkcR0ysMIY6URJlheeD8Ngwmvi4qlJfIj39C8pKttOo/TBSut6M37NLkAr4fcYounZpw8L5C/5GjhXS6Y+PHs3LL72I3dGcxo0vkRyE1NT3sVgqSN+584iWDBtrd2gIGAHCoeFmnFVNBERwIDwVbrv9Dlo0DbFgfjRRTpWQX8gmK1SE4J57ypn4mZeUls14//33GdC//9+uLmqrnxkzhnffeY9oN1x9tY0Xno9AGPqJssWqt9YqEaWgBksW+xn9pIcVK/0kJiZK4uHjjz0mJYiNVoWAePvfq7Ewd+485s6bx84dO4QeDk6nInF2uzVSUjQ6dTLTrq0qszVNG4rgQAGrIIyIgKDqwektEpmgg88eiPNF9cJFI4r5YWaYlSuW07FDhzpZJpEZee75F5g1exZZWZlYLG5pNR0Z2V7OtUp06VDmWCfTOaKdCt7Bjh0fUektpNmJl9PohAsI6SG2r3ybooyl/L7q9/2u4+VXXsmkr74iOqYHycnns2XLSzRtGs/G9esNJ8cjumKHdnEjQDg03IyzqonA8y+8wNNjxhDn9rNwYTRJMSJzEMLuMrFhW5CLLiph+44Q/QcO5MP33qNJkyZ/u/KvS5dy3fXXs3XLNnr2MPHe+5G0TtEI+8L/FToSVQmKRWPmLB9PP1PB6jVBHE4n1193HTffdBMpKSnGlw/ILIAwqBKZmCVLfiU3ZzclxUXSIbF5S42+p5o5rbeFzl1MxCaoREaAyyx4DP8jKhUWmkMi4byX1yeChEPLHmhmBY9Xp0XbYpzOWLZs2lSnhlMCI0F8/fyLL3jq6WcIhYJomgt3dGdi3D3QTLZq+wxU8yNyVB4mNCtURWQAPqLSt5uUbjfR6IRhlOZv5M85d9G792n8vHDhPnMTKqF9+vZj06ZNNEgeQv7un+jbtwezfvzxqMThWB+0ESAc6ytch/MTX7K33jqSpAY+5s11ExelyTI44aPw0y8BrruuhMIiG6NG3cIzTz/9N76B2PueMnUqQmGxrKSQO++w8/ijDvTKMKGgIh9H4uEihIF+XRbkldcqmDmrErc7lnPOOUuKKLVvL978jt8m0ufiYbd23Tp+nDmTH2fMJCMzE6tFoVlThdatTPTvb6HXqWbat9PQTEK0GcI+nUBAIHxoD/2DQVys4ez5IUbdUUxWDqSktODaa65m6NChnNCmTZ0Gdrt27eKNN99k6tSpbN68CVWz43Z3w+0+EU1zSsGl41nGWeiIBINe0tM+w+8vpm3v+0lqNYTVc++hJO9Pfl2yhO7duu1zO2xPTZX6J2lpqaiqmeuvv5533377YG4b49haQsAIEGoJ6OOtm/GffsrIkaOwmgP8/nsMCW6kb7xIJ7/+uodHHi0jGNb48ovPpe7A/9bpX3v9dXz+2VdERQrpZTc9ThI2zMIuqcp7wBatsXVrgJEjy1ki/BF0lQsuGM7zzz4rnROPVN3/0bCOIiMgtgzefvttlq34jZKCcgJBP02ba1x+iZUrLrGT3FRDVHSGynW5rSBwrRO3ZB0sLo3CEp0vvvDywotedu0OERUdRf9+faU+f11uDYlMSUlJCd9PmcKjjz1GXl426Gai3O2Ji+uHxRJDIFhy3Mo4iwd8OOwndfsHhPUQnc98haC/jDXzHubue+7m5Rdf3O9HRniNDL/gAkmGff6557j7rruOho/WcTdGI0A47pb8yE943vz5XHnV1YSD+cyYHkWHNib0kEKZP8zTT3v44CMfLVu15oP33+W03qf9bUBpaWmMuv02fpw+m759ND74wE2TZIWAF1QNTFbYlibcC718/oUPj1fl7HPO5raRI+nbty+mIyQIdORRO7weKrxeSTCcNXMm06b/KOVuHTaFzidqnN7fysCBFnp0UVFFliAEAZ/YIjjyGYJqzUqUyZlBtZgoKgkxbXqALz738uuyAJpm5fxh53HVFVdI8aq61KkQNuRCxlkw8pctXQqKCafrBGKiu0q/h+NTdEmXZENvRToZGd+gmix0HDhGujw2iHfKLaMDBesvvfwywuTrm6+/5rwhQ6p1qxgH1S4CRoBQu3gf870JBvypvXoRqNRZ+Zubdq2rPALsbpVzzyli5qwAvU47mcWLFu2DhXhT637yyWzdvJ1LL7Hz+RdRsnRRCLbZ7BoBk84rL1bw+Ohyyahv37GNrO/vdtJJxzyuB5qgeMP99rvvuOf++8jMyCYcCBEjJIuvtXPHKCvJTc3oPh1v2V6L6PoNlSh5NJt1LG6NP1YEuXlkKStW+FFNGh06tuOzCZ/SsUPHOp/EgoULpYfI1q2bCQaCuCKa0aDBOdjtjQgEio47q2mhtujxpJKe9iWu6BY0bHs+W5a+xgcffCC5QAdqV159teQJ9Tr11DpfU2MA+yJgBAjGXVFjCAhHvX6n92frlo2MHxfFsCFmWXaYmRviyivLWL4yyNVXXc5zzz1Hg8TEv/U7a/ZsbrjxJkqLc3j8MRc33eLAZhLeMDr+gM4XX/p4590K1m8M0b5DR+6/9x4pdOR2i72L468tXbaMSZMmMXPmbLZt3U5CgsJZZ1o4f5iNXiebiXQpENYJ+o9S1r1w1rSrKKrOr78FGD/ex/ff+ymvgMGDz5Yp6T6nnVanHAXhiSEcJMePH8/3U74HRcNha0J0zEk4nc3l7+GQ7zi5OXU0zU5B4TLycuYRFd8GnyePGLeTDevWHfBzmp2djapp+3wfHCeg1ftpGgFCvV+io2OA5R4PnU48kazMdJ4aHcm9d1sJB3S2p0P/AYUUFmmMHHWr3JMU5Ka9TeyXCzLixZdciknTmfhpJL1Os7BlbYA1G0KsWRdk0eIAWzcHiE2IY+Stt/Dwgw/WG/Ok2lwdsY2wdu1aRj/5JHPnzkdTdBITFW64wc7ttzuIcKn4S3WCwb96T/x9hBL6PfCbzNr/sXcVYFZV33e9nC66uxuGLgmRNChb/xiAIo20dKN0SqiAiooKSCNd0l3SHUNNx8v/tw6MP2KAF/fVcPb3jYNw77nnrHNjnX32XhsqnRVWlQqGOMZ2eMmWw2OgstS3PkyFUyfN+KJzLHbsMAIqHdq1b4fBAweKj8/D95Q75yT1WsePHxcBtXv27kFMdDT8AzIhc+b6CA4uIpQZrSxb7pEgD/eioddF4PqN5bhzZyc0Gq34mT9vHt5s3dq9HZFXUwQBSRAUgVE28nmHDpg16zsMHBCATz4OxJYtBmzfacKiX5NhtARh0oQJQjJZr9c/Atb0GTNE8FdcfDwCA1TIlQO4ft2K2DgrzFbKu1KIJzdatWqBdp9+isKFC3v8Y+Du2WYg188LF2LevHnYs2c/EuKT0LKFHm0/8UdkJT1C/FWwmCywmPjxf/wjr4JOD6iFboGo1otLl804ftKEw0fNOLDXiLJldejdPRDGFEeqMLoHDX5btXo1/AKtWL/RhBGjErB5ixGFixRCly6d0eGzz9zTkWdchWJAhw4fxi+//ILvf/ge0TH3oNdlRnhEWYSFloFWFwyTKd4dySGew0IFqFU6XLmyCIkJF4R3gJ6+JX/+6bk+ySs7jIAkCA5DJ08kAvQAzPj2W3Tr1k3su5Yto8W+vSZRPTEoKBhZsmfCiGHDnqinQB3/8RMnYujQoQgKChI/wcHBiAgPR/ESJVCkSBGUKF5ciK3ky5fvhQT79u3b2LR5MwYNHiKkjjNGALVr69GvbwDKlPEDUqxITnw0toAFqegi0GpVSLEA92KsuHXNjD37zNi1xyi2eU6eMImtG84XV94limuwfVsGaM3ObkfcL4iVamq1GlqtFYKaWClGyP+wXifT41RPig5ZrLBQsfB/AgtPzLuIUQhQwaoBpk1LwoSJ8bhxC2jY4BV8PXaM0PPndT1t165fF6qfK1euwIXzF6DTByMiohLCw8tDrdY/EF3yXkLmDH5UW2SZaGY2pJiioIYaBw8cEM+zNN9CQBIE35ovr+vt7j17RE5zYmKi6Fu2rNlQo0ZNvPxyfVSpUhkZM2ZE9mwsq/uosWAO928rV6qE3LlzC5nV4Ackwd/f3+vG6c4OUazn+x9+EPUUTh47BT9/M7p0DECbjwOQK7sGVqMV1gcfc8Z4aDRWkSrIL3H0bTO2/WPC+k1G7NhmxM2bZtyLtiIxUQWN+HjfVz/kNoRer8LgAUF45z1/ZAm9H+9hv6kQEKiGlY4hqwp3o+5vC508bcblyxbcumNFfCxlsO972IOCgJBQFSLC1MicWYUc2dXInl2D3NnVyJoZUAeklqV+QCaSzTAa1GkoGKrgF6jGxesWDB8Wjx/mJyNbtsxo2/ZTDB0yxP5huOiMq1evYuWq1Rg1ehQuX74EWP0QEloIGTNWh79/NhiN8aLEebozFr0yJ+Ps2WlQqzV46aU6WLt6tVeQt3SHtQsHJAmCC8FN702zemCbjz4SqoXVqlYVH3uKE/n5+aX3obtkfEyj27FjB4YMHYbde/ciV3YVXn3VH192D0DOnBoY4y1ii4DbCCxuRanq2AQLTp0xY/tWIzZtMWDHDjNi4yzw0+uQL38BFCtWGHny5sHp06exceMm0A1eMJ8KzZv7o3v3QGQIVyMljsTg+R8pUVRLq4JVDWhUKsSnAJevWnApRigEAAAgAElEQVT6pAlbthqxe48Rx06aBSGgB8nP3x/+/gHQ63X/BT6Q/BhSkkX+O/si5JgsKvj5q5Alsxo5c6qRO5caeXKrUTC/FgWKqJAxowYZIlTImEGNYFGh8n6KJlNniYdfsAp/LDZg2LA4HD9pQdt2H2PyxEleFadCBcGFv/yCn3/+Gfv274XRaEZISHFkyFAJer/MosaBxWx0iziVS27eNBpVa/yQknwDly4tRFhYEDasX48ypT2fgeKu8aeH60iCkB5m0UNj4PYCPQfMTfcGt66HYFDkspSU5jbN/v1HYLUa0a1LELr3CESmjGoRQMgvId3r+kCI6P4jBw1CT2LZshTcuWtBcrIa/gFaVKxYES1aNMdbb74piNuSJUsE4WAKpN7PhFHDgvDeBwEI4oeWxZWeV1vAqoLeXw1N0P3IxqirJmzcbMLKtQZsWGdAXLwZSUkqJkwgIMAPL9Wpg5o1qovUU8aLsA/q1KBUFT/olMi2iFoQV65exY0bN3Dq1Gmcv3AeDPS7eOEiomNiYGY8hdUqUh51OoifkBAtypXTokoVLerW0qBceT38gx7EVqRYEG/UomXzO9i01Yz58+bi3XfeVWRulGyEz8vBgwfRu29f7Nz5DyxmEqlMyJi5NsJCSsJqMcFsTT/FoVjY6d69vbhxfS1ebtBAeBGk+Q4CkiD4zlzJnqYzBPih3LdvHyZPmYrff/8DAf5GvNbMD926B6F4kfuy1PxQqrlyD1Dj9j0zli41YuEv9ytUmi1qsSKrVq0KatWqhapVqohaFpRTXrF8OSZPnYbTp06hRDEN3n8/AB984I+M4WqYklJVE9PaUrgfR6DWqamtiHMXLDiwz4jNm43Yf9CIf09bkJRgEd6BIoWLoESpYuK6FSpUEPEiYWFhTs0SJbZv3rwJuua5j8+xnDl9GpevXMXlS1fE39+5c1t4HTJlUaN0CTVKFdeheg0dipfUisDW5m/chdmaDWvXrEbxYsWc6o8rT6ag2I8//oi1f68VY6bYUlhoCYSEloBOFwaLhVLOZEq+bEx/DML160sRG3sUXbt0x6iRI16Iaqq+PGupfZcEIT3MohyDzyHAAMHeffpgytRpSEkyoFo1Heb9EIKChXVIvEXt4/ulq3V6NXShKsyemYBuPeKRlAToAjR4rdmrIsWv1EOVD1NSUjBt+nQMHjIUcTGJ4Ld6xPAQtGvnD37uk2JUT624yGtpdYBfmAbxcVb88XsSJk1LwcH9KWJ7gNHooWGBqFevHt54/XU0atgQmTNn9gjue/buxZo1a7Bs+XIcPHgIRgO3Xu5vk5QqrUf5shos/M2AHDmy4+jhw15fRvju3bsYPnKkKDcdF38PVjMQFlEamTPXhb9fVlHnQGSnOBIi4pEZeuyiKiu0mjCcPTsdQAw2b9yEypUre0PPZB+eg4AkCPIWkQi4EYGk5GQsXLgQEyZMwvETx1GlohZffhmMZo11sBgBs+H+/rpfoArJJpWQk541KxEHD5lRoGB+fPLJR2jZsiWKFC78X6/5gWFJ7Xnzf8TJEydQqJAaHT4LRIsWemSO0IjS2mkFIAoC4g+otWpE3bJg1d8GLF+Wgl27jbh5yyoySmrVrIn69euKrQuuxr1NmEpsUZw+LfQhtm7bjp3/7MTly1dFQCa3vTp16oSvx4xx4ww7fqnLly+LGhqUct6yeTNUai38/XMiPLw0AoMKQqcNhtmc9KBA1P+0RBy/ovvOVKk1MBpicOnSj8icOVzcpyHBwe7rgLySQwhIguAQbPIkiYB9CLCyItMW3/3gA2zZtBnBQVb06hmMrl0DobUChqTUlDcNNAFWnD9vwTvvx+LwESMyZIrAxx99hKGDB+PhDI+4uDj8tWwZevXujRvXopAlC/D5Z4Ho1jUQQcFWJN5N22OgUkOkQZq0apw+ZcLsWUlY8FMK4uOtCA0LRb4CedDu07YijiFDhgz2DdTDRzP4kRky333/PbZs2SJiHb6bO1eMxZfiZP755x8MHjoUe/fuAQMcqVIYERGJiIiK0GlDYLYmPSB9vuNWUKsDcOnSXOTLlwFHDx/x8J0iL28LApIg2IKSPEYi4AQCjDUYMHAgZs3+Hndv30KbNv7o1TMI+XOpYUq5r0fAWEH/EDWi7lrRq3ccli41wGTRo0OHz9C+bVuhC/Gw0WMwY+ZMHDl0FCEhFvTuFYDWbwYgWwZGwzPC/8lyzSQFjGW4d8+CH39OwaJFyThyzITkFBXKlimLDz98H3Xr1EGhQoUQEBDgxIg9fyoxZanrf3btwrJly9C7Vy+U8rHy3ySVJ0+eBGXI5343VwRzUkOBsQrh4eUQHFwYrIFgMjOo8flZKJ6dFTXM5kScvzATWbNkw4ljxxAaGurZLsmrPxcBSRCeC5E8QCLgGAIkBtt37ECHLzoKl2qBfCp8/XUImjbxgyHODAvf6VYGBGpggBVLlqTgk0/joPPzQ2RkWUycMPGRQlQUl9q6bRv6fzUA+/cdQJbMKrRu7Y/+fQKQKbMGydFpFGRSMX5ABbUeOHfRinnfJ2L6zGRQtiJLtmyoWbMq2rdrJyolarUPqRw5NuSnnsWV/aVLl0Smwv79+8GqnQxIpPFDQQJU5UGQJct1K7na5zwwJZdaG75qxOq3335D+w4dYDIaRIEovV8IwsLKIiysjAhqpJwzs0RsSVl1Nw5M40xMuoLLl36BVqvDkMGD0bdPH3d3Q17PTgQkQbATMHm4RMAWBOj+p+v/t0W/4+7taAwaGIwvOgUgVK+CyZC6naCGX4gKJ06Y8PGnsUL6WO8fgLmzZwt5WgpHpdqBgwfRuUtnHDhwBAlxiejaJQCduwQiW0aVCGpLFU5KPZ4pkX48XaPCmjUGjJ+YgIMHTYiOVaFI4YLo0aMbGjRogJw5crg8onzr1q348ssvcf78ebCgFz/YaZlOp0OWLFlQrVo1jB8/XghoSfsfAvQoVK1eDYePnkbOoq/h+unVSE6IAlMJ/fwjEB5RHqEhJaHRMFYhIQ1xKc+hqVJpEB29DzdurBNpr2XLVRAVXT1ZvttzaPjOlSVB8J25kj31AQTMFgu2bduKPn37Ydc/e1C9mhajRgWjWlU/JMewiJJQOhKCQ4lmFWbMSMDosUmwWPzx7rtvYvTo0cj40L7/mbNnwXoVM2fOgspqQLNmOrE9QUlrYxw1BR6tvyCC87Qa3IqxYu0aA+bMTcLOXQaEhUWgUuUK+OTjj9H8jTdcTgo4VRR++vrrr8UPMyzssUyZMmHs2LF4//333dJXe/rmyWO79+iBSZOnonyjCfALyoZ71/fi1vmNiLtzCilJd6HVByIkpBjCQkvDzz+LqItgFRoank2X5NYIUx0Tk64hc+4quHb2b/yycKEs4uTJm8mGa0uCYANI8hCJgK0I9OrTB9OnzoTRmICvBoSgW7dAqFgU4YGMMVf2gRnV2L3biPffj8b581bkL5gXfyxahBIlmP9O1UGAq8VZs2dj4MBBuHPnHkqW0OKXH0NQqLAOJqFq/aiOP9sNiqA3wYJho5MweXIyYmLokdDjgw8+QP++fZEtWza3qgt27doVkydPFjEWjhi3PBYsWIC3337bkdPT5TkbNm5Ew0YNkTnfyyhSpRuMibeh1tNjkIxb59fj2unlSIy+CmYN6HQBCA0vhfDwSPj7ZRcxABaLwSO4MMjy/Pk5UGk0qPjqt9i5+D2wbtv1y5dFDRZp3omAJAjeOS+yVz6GwP4DB9C7dx9s3LgRkRW0GD48BC/V0Aq1QvGBZDXCAA3uxbK4VSImT06CxRqMLzp+jk4dOz5Sr4L1LUaMGIGVq9YgTy6gR49AvP+uPwJ0KqQkmvFftWzWYdCroNIA/54zi8qZ8xak4Mo1M4oUKYo332yJd99+WxQwcrf98MMP+Oijj5y+LKt/Un46MjLS6bbSQwMpBgOKFC2KqNuxKN94OqulPQhQVEHrFwyzKQXx0Wdx5+I2REcdRWLMJag1OgQE5EJIaBEEBRWAVhsm6iOYzfTqOEbe7MVSpdLh7JkZCAjPhgqNp+HCoXm4dPQnjBs3Hl07d7a3OXm8mxDwOYKQuhrh75iYGJw9e1ZUumMAFHOiucfJv3/YWLGORYNy5MiB7NmziyjtggULip/UOvKerifvpvmWl3EBAr/8+ivafNQGhmQTPvwgADNmhkKVZIGZi3wKHlk08AuxIiFRhRq17+DECQsKFMqL3xctQrmyZf/rEe/pCRMnChles8GE1q0D8evCEBjiAUMKHhM5UiEwkwa3bljRt1885i9IgMWiQXBoAL75+mu0/fRTF4zUtib5DDKOgPUflLCmTZsKyWhXBlEq0U93tTFx8mT06NYNhav3QKbsFR/UcHj46lZo/MOh0frj3tXduHLyT9y9uv9BRCwQGJgdERmqihLUarUWJlOsw14eW8bMAEWjMQYXzn2PbIUbIG+p92GxmrDnr3YoVqygTHm0BUQPHeP1BIHRzyQABw4cwLFjx3DixIn7MqzXron8YHv3NlNxJiGg6AvV4EgaSB7Kli0r3Lz8TclaaRKBZyFAedy+/fph4cLfEBFuxLhxIXirpT+S4h9sKTBDQcv0RRVGjE7EmDFJUGsC0aFDe/To3gPcZ0+1Xbt3o3//r7Bp02aUKK4WHoj6L+mgsVphNt1f5Qm1Qz29BsCe/SbMnJGMlatTEBuvRo3q1fDJJx+DH1MKHHnS1q1bJ4IsWYxJCSNOzH7wlHKjEmNQso2Lly4JaWv450Wxmv1hNSY9tXm17n66qjH5HqKjjuDulV3Cs2AyxIvMh4DA7CJmITAoL3TaUBGvYLGmKOpY4PZCdMwBXL+yHEWr90CG7JWg0uhx5cSvuHzsdxGj0r1bNyUhkm0phIDXEQRGODMCnGlQP/30ExYtWiSin91pJA90abZq1QqvvfYacubMiaCgIGg0qaVo3dkbeS1vQ4D36IULF9CiVSscPngML9XWYt3acJhS+CL+30qfaogXrlnx7rux2LfPhGw5MuPnn34WKYWpxtTFnxYuRNdu3WBKSULz1/2FByJEb0FSItu6Tw64p6wNAs6dM2PEiAShsKjX+6F02RL4qn9/vPbqq/95wzyNV5cuXUTsgZL2559/onnz5ko26bNt8Z5p3LQp/tl1GJFNpwOiCuTzTa3RQxcQgZT4G7h5cTOizv+NpLgoWEzJQko7OKQwwsLKISgoP5h1YLGkPPAsOLcNwVoM164vQcy9I6jQeDL8AjKKbRFNQAbs/esjaJCIk8ePi/esNO9CwGsIAsvAMh3ql19+wfbt23Hu3DnwQfC0UTCGWxFk7O+99x7q1q0ro6o9PSkevv4P835An75fIT42Cv16B6P9Z/4I0qthZvqiisWV1FAFqLBgQTKGj4jHtRtWtP+sPfr27v3IS/Dc+fPo0rULVq/6G3lyA+O+CcHrTXVIiuf7837cAj0QuiANDh02CmKwZasB0bFAo0YNhZuZmvYkr95klSpVwt69exXt0ueff47p06nlL40IjBw1SohvFanSBZly14KZ+1C2mloDtfp+doMh+Q7uXduLO9d2I/bWSVFNkp4F/4CMCA4picDAfPDTZYAVZhEI6YhrgWTjwoXZ0OgDULbhJFiN92Mf1PpA3DizCuf3zxXjoZiVNO9CwOMEgTrymzdvxqRJk4Q0qqMRz+6CtXz58ujQoQMaN24sGa+7QPeS61CsZuTo0Rg1ajQyZwRmzgjFq6/7wcgtBVZQsDJmTI2YJCuGDInD7DnJyJ4jJ0aNHI7333vvv1EwQ4FxC506d0FSYgwaN/LH/Hmh0KmsoLeYqZCsj6DSAafOmjFlUgK++yEF/gGBqFqtEr7s0QONGzXyElQe7Qa9K9yyi4qKUrR/LBK1fv16Rdv05cZYt6FI8eIICCuE0nWGw5j8aNyVPWPT+IWIQMb4e+dw58oO3L2yW+grmFLioNJqEBRYECGhRREcVFBIPpNY3L/fH82kedo1TeYEnD07A1nyvITiNfrBkHhLHMp26Bnbu7w9IiKChZiYp7fH7MHtRTjWowRh9uzZYv+J2wmMNfAV4xYE1d64BTFgwABERET4StdlPx1EgIF377z3HrZt2wajwYRq1bXInUcLfy0QHKJCcLAKIcEqBAUDc+Yk4sgRC5o0a4hpU6aIeJbUIFjGLXTu0gUrVq5CzmxGTJ8RhurVdfD3t8LCWIMHNXiuX7WgR684rF9vQEwsULNmTYwdM1rEyHibx+BhSLk9yHTKREo1KmiMCzp48KCCLfp+Uy1atcTSJUtRvtEkIZTk7OKKxaFEioxaC7MxThCFW5e3ITbqhPAskBzo/cMRHFxEyDwHBOQQmh5Mn7xPGtIyFRITz+PKpT9QIPITZC/8Kswpcf8dqNEH4c61Xfh3x1i82fotLPz5Z9+fmHQ0Ao8QhNWrV2PkyJFiS8HXLW/evOjZs6cQdAljfV1p6Q4Brvg/bNNGBMqRyDL4LjnJgJQUA7g1ZjSmiL8zGk1C6jYiUwa0b/sp+vXt+9/HnMG0W7ZuBYVuGHTL7LQihdQoWlQDQ7IVer1KJJzxJe/nr8byFQZYLDpUr1kFHT77HC1btPCaGINnTTAljUkQ4uPtcHnbcMdwi2/fvn02HPniHLJi5UohepWjREvkLNICVrOyiyytH6Wp1UiMu4qYqIOCMCTGXkFK4i0wM8HPPyuCgvIhOLgg9PoswgvBv7dazP95F0gqbt5cjeh7h1G6/kgEBGd/om6EPjgrDq7pArX5Jtav/Rv00krzDgTcShCYddCuXTssX778Px1274DBuV4wePHdd9/F/PnznWtInu21CPCDJ4oqWa1CKtgiCizd/202mYTWf1x8PBLi45E1a1YUKFDgkXoCY8aOxdBhwwSJJFlITmbZ3vvDJbF4xKxArtw58d2cOahatapPFU4iPpRIZqaRktaoUSOsWrVKySZ9vq3LV66gVu1auBunR4UmU2CIi7rvAVDYhPdLpYFaHyQCIpkNcevSJty9shPGlCQR0KjW6hAYmE3ELYQEF4JenxlWixFqjT/OnpkGkzkeFZpNhyoNmW0VVIi5exLHNw/HW2+/Lb0ICs+fM825hSBwBbZhwwahx3748GFn+uu15zLbYenSpV7bP9kxzyLAWBsqxvFlS6+DSYgk3DdDSopQTqTx30k2SDJ8taJi/fr1xfOupPXu3VvIULvadu3ahRYtWog5ep6RDK1YsQIMyvSEUda7RctWWLlyNco2HA8//wyw2pjR4Hh/VWDqJIWWDIZYJMZcRPT1g4i9/S+SYi/BkBwLrdZPVJwMCMqFoMB8uHplCUKzFEWx6n2f6uVgHMTxLUMQHXUYfy1ZiqZNmjjeRXmmYgi4nCDwIWL0MVOfUl+CivXeixriS+WPP/7woh7JrkgEPIPA0KFDMWjQIEUvzgDmWrVqKdpmWo2tWbMGr776qs0aDjt37hRVKD1llF5+pWFDZC3UGIXKt4MxOdrtXdHogqANCEVK4h3hVbh1cT3uXT/6oLKkFSo1UKx6T2TMURVmU9qZaQxWNFtN2LfsM5QvXwob1q2TEsxun8knL+hSgsB92Y4dO2LWrFleMFTXdkESBNfiK1v3HQS4Cmc6sFJpygzyZICiO4KBGTjdvn17mwP+PE0QuN1VumwZnD59ARWazoRa3CbKbzPYdPepNUK9kTEIJlMikuKuI/bmIZjNBuQp9S4sQtDpaZoKVjBg8dyBObh1YR2+nfktPmrTxqbLyoNch4DLCALdpC1btgQZ+YtgkiC8CLMsx2gLAnz2X3rpJcWCCqk/wvgetfr+58+V1qtXL5FZZat5miCwn6PHjkW/Pn1QvHYfhGUq6YhUga3Dtfs4FpLidoQx8R5Uz50/ZlCosXd5W6hUJly+cFGU/5bmOQRcRhD4wVy8eLHnRubmK0uC4GbA5eW8GgFqm9SpU8fpPmbIkAGHDh0SacXuMEpVr1y50uZLeQNBoMemfoOXEZSxPErUGoiUhJs299/bDtTog3H7ynac2jkRbf7vQ8z69lupYOvBSVKcIDAPmox/2bJlHhsWswq42hDR5hbWQndOKtSWgUiCYAtK8pgXCYFx48ahT58+NgX8pYVLaGioKNLE7Qp3GGOkuJ3BOi+2mjcQBAp4lSlbDpeu3kal176/r6r4VF0CW0fmmeP4rtb4BeHwuj6wpFzDzh3/oFSpUp7pjLwqFCcIPXr0wIQJE9zyUeb8MdKbUcTlypVD4cKFRdElppIFBgaKVMrY2Fjcvn0b169fF/nn/Dl16tQTFR+dvRckQXAWQXl+ekOA6Zws+9y9e3e7hZOYKjlv3jyxVeGOrQViT08Fc/DtWVB4A0Fg32fMnImOnTqiQGR7ZMvfAGZDgs/eThRsMiTdwYE1XZE9V04cP3wYISHUZJDmbgQUIwh8qFIDfFw5CJ1Oh+LFi4tVRcOGDVG9enW7BYqo8nby5EmhF88HnFUiWS3SmepzkiC4ctZl276MwP79+8HMBj5jLMv+NGM5Z5L8l19+GX379hWSze40R7IvvIUgUMArT968iEsCyr0yyQ3pjq6cGSt0gZlw8fACXDn+G/r3748hgwe78oKy7acgoBhB4EuAH22u2F1l9BJMnTpVlGOm3GyqfK0z1+MWBD0NJAwkG46Wj5YEwZlZkOemdwTovue7gTooVFDl88YsBy4sWMaZbmS+P+ji52pRiWfbHkz53PP553vMHvMWgsA+t2vfHnNmz0G5RuPgH8BS4h7KZrAHwKccy/tCpdNjz9KP4adX49LFi8ggJe0VQNa+JhQhCIxaZjGV3bt323d1G4/my4MiSx9++KFLXxxvvfUWfvvtNxt79ehhkiA4BJs8SSLgFQhw25EEgTU37DFvIggsid36zdbIWaw58pX9GKbke/YMxeuOVWv9EBd9Dsc3DUbxEkWxecMGt6S6eh0QHuyQIgSB1Q1nzJih+DC4iuBHe+HChYq3nVaD33zzjair4IhJguAIavIciYB3IMD3F99j9po3EYTYuDhkzpIFOr+MqNBsDkxJdx0qz2wvBq473gp9SDac/mcCrp9dhQnjJ6JL586uu5xs+QkEnCYIZ86cQbVq1UQgoJIWHh4ORkGzxoG/v7+STT+1rUWLFuHNN9906FqSIDgEmzxJIuBxBFgjhlUyb9y4YXdfvIkgsPP9v/oKo0ePQrGafRCRtQIspmS7x+RVJ7D2idqKA6u6ICxYh7///htly5Txqi6m5844RRC4f//666+L4ktKGgnB3LlzBTlwpzFo0VFddUkQ3DlT8loSAWUQ4F53t27dMGnSJIca9DaCwLiOrNmyQR2YCyVrDYHVnOLQuLzpJNZ+SIq7jINre6JgoYLYt3u3zGpw0wQ5RRCodcAiRUoaC9owvYkfXHfbrVu3RJEce9KcUvsoCYK7Z0teTyLgPAInTpxAjRo1QC+CI+ZtBIGLtjdaNMeqVetRockkaNTu8b46gp3t51ih9Q/HuQOzcfPMKgwePBj9+/Wz/XR5pMMIOEwQWO2M5EDpEqxMaRk2bJhLgxGfhRbTrLhtYq9JgmAvYvJ4iYBnEaA2Cj2GzpSm9jaCQESFJkLHL5CvXBvkKPIGzCmuyyxz1wxaYYFa64/9qzrCmHIPmzdsFMROmmsRcJggXLx4EUWLFnU4LTCtYb3zzjtCWEWv17t21M9onZkSCxYssPv6kiDYDZk8QSLgMQSY1li7dm2nM6+8kSCwtHiOXLmgC8iKco0mw5wc5+PBivdvE7VGj5SUezi0pgeKFS+E9WvXihRZaa5DwGGCoHStBRbl2LFjBwoWLOi60drQ8syZM/H555/bcOSjh3g7QeALkQJR1Hx4uNY9VeoY80HlSapSSgMoOkPJcOJF45aTn5+fwCn1t6/jxL1q6hJwrDRmDKWOjeOkIFl6NW6NfvbZZ3ZJKj8Niz179qBixYpeB1XX7t0wedIklHxpEEIzFYPVbPK6PtrfIVZ8DMHloz/j0vHfRdYJx+gupU37++v7ZzhEEE6fPo1ixYqJOgdKGeWZu3Tp4rGthdRxUG6Vgkz2mrcRhPj4eGzfvl2I0lD8hcI0/OilVZuCDxjJQYECBYRgTdWqVYVojbsK5NiLtSuOp5APCwz98ssv4jdXYfy7VOMHlDU+iFPevHmFoE+ZMmXET+XKlcGiQt5uJDx//PEHli5dCn7YeI88HG/D+4A/zCDKnz+/GCelh/lToUIFj3r2lMCWXk+Wct60aZNink8GNkdGRirRPUXbOHv2LMqWKwv/iOIoWr0vrKLUcvowfWBGHNrQGwl3TmLK5Clo365d+hiYF47CIYLA9EMKFyllVapUEZLH3mAxMTHiQ8kPhD3maYLAICtiyJcfiQEV60gIHDXK3pIEcm5eeeUVUZnPFaVXqXPhTD/TGh9L9tpaSfDgwYOCFFBkhsTXESNpKF26NLZt2/bEypu1P1iwyFGFzqf1h5odTM17ntFbtGHDBhH4y9Lr9goBpbYfERGBQYMGCRL/uK1duxYTJ058Xlec+nfeJ//3f/9nVxt8JiiARIK8evVqrF+/HhR1U9JY+4XKrs4YyedPP/0kiJlSlpiUhEaNG2PX7sOo0HQqYLH6sK7iY6iotTCbEnFwdTfkypkRmzZuAmt3SFMeAYcIAmsg8KWghHHFQiEkR/UHlOjDw21wlUWXIaOb7TFPEQR+eLgtMmLECDALw5U2cOBA8IcraSWMZIx7iM7UwEirH4xy5sfsWUZPCo8hbo5krTzeNj+gDHqjm/5hI2Fr1KiR4gThr7/+wquvvvrMMTKvnzE1zB1XwlgfYeTIkU801bt3b4wdO1aJSzy1Dc5TPxsi18+fPy/ICskyV/dKejldNUBu57CCZKZMlEdWzsaNH49evXqiIAs4FWoMU7LvByumokOVxbs39uDktm+Qv0ABnDl1yuPeZ+Vmzntaspsg0C1J1qzUqi9jxoyiwiJ/e4NxT5bZGQ0aEqoAACAASURBVOvWrXvExfy8vjVv3lysQt1l/BhNnz5dkCu6E91ldK1/+umn6Nq1q9O5yEeOHBEueqWN2hwsE/w0o3u9c+fOinqtnkYQ6J1g+XOlP1Tffvst2j3FtUrCw0Dbr776CpcvX1YM3qcRBHqYlCIhT+usrQSBWVVNmjRRbMzuaMhVBIFe0MJFi8BgDkDZBpNgMaWfbQbOiy4wA87tnYlrZ1agT+8+GDF8uDum64W6ht0E4bvvvsMnn3yiGEhcxXHF503GAK7o6GjcvHkTUVFR4oerMX6UqRiZ+nd015JQcK+arniu6lxtXG3TXcoAnStXrrj6ck9tv1ChQoIQ0bXuqLlCR4N94f45SdPjBX/4kSZ2b7zxhuJei6cRBH7Y+KFW2rjF9/XXXz/RLO8PruZdcc20CAIxZdVFPhOuNFsJAol9gwYNXNkVxdt2FUFgR3v26oVx33yDknUHIzSiMKxW5eLGFAfCzgY5Fo0uEHtXfA6TIRq7du5EZIUKdrYiD38WAnYTBAaw7dq1SxFUWbWNK5ywsDBF2nNnIyQFdO8zK4CEgm73bNmyubQLJCRUfeOqVGm3vCMdp6gUXc5t2rRxKJJ48uTJae5pO9KXh8/hthXJ3OMxE1xVf/HFF4p5vx6+5tMIAsk0SbXSxi25X3/99ZFmeR8yA4f72Q9nqih17bQIAokB73sltmme1U9JEBybRW6z1Hu5PvzDS6NYjT4wJcc41pCXnsXUR6MxHofWdEdYRAA2rluPEsWLe2lvfa9bdhEErqK5clQq0Kdx48ZYuXKl76HmgR4fPXoULVu2FEFX3mRMiZsyZQo++ugju2MTSHZcFdzGyqKpstn8eC1evFjg5yp7GkFgNgjjEJQ2EvV//vnnv2Y5xiFDhmDo0KEu+1inRRB4XzrjRbIVF0kQbEXq0eMSEhNRp15dHDl6BhWbzYLFZADSkRcBsELjF4pb5//Gvzun4vU33sCvv/zyRCyQY+jJs+wiCIyOZ1nn1NxpZ+EbNWqUiPCW9mwEtmzZgrffflusir3RmPFAksDccluNHpjWrVuLD7crjGW72T6NgWsMPLU3M8Wefj2NIOTLlw9Mr1PaGAf0sALgmDFjxLaCKzwHqX1PiyAwQ6J+/fpKD++J9iRBcBzib2fNEp6zPGU/QO4iLWBMSV9ehFSScHr3ZNy+uAlt27XHjGnTHAdMnvkfAnYRhB9//FGkGikVcMVMCF/bL3T3vbNv3z5Rl+LSpUvuvrRd16MOAOfT1pxwbs9w7qnT4ApjGmCPHj1EnAarjbo6XiMtgsAtIe7Pu2I7iFta3J5j+ySQDMxk3IwrLS2CwCBZdxRVkwTB8Znlgq5AoUK4fScOFRpPT2cehAe4qNQiaPHgmq6wJF3FvB9+8Eg9H8dnyTvPtIsg8AUxevRoxUbCFbGr9+0V66wHGqK4Ed3kzBzxBQsKChJbIFzdPs84JrrJjx079rxDHfr3tm3bYtasWYLQzp8/36E27DkpLYLAVDuSE1cZq6imClo5WmzInr6lRRAYKEndCVebJAjOITx8xAgMGDAAJWr3Rnim0i7bhnKul06erQKMhnjsXfYZQsPDcOjAQdCDJ81xBOwiCErKK1PkhfuXj0eaOz6U9HUm95SpFU/xHV+yTp06gcGHzzOudqna6EyhnGddgxoBJAm8Z13pdk/tQ1oEgUGRJCiuCuDjC5+FxbiKd4elRRBcGUfy8JgkQXBuhvcwWLF+PfiFFUfpuiOREs/tSpVzjXrh2Rp9MO7d2It/d4xDxchyWLVypaICVF44ZJd2yS6CQMUwKvQpYR07dhT71tKeRIAfFH5YHCka5Q142uoZotufqpxz5859QvbXG8ZhTx+eFoNAzQVmenC1z7gLV5EFe/rq6LFpEQS6r5nuSs8iCX9aUt6OXk8SBCWQ+18bZcqVw/ETJ1H51bmASgdYjMpewAta4/OlDQjH2X3TcfP0GrRtfz8eQS5EHZscmwkCV2HcDnBUqvXx7jEVyx17l47B4tmzmKvfrFkzu4SabO1xqtY+f9PNzzRNpY2aENwXt7UqJ7UlmHXAGAYK3XhbpoYt+DyNIKSee+HCBZEeTAEn5upzzL5mTxNK4jgYZ0H1UdaxIBnibyXlpW31IPDZYXaULxk/XtRccXVlwi1bt6JuvXrIkr8OClXoALPxfjGy9Ghav2Ac2zIMMVGHMHr0GPTo1k2SBAcm2maCwIAoqugpYXwgqIHvChU9JfrnyTa4yqxZs6aiKn+hoaGoXr268Eqk1lTgHFDq+MCBA8JTwQI+SkX5M/WRuve8pr1GIkpVPnqYzp07Z+/pHjv+eQTh4Y5x1T1+/HiRlugKguYqEJ5FEB6/JjNHKILGhYASQc22EgRuXbH2wtPIKe97pmszw0UJb86cOXNEzRJn22I8DrOBXG1VqlXFnt17Uen1OdBAyzKerr6kx9pXabTYv6oz/HRG7N2zB4U8XCnYY0A4cWGbCQJLMdeoUcOJS/3v1ODgYBFV7osCSYoA8IxGuO1CGWCljHUz6P59XoVK7mUPGzZMsYA+ez4maY110aJFLq/PwY8Fi7yQ+LJQE1dxjpo9BCH1GiQIrlYRpaeIHzAWAiIZpJiSo2bvnFKOnYsAek+cNVsJgi3XoWeDWTep5bxtOedpx7D6qy8tdCZMmoQe3buhQGRbZCvYCBZDevUiWKHS+CEx9jKObuyPHNmzYvWqVSguRZTsut1tJgjcZ1RKaIapWfwgBQYG2tXZ9H4w3c78kCsVuMcKeFzB2VpciW5iehmUCHrjR5dzTBlZR4zZDQxidIWRFDRt2lSIO7FUM43eE8bYOJoO6QhBoDQ30xOVNq6eKWj2wQcf4J133hFlm2lU4OT/O2r2EgReh3VNKKntrClJECj0RpVNJQgCM1W4peYrdv7CBZQsVRLagFyIbDwFKQnc6rL6Svft7KcVuoAMuH5mJc7smYGGjRph6eLFNm992nmxdHm4zQRh9uzZTy0OYy8yfHmxUA9d0dL+hwD3p1u1aqVI7AGZMr0+9paQpYuWyniOfigfnk+WF2YhH0fs+PHjKFmypCOnPvUclmXu2bOnyG7ImTPnI3uSJEeM+3C0SqkjBEFJ0p06aM731KlTRcEi9ulh4/YNi6LFxjpW1U8ShCdvLV8jCBzBZx06gO/z4jX7IjxLGVhMKYo+Z97VmBVqfTDO7puKW+c3i62lhT//7F1d9OLe2EwQlMx35oufAkCPl8b1Ypzc0jWlymhzC4cyvI6uwFesWCEKGjmbHsgaDd9//71D2CnpQeBWAgWcuO9fq1atNPvDPWSqzc2YMcOh/nqaIHCM9BhNmjTpiRoUDw+I24Qkjo6YIwSB6aYMWnTWpAfBWQT/d/6du3eFh8mizYxSdUfAmq4JArM5VdAFZsKRdX0Qf/c4Jowfjy86dFAO0HTcks0EgfvTAwcOVASKChUqiJeUJAj/g5PVB4sUKaJIQBcVClnjwtGgp1u3bol4E+7LO2PUumDkPgmLvaYkQaBbnaJJz+vHzJkzRbEjR8yTBIGeERIbjvN5mSOsAuooCZIEIX14EEiG33nvPfy+6E+UbfgN/P0zOB1k6cgz495zrGAdy91LPkRgYBDo3azhQBC1e/vs+avZTBBYM4F670qYJAhPokgdfa6SlDBmJbz//vsON8Woc251OFsngWmxJIIsv2yvKUUQ6HK3VWXQmUBcTxIExq3QY2TLlh2JEmtmOBJ1LwlC+iAIHMXSv/5Cy1YtkSV/fRSp3BWGxDv2PqI+d7xG64+kxBs4suErRIQHYvPGjShapIjPjcOdHZYEwZ1oP+VaTHVj+qESZbT5keAH0ZaPxbOG7sxqOrVdBqFSD8HW+gwP90dJgkDtDkbzP88Ydc8PPVNN7TVPEgQGV5Ig0JPwPNu4caPQCXBEo0AShPRDEDiSQkWK3C9k1mwWtNoAWC323/fPu9+86t+tVqj0gbhzcRNO7ZqKsuXLY9+ePTa9G7xqHG7sjM0EQckVbvny5cULzdVbDIxMZyU9Wz4O7sCcK3NmcDxef0LJgkIMtFMiapx15FPLJTuKDffFf/311/+qKtrTjicIAvvnqFooPRXMr7fnnlYqSNEegkC1Q24fORKoSC8iK7DaYzIGwR603HssBbuaNG2CLAUaIl+ZNrCYlBdNc++IbLkay0OH4fLRH3H5+B8ilXrO7NlgHRlpTyJgM0EYO3YsevfurQiG3JtmkKKzq9zndYb9Zb+9ybp06YKJEyc+0iWKRjFVSoky2pT15UrPWaMXgqlgzgYqDh06VBSJsdc8RRBYJpoiT/Tq8CPKlTbnhX/m3zE1jv9PFz0JX6q0MH9TTMzbCQLVM/lMXLt2TYyNXhOm/XFM/DPHx4yO1DE+PM727duD82mPSYJgD1ruPZZCaXXr18Pxk5cR2XQGrC8EQQCsVgv0QZlxdEN/RN88iDFjxqJ7t25es5B0713w7KvZTBD4UWNhFiWsYMGCQrfd1QSBkfhUCPQm69+/P4YPH/5Il6ZPny4i6J01ekqYW88cf2eNHwamArKugjP28ccfi1oL9pqnCMLT+sltB5IA/iZpSv3Nj2nqv+XKlcsuOVdPeBCeNj7ON8eROhaOkT8cM8fIP3OV9Xjq5PPmVRKE5yHkuX/nnI8cNUooXuYr/wlyFG4GU3KM5zrkziurVFBpdDiyoR+S4y5jxvTp+OTjj93ZA5+4ls0E4YcffhDCMkoYPzzU23elUBIV4+h6dTYSX4nxPtwGt2qYEfKwKVWSmC9wauA7suef1jjp6aG+vjPG1E3q49tr3kYQ7O2/Lcd7E0Gwpb+OHCMJgiOoue+c2Lg4FChUEAmJZpRvPA1wIP7Gfb1V9koqtQ4mUwIOrf0S4WF+WLN6NcqWKaPsRXy8NZsJAlfiXJErYZRYplqgK/d9uPKtWLGicKV6k6VFEJjVQRlcZ414UlaZSoFKGEWFnCVYnANWNLTXJEGwHTF7YhBsb1WZIyVBUAZHV7YyecoUdO3SBQUqtkWWvPUAi8mVl/Oitq1Qa/2REHMeh9f1RdZs2fD3mjWKC7R50YDt7orNBIFBhY4U30mrR5T+/ffff8GtBlcZlfhY9MjWFDdX9ePxdh8nCNwH5l6/I0Fj7uqzM9ehIIsjJEMSBNtRlwTBdqx45IsstZwWUufOn0etl2ojNsEPFZpMgTHxrn2A+vjROv8I3Di3Gqf3TBdCaiuWLXuuZoqPD9nm7ttMEC5duvSfprvNrT/jQKr1UQ7WVcac9vr163tdtbzHCYKSVTJdhaUz7RYoUAAUgbLXJEGwHTFJEGzHShKEJ7FiLEKbjz/GjwsWoESt/gjPVh5mQ4J9oPr00cxsCMX5A3Nw/fRKVKpUGdu2bnFYaM6noXis8zYTBEY1c6XLyFcljIF6DNhzlf38889CLMgRQRhX9YntPk4QmMHAtM/0apkyZRJVEu1NNZUEwfY7QhIE27GSBCFtrLglW7pMGSQadCjfaCKsRkO6LgX9JAoq6IMy4cS2kbh7ZQd69uqJkcOVEa6z7+70rqNtJgjsNsvGcmtACaP3gF4EVxlloR8PBnTVtexp93GCsG3btqfWB7CnXW89lmV1o6KibK4omToOSRBsn1FJEGzHShKEp2P11cCBGDl8OIrV7InwzC9esB6ForT+odiz9P9gMiVh3DffoHOnTnZlJtl3J3r/0XYRBGr8U1xDCQsNDRUrS1elOlIq+I8//lCiq4q2wVRRFg1KtVWrVrl0q0XRzjvQWL58+YRam70mCYLtiEmCYDtWkiA8HStW2K35Um2o9TlRrtFkpMQ5l+Js36x4x9FqjQ5WFXBwdXdo1PH4ccGPeK1ZM+/onAd6YRdBoIb7t99+q1g3+RFgKp3Sxm0FljtWytvhSP8oe8s0Tp1OJ/ayqJ5IFcVPP/0Ur7322n9NsqiSEroFjvTRHefkyZNHqFnaa5Ig2I6YJAi2YyUJwrOxatW6Nf5c/AdK1R2CsIylYDYm2geuzx9tBVQaJCXcwJH1/aDz02Dfrt0u+U75AlR2EYQJEyage/fuio1r4cKFePvttxVrL7UhKt45otmwdetWkX7prHHV/OOPPwpSEBISIjTySRaYvfG4pXeCwNLeFMWy1yRBsB0xSRBsx0oShGdjdfvOHRQrXgwJyWpENp4KszHlhXSxq/VBiLt9Aie2jkChgnmxft06scB70cwugkCN/+bNmztUzCYtYB93t3sa/HfffRckLc7aJ598gjlz5tjUTHonCGXKlMGhQ4dswuLhgyRBsB0ySRBsx0oShOdj1bNXL4wbN07EImTIGgmL2fD8k9LbEVYrNAGhuHZyCS4cWoDKVSrjryVLkDlz5vQ20meOxy6CwBc9awY4UgkurV6wGNDu3bu9BvDXX39dSBU7a1RGpPKkLcbqevXq1bPlUJ88htoZ27dvt7vvkiDYDpkkCLZjJQnC87FiLEJkpUoICM2H8o2mwJAQ9fyT0ukRuoAIXDg8H5eP/YbmLVpi4c8/Q6/TpdPRPjksuwgCUxzz58+vmPgQ9+bPnDmjqL6CMzPnCYLAEs9Vq1Z1pttefS61KBwJbJUEwfZplQTBdqwkQbANq7bt22PunDkoVq0rMuSsBospxbYT09tR9CT4B+PktrG4e20XOnXugtEjR7osuN7b4LOLILDzSkmnpgLxzjvvgJoF3mCeIAisdeCKQE1vwJN9oHeE1RHtNUkQbEdMEgTbsZIEwTasEhITUahQQUTHWRDZdDrMhqQXMhbhPlrUSMiMg+u+RMKdExgyeAj6KVAx17aZ8OxRdhOEJUuWiDgEpYz1AxjExsA+T5snCAI1AhjMqISgE0WJ5s2b51X7ZBkzZgTVFO01SRBsR0wSBNuxkgTBNqz4PvqyVy9MnDgJRap0RqbcNV8wdcXHcFJpYLEacGRdH6iRgFnffot3XBBgb9vsuO8ouwkCuxYeHq6YoiLbY+pku3bt3Dfqp1zJEwSB5XQZHUui4KyxFC+Fl9KDR0ISBNvvBkkQbMdKEgTbsWKhuwIFC0KjD0NkszkwpcQCVqvtDaSzI1keWqXxE0JKKrURfy1eglcaNEhno3x0OA4RBKW3GbjCpKtdr9d7FGxPEAQOmDEIjEVw1vz8/MCgx2rVqjnblMfPlwTB9imQBMF2rCRBsA+rr7/5Br1790besu8hZ+HXXtxYBAEbqz8GIP7eaRxe3w958+XHLwsXokrlyvaB6kNHO0QQJk6cCKYoKmls75tvvrFbs1/JPniKIDAt8rvvvlNkKGzHEQ0IRS6uYCOSINgOpiQItmMlCYJ9WN2+fRvVatTAlWsxqNhsBsyGF0046Um8NH7BiIk6jOObhyNb9qzYuH49ChcubB+wPnK0QwSBCoWsy6CkcduCQkWlSpVSslm72vIUQZg2bRo6duxoV1+fdvAHH3yA+fPnK9KWJxuRBMF29CVBsB0rSRDsw4qxCEOGDsXwESOQt/T7yFmsBUzJyhTss68n3nS0FVp9MK6fW4uze2eibPnyWLdmLRhvld7MIYJAEF555RX8/fffiuJRu3ZtUIyJdRo8YZ4iCNSCqFGjBkwmk9PDZqAiS0i7qsaF0x20sQFJEGwECoAkCLZjJQmCfVjxaCrTFipSBDejbqFC4+nQqD27FWz/CFxwhtUKXWBGXDj8A66eXILatWth6eLFQjk3PZnDBOHs2bOi3oHRaFQUD6oZUmSINQzcbZ4iCJcuXRICVDdu3FBkyK6SsFakczY2IgmCjUBJgmA7UA+OTEhIEKXrExOdd5evXr0aDRs2tLsPvnbCH3/+ibfeehNZCzZEgQrtYWbAIlS+NgzF+6vxD8OZXRNx+9IWvNG8ORb9+qvi1/Bkgw4TBBKDRo0aYcOGDYr2n+JJLNPco0cPt5METxGEuLg40Hty8OBBRbBk1U16Yhi06KsmCYLtMyc9CLZjpbQHgTVX3nvvPfs64INH3717F3Xq18O/py4issl0qKCG1eK8x9MHoXiiyxq/UJzcNgJ3b+xHp44d8c3XX0ObRt0dXxyrwwSBg+VKlSt+pU2tVqNnz54YNWqUW8U5PEUQiN/HH3+M77//XhEo6X05cOAAWCjJV00SBNtnThIE27FSmiD0798fw4cPt68DPnr04iVL0OrN1siUuwqKVe0D4wsfi5A6kVZo/EKwf9UXMCXdxuDBg9G3Tx8fneVHu+0UQeCe+UsvvYQdO3YoDgY9CaxpQG+Cu6poeZIgMJ6DcR1KGaNq6d3JlSuXUk26tR1JEGyHWxIE27HikUlJSciaNSvouXPWmFLsivefs/1y1fmNmjTBmlWrUK7hWPgH5ZCbDA+AVqm1sMKMI+sHICn+EqZMnoLPP/vMVdPgtnadIgjs5alTp1CuXDnx0LnCihYtilWrVgmlRZXKtXteniQIxC5Hjhy4fv26YjA2adIEVL50ZTwHo5zNZjP2798vtoXGjx8PFuFy1iRBsB1BSRBsx4pH8n4lcVYi5ocl3CkoxJiGF8G4kHntjdcRlLEsytYfjaTYyzIWIZUkqACT1YR9yz4HVCZs3rgJNapX9+nbwmmCwFiEzz//HHPnznUZENxLZ24/r8Pywa6yFi1aYPHixU43b081x4cvNmLECHz11VdOX//hBhiPMH36dBQqVEjRdrknSQ/FmjVrxAqKRJEepUGDBgkXm7MmCYLtCEqCYDtWPJKkls/DuXPn7DsxjaO5aGFQ9Ycffuh0W77QACv5Nm7aFFu3bkPJusMRHJYfFlOyL3TdLX1Ua/2RnBiFY5sGQaNOxuI//kSDl192y7VdcRGnCQI7xQ8DqzxeuXLFFX38r00qLb7//vv44osvULBgQQQHB4MMXgmLj49HzZo1wZLWzpqjBIFxA9yyUcL1+fAYuEUzYcIEEW1NvQl7jXLQjPhmv+gpYHEteibSigKvUKEC9u3bZ+8lnjheEgTbIZQEwXasUo9kWrFSWwN8FzFVOUOGDHZ3hM9WdHS0SI9zpafP7o4944Rbt24hX4ECsKj8UKHxTFgFQXCtd1fJ/ru2LStUuiDE3TmOYxuHIlPmDNizaxfy5Mnj2su6qHVFCAL7RolfuuiV/rilNW7m+HMFQG9CnTp1ULlyZaFkFRgYaBNM9HrcuXMHFy5cEOWmjx8/LjQd+GFTomiSowSB/eJHnFgqbQz8pLgVyy/TqxAZGSliO9LatqELlu7XkydP4vDhw9izZ4/wEJAA3rx585ldI2Hjy5JEwRnjnCgRZElCxLnm+L3N/vzzT7Rs2dLpbkmCYD+EfEaVFBSjwNu4ceNsiiPiO+bq1avYtGkT/vrrL5G9RO9h69at7R+Ih87o0q0bpkyejKJVuyJD7pqwGp1PGfXQUFxwWSs0+mBE3zyEk9vHIH+BPFi5bLniXlwXdPyJJhUjCGx56NCh4ocfGHcbGThJA/fxM2fOjICAAJCd8wNoMBhEcSnKht67d0/sGdJFzn93hTlKENgXqlTy46pEjvazxsYgUO7DkiTwI8oPKDEiwSM54CrBUXyY/rpixQqnPspHjhxRZDuJY+Oce6Px40BS7ay9CARhzJgx6NWrl7NQ/Xf+pEmT0LVrV8XaS22oevXqaNasGUqXLv1IVVU+T9Q7oWeMBJqeyoc1ZFiPZfv27U49M4oP5hkNHj9xApUqV4ZanwkVGk+DMTn6hS7k9ARUViu0ARlw7d/FOH/ge1SoGCmElPh98iVTlCDwg9K9e3fw4XuRzRmCQNxYl4L1LnzVqITJ7RJHyjynjpkpn0z9dNZIfJYuXSpe2t5mbdu2xZw5c5zuFl86dJfnzZvX6baUbCA2NlZ8KPlhdNbefPNN/KqgCA0/0AyudpXxvnt4y4Bk4FmEm4T99OnTXlH23lZMxowdi379+iF3qdbIXawVzEYZi/AodlZo/cNx7d8lOHfge9SsVQtL/vzToa0oW+dE6eMUJQjsHFeh1EZYuXKl0n31mfacJQhUqeS2Cb0cvmh8OdJ9+zwBGe69nj9/XqzwuQ3AcfNjwu0MrqYo8aqEcduDH6ps2bKJh5Ny1NRNZ3lselCCgoLED7eoUv9MjxS9D85mztAbw60ZziW3ZzhGjpkeEpIopYxjKVKkiEjf4585xtSx0qPGsTFm5+Fxcnz8f2eM8Uecv9QfziPnkGPkVtnevXsV2bZjH7n9xueCRIikiHPIMXK8HIs98Uj8WPN+4MreG4z32W+//YZWrVp5Q3ds6gNJT/nICjh16iIqNJkCtYrqt95QDloFkXZoNgAuznx7PlBW6AIicGbvTFw/vUKoLc6a+a14Pn3BFCcIHDRvHJKE33//3RcwULyPzhIEdohuSMov+6qxJDhd6M+yIUOGYOzYsSLIlT+Obmk4gxHJDH/4cXn4d/ny5cU2ibMfUEa38zng+Lj15u4x8sOTOsbHx9m8eXOnxblYCnjWrFn/zWHqOJWI5XnavHJMnC+u0Lny5g89l/ZkALF/9erVE3EA3mKdO3f2Oe/rhIkT0bNXT2Qv/BoKRraHIcHDhEulhs4/DIkxF+EXlBUWERvh+QBKXVBmnN45ATfOrUGLFq3wy88/i/vW280lBIGD5oriyy+/BKVIGQPwIpkSBIF49e3bF6NHj/ZJ6JhxwgDQ3LlzP7X/3Ffu46WKYwzi5MeDq25njARhwYIFzjThsnNJ4n/66Sen2ldSAdSZjnz22WeYMWOGXU1QBXHkyJF2nePKg1nbhsG5vmSsa1G1enWcPHkKZRp8Df+ATLBa3B+DloqZSqXG0a3DkBx3A6VfHgE/vwxeIQlNv4pGF4CT/3yNe9f24JNP22LiuHE2B9Z76p5wGUHggMjSGdnLj4AnAhc9BapSBIH9p7riunXrFHPTuhMTxlJQOOlp5s0EoWLFisJF7ixBUDpaXsn5U6I0+KeffupSDRRbx9ulSxe743aOHj0qAmFd6e2wtf+px3HryZMl7+3tL48/fOQIIitGNO6o3gAAIABJREFUIjRjcZSoOwzmpFiPufa1fmG4fPJ3XDw0DwHBuVCx2QwvkoRWwT80Ow6s7oL4uyfRo3sPjB41yhHI3XaOSwlC6ihY8Ywqe77Gjh2dBSUJAr0vFImi9oCvGVUw//nnH7FHnJZJguDZGX3RCQLR57NFoSNvMYrBUdjMl4ziSS1atcKatetQuu4wBHlQPIkrda0+GIf+/hJxd88gY85KKFGrP0zJcR4jLY/MpUoNKyw4tnEATMk3RZBnv759vTZ7xS0EgQDxJuLNz0hkV6fwefrhUuLF+/gY6KpmcSzu8fqKcY+Y+hIUf5IEwftmTYn71Jc9CJwRBo4ym0EJ2WUlZphbckyFZJCsL9mBgwdRo2YNaAOyoVyDCTClOF/nwtHxq1QaJMRdwtENX8FiMSNH0VeRv3xbmJOZ7uz5eASVRnu/uNPyz2FMjsLMGTPwUZs2jg7Xpee5jSBwFFwNM3J74MCB4sPhTa49pVBmdCrjBj755BOlmhTtMKKfwWAMClMqul/RDj7WGCPn27dvj44dO4rIekkQXIm2Y21LgnB/G/S7774DiY43GLNNuKXIIlC+Zn369sXYMWNQsFJ7ZMlb734WgYdMGxCBi4fn4cqJ36FW+6Fgpc+QJU8dmFJivYMkqLUwGmJxcG0PBAZq8fWYsWjrJffgw1PmVoKQemHGIyxatAhTpkwRgiEMdPFlY4oVi0m98847QnyFAXquMqaNUWqaROthoRVXXc+edjluys4yZ53E4HmpPHKLwR50lT9WEoT/YcqSzfyhp9NTRoVYbsvNnj1bkYJn7h4Ha1vUqvMSomNVqNh0BowpMZ4TT7JS8tgPB1Z3gyHpJsxGE8q8PArBEQVgNRvdDU2a11Pr/GExJGL/2u7w05vx4/z5eNXL9Fo8QhBS0WL9A+ZLM9WN0dS+5lGgFHCbNm2EGh7z6Z0NaLP1rqUADeM6OnXqhKioKFtPc+lxb731liBHzMW3VZNeEgSXTslzG5cE4X8Q0btJca4OHTq4PRWVKZtNmzYVAmnc7nCkXspzJ9sNB/D9PWTYMAwfNgw5S7ZEvpLvwZjMFbtnTK3RI/buvzi6cSC0Wh00ujBENvsWVovRa0iCSq1DUsI1HFzTHRkyZsL3333nVSTBowTh4dvm4sWLogAQSzufOHFCaJV7U+YD9wS5P0g5Z8qpsqYBI909aSyxzZcaAxjpiSHhcofxhUaZZqZl8cX22muvOVSMhCu2AQMGuKPLdl+DctebN292mvRRLMpbA0yp/U9xHmfMl9Mc0xo3BbpYkZTKlK4qYc/rUuSJzw/rolCPgkJe6cH4zi4fGYmjR44I8SS9PtSjLn19UGac2j0JUWfXiiDFgOAcKP3yGMDsPbFcGn0Q4u+ewtHNw5E1Szh+WbgQNWvU8IrbwWsIQioadJvzwWS6DwVmli9fLvLp3W0UseBqmMWgSAaolR4WFgaWnvY2gQvGJFy/fl1oTpAw0CvjCsuZM6d4mdFbwPQw1rtwpgId934nT57siq463WaJEiWEDLKtBcCedkGK9/Ae9kZr0qSJ0zoALO1NYu9p4/Ye43OUMG4zkHAzVorxAEotVPje4PuEnpvUyqp8n6Q3+/2PP/Dee+8iImcNFK/ZHynx1z1GEpgxQG2E3Us/hUptEd6hzHlqo3jtAUiJveol0Fuh1vgh5vZxHN00GGHh4Vi3bj0qOlnwTonBeR1BeHxQjNpncSXK71KmlmSBH0NKpFLWlYJMzIrgD92Eae0h8sHkh4wPI/f5+GGjR4AffP7QJc5AOkq48iPI1TH/zL/3xiqAz5p4EixixQpxLPzEPxMvRmtza4LFmEjA+KDQJZgqJUxs+DEkLhx3lixZBBasAMmaCvxg8nd6fKEp8SDJNtInAnzn7Ny5U5Q5Z60EejZZ9I3PEp+jh0Xg+J7hM8R3Cj0ElHJmbBJ1DRhbQC8Bn6v0bowpq/fyy9i//xDKNBiDgKDssJg8F9uh1gbg3o09+HfHeGi0ahgNBuQp2Rq5S74Nc0q8d6Q/AtD5heHWle04tXMiChXKL+o28P3rSfN6gmArOCQSJAlpBTySHJAU8OF1Vlvf1v5463H0NvDlRrxYCyGVMKW+2Ly137JfEgFvQoBehVSyndovBumyUJkzXjVvGqMzfblx8yZy58kjyh5HNp39oBy0p1IMrfAPzYNjmwbiztXt0Gi0MBlMKPHSAIRnKwezl2Q2cMGm9Q/DzfNrcGbPDGh0epw6cQL58+VzZiqcOjfdEASnUJAnSwQkAhIBiYCiCHTq3AXTpk1FkapdkCl3rQd1ERS9hF2NmUwJ2L+yI6BWQQ0VVBp/lKgzEIHBubwmaJEDYgXI62eW49y+OShbrixWr1zpMc+TJAh23WLyYImAREAiIBGwBQFucZavVBEqTRgim86COTnao5lqWr8QRF3ahDO7piJj5kxIiI+HBcEo32QyYDLCarXYMiyXH8N+sALkxSPzcfXkUrHVu2vnP8j2FD0ZV3ZIEgRXoivblghIBCQCLzAC02fMEOnY2Ys0Qd4yHz3YavAcIMxqOLKhHwxxp1Cv/stYsWwZgjMURul6I2E2MAvMU9sgT2KiDciAS0cW4PKxX1H7pZewYtlyp4Om7UVeEgR7EZPHSwQkAhIBiYBNCDDWqWqN6jh08DjKN5oIrS4I8OhK3YqUlBgcWvslKleOFNlp06ZORcY8dVCocieYkqJtGpc7DhKehMAMOLN7Mm5d2Iyq1apg2dKlbtXJkATBHTMtryERkAhIBF5QBH786SdRFCtj7uooVqMfDAm3PIqE1j8U18+sxNl9s9C5UxeRnbJm7d/IW+5D5Cz8GkzJJAne40nQBWbE6V0TEXV+PRo0fAWrlq9wG36SILgNankhiYBEQCLwYiJQ/+WXsXHjBpSsMwihGYrBavGkUJEVLAt9eH0f+GvuYuOGjfjgww+xb88elKo7AGFZyj0IqPQSkmC1QuMfhtM7x+H2lR1o0bIlvp8zB0FBQS6/mSRBcDnE8gISAYmARODFRoB6EpWqVIbRGo7yjSfBmBjt0ZRzlVqN5IQoUashX4EC+PP331Gnbl0kJltQ+bXvRMCiJ4tNPXG3WK3QBWUUqZrRNw6iVevW+OXnn11+U0mC4HKI5QUkAhIBicCLjQB1Izp26oRZs+egUKUvkCVfXZg9WBKas6HzD8fF4wtx5eiv6Nevn6iD8dHHH8FkCUKZl8cIBUZYrd4zcSoVNDp/nNzxDe5d2wPKnE+bNg06rdZlfZQEwWXQyoYlAhIBiYBEIBUBCtllzpoVKcnJqPTaDx7f5aeXQOsfgn3LO0Cjisf5s+cEgRk4aAAisldEqXojkRJ7zasmkGJK+sAM2L+iAxLjroitke/mzHGZ4q8kCF41/bIzEgGJgEQg/SIwf8ECfNr2U2TKWx+FIj+HiSWhPUgVVBodEqLP4ujGQShVpjRWLV+OL3v2FAWTshVuhIIV2sEkPB1eEo/AnqjUYKnoY1uGI+bmIVEF9Juvv3bJTSMJgktglY1KBCQCEgGJwOMIUOa9bv36OHzkBCKbTodW4w+L2ehBoKzwC8qKM3un4/rp5Rg2bBi+7NED9V9pgO1bt6NIte7IlKcmzMmeJTJpAaTS+eHAyi4wJN5El65dMXLECMVr5UiC4MFbU15aIiARkAi8aAhs3bYNdevVRVB4fpSpPwbmlASPFkyywiocBPtWdEBEeJAoVR0THY3qNWshOjoexWv1RlBEUcDMglNe5ElQa6DRB+Lwur5IuHcaffr0wbChQxW9nSRBUBRO2ZhEQCIgEZAIPA+Btu3bY+6c2ShavTsyZq/sYS8CoNYFIObWYZzcOhrlypfF5o0bceLECTRo2BBJyWqUazQeapXOw+mZaaPKktYkCSmJN8Hy8n379FHMkyAJwvPuZPnvEgGJgERAIqAoAsdPnECNmjVhtASj0uvfISX+psczBvRBWXByx2jcvrQF3347Cx/93/9hzpw5+KJjR7ENUb7hZJiNCV7lReCkqIQnIRgHVneBMekqhg4Zhl49eyoyX5IgKAKjbEQiIBGQCEgE7EFg4ODBGDF8OHIWewN5S78Ps4EfX88ZsxrMViMOrOqM7Nky4Z8dO5AzRw707dcP48ePQ3iOaihavTdMSfcAbkt4kVlValjMSTi2eRiS469g2NBh6NG9O1iC3BmTBMEZ9OS5EgGJgERAIuAQAtRGqFq9GvbvO4gKTadApwnyaCwCB8GV+N0be3Biy0jUqFkbmzash9FoRP0Gr2Dnzp3IXaoV8pV8DwZBErwnHuG+J0ELtVaPfSs7wmy4jcmTpqB9u3YOzU3qSZIgOAWfPFkiIBGQCEgEHEXgt0WL8M577yJTruooXrO/x+s0cBy6oMw4tnkQku4cwfz589GyRQvcuXMHTZo1w+6dO1GsZk9kzlUDJoN3pT/eJwk6GAzROLF1JJLjr+Lrr79Bl06dHNZJkATB0TtbnicRkAhIBCQCTiNQPjIShw4eQKm6QxCasQQspmSn23SmAQb9WcwG7FnWDuEREbh544ZQKzx0+DBeqlcP8bGJqPzaXFBDwWpiZoOXmVoLq8qK/Ss6wmyMwdw5c/HhBx84JG0tCYKXza3sjkRAIiAReJEQuHr1KipWroTYBDXKvjIeMBs87r7X6EMQdWE9zu6dgffffw+zZ82CTqfDho0b0bJVSySnaFD6la+hVft5uHx1WneKFSqNH0zGeBzbPFR4EsaMGYMe3brZfVtJgmA3ZPIEiYBEQCIgEVASgS979cKE8d8gf7lPkL3o6w+EiZS8gn1tMWBRH5gRh9b1gjHhAtavW4+qVaqIRsZPmIBevXshNHMZlKk/EobEOx7PwHhydFbmbsJkisfBNV/CYk7Agnnz0bp1a2g1GpvBkATBZqjkgRIBiYBEQCLgCgRu376N0mXL4s7dOJRvNBFaTSCsVrMrLmV7m2oNUhJv49Da7sibLy/27t6NiIgIJCcng4RmxvRpyJS7BopU+xKm5Jj7xZ28yuhJ8IfJnIij6/vBlHIHkydPRvu2bW3upSQINkMlD5QIvLgIWCwW3Lx5E/Hx8WDBmODgYGTNmhUaO1YjLy56cuS2ILBm7Vq88cYbCM5SDkWr9YLFEO/xrQZdQAQun1iES0d+QofPP8fECRNEwB8zG15r3hxrV69BwYrtka1gI0ESvM+sgMYPKUlROLphEMzGWMydMwfvvvOO2DJ5nkmC8DyE5L9LBF5wBM6dO4devXphz549SEpKEgQhICAARYsWxdixY1G+fPkXHCE5fCUQSElJQeOmTbFl81bhug8MzweL0bMBi9Q7oMrigdWdoUEcDh44hAL584vhkjCXj6yAqKi7KFqjB8KzlINVBFh6V/oj+6rW+gmNh4NrugPmWEyfOg0ftWnz3GmTBOG5ELnvgBEjRmD//v02XTB37twYN26cXMHZhJY8yFEE+BKsU6cOTp48mWYT2bNnx99//42SJUs6egl5nkTgPwRIQuu+XB8qbUaUbfCNFxAEiGyFxNhLOLpxIAoWzIcd27cjQ0SE6PPhI0fwSqOGiI5OQZkGY6DXh4kMCO+z+4GLyQnXcXzrKBhT7mD6tOn4uE0baLXap3bXLQSBK47Tp0+LFcjRo0dx4cIF3Lp1CwaDQbg5/Pz8kDNnTuTLlw+RkZGoUqWK2Ot50axChQo4cOCATcMuV66cwPNZk2tTQ/IgicAzEOCzuHv37mdiFBQUJPLE+RxLkwg4i8CIkSMx4KuvkLfsu8hZpDkspiSPr8r1gZlw/uB3Yrth0KAhGDRggBgmv22//PorPvy/D6HRBqNis9kwG5McSil0Fjdbzldr/GCBEftXdgas8fjh+3l4+8033U8Qjhw5gi1btmDdunXio3flyhVQOcsW8/f3R4ECBcCPYPXq1cUKpnjx4g6LPdhyTU8fwz0t7uneu0eFrucb3bp8cfsqQYiJicHrr78u9rSVtMDAQGTJkkUQzrJlywr3t3SBO4YwiXz+B+7UZ7WgUqmwY8cOVK1a1bELybMkAg8hwLTHGrVr4+bNWFESmvEvsJg8jJEVlDM+sKYrwkM02L5tOwoWKPBfn0aPHYvBgwchOHM5lKg1AKakaK+TY77f2fuBi8mJN3By6yikJN3ClClTROAiYyseN0U9CGRTfKl06dIFy5YtU2xC2fFXX30V48ePF16GtAai2MU81NDZs2dRqFAhm6/u6wSBRKhYsWKIioqyecyOHkisZs6cKbxTMqjOdhQpLVutWjWbTvjzzz/RvHlzm46VB0kEnofA9z/8gHbt2iEiRwUUr/EVjF4QAKjW+iMh9jwO/d0H3OI9c+rUf4F+JpMJjZs2w4b165CtSBMUqtAeRi+UY/4Pd40eFnMy9q/sBIs5EQvmz8fbb731hOdDMYLAF32/fv2wePFi3L1793nz79C/c3X40UcfYerUqQ6d780n0dPSoEEDm7soCYLNUIkD6f4myeS9Q0+NtOcjYA9BWLJkifAISZMIKIXAGy1aYOnixShVdxBCMhb3Ai8CZZgz4cyuiYg6vw6TJk0WmQ2pRq9oi1atsGHdOhSu0gHZCjaGKZmeBO8LWhSeBK0/DEm3cWzrCBgSbuCb/2/vTOC2GvP//3nW1idtlBikRZIWiaFCWlXT70/8kFlky1Im22CyhGxln0kiS/YZjCnalYqQFo9CyhZpoVS0Puv9f71P7n53d2e5zr08i67v69WruM+5ls8557o+13cddZ+G/vWvezy+pAkC6h8c60jAgPYg3dKwYUOtXbs23d2UeftoX95++21H3fP+++87J2v+n5dUdoIAicQLnvjnshS0NO+88454j6z4I/DNN984pj4TwcRgqm0wac9eYxF47/331aNnD2VVPVjt+4zRzl9WlzsoTm6GjAwteGOQ8vKq6qsvv9rtsMjgln3+ubp1764fflivdj0fVpXq9cs9dbQ3aLtCIIsKNmnJjBtVUvyLU+aatMyklkaSJgj//ve/demllxrbzpN9wixYqON/y7Jq1Spde+21AtvfKkHYtm2bY4patmyZQ/jWrFkjwpzKQjp37qzJkyc7sfxWvBHAZ6hr166aM2eOL0z4fHA4IPTRikUgVQjw/g2+8ko9/vjjatzmPB3Y7P+Ve0lo5paZU11b1i/RJ3PvVJcup+iNCRP2ePfzP/5Y3bp305atxWpDOubsmlJ5J33yfCgRZWZVVUmkUEtn/l1F29fprrvuckpFJ0UQON2++uqr+l8fD0ivMbEwYy6gVjW2G6IZ2DD42+/UTHv7AkFgnhMmTHCShvxWCUL8vAin69+/v+bNm5eq9cW3nUcffVSXxagHy6TTStjJ5s2b1bp1a0Fa3aRu3boOgWjVqlUlnJ0dcmVA4IgjW+iLFV/p2L5jlJ1dEUhoRFVqNnTqHPzy4wKNf2a8zo7bBx8fN05XXHG5atRprtZd71ZxwdYKWLMh+vRJy5yr4sLNWjLzZpUUbdaIO+7Q9X/7W+IaBE58LAqmXvc4FrIBQCiOPvpoEamABz4sEZKAN/vHH3+sSZMmCXum12lyXyEIr7zyii/5quwmBreF6YILLtDTTz/tu2YNHz7cee8wbUEmsfthjlm4cKETjw/RNBEI6rfffqv69eubXL5PX7NixQrHv+jNN9/c/V3y7Z588snOaeO4447bp/Gxk08vAk8+9ZQGXTpI+x/aRS1OvF4FWzExl69dH+NvaUmBFk4apLr16unzzz5Tvbp1dwNBVNrtd9zhfB+1G7bWUSffpqIdmytgOub/e3Zkjfwq/3GtWz5JDz74oIYMHpwYQcBuTEiTiaq/du3azkn4xhtvVPPmzY3epJtvvlkjRoxwvXZfIQiYF84+++x9RoPARM8//3yNHz/e9x1ZtGiRyBfhJsTijxs3zvkof/nll8B37ZlnntFf/vKXwOvsBbvivTkUoEng3/hwEFFEiKMVi0A6ESgoLNSJnTop/6OP1Ork4cqr27xCJCPKrpKn9d/N0ZcfjtYZ/U/Xs888s0cuEA6+5wwY4DjuH3L0efpdy7N+DX9MJ1qJtQ3hKdz5kxZP/qtO6NhR7737rtNQQj4IN910k8j6FyR4jk+dOlUnnXRSqNBEnPTIf+AmliDsQuW3qEEwIQizZ892Tq5ewuaFmQI/gyC5+OKLHfumFYuARaBiI7Bp82Yd1vgwFRZXU/u+j6qkYGu5n8YjiohT95IZ12nHz187TuYnxoUFb9u+XS2ObKk1q1er2QlXql6jExWpAImf9nzaEVWt1UifzhmhzWvf08svvazTfzVvhyYInMzwPl+3bp3vG9WoUSOhJvfa6P1uxtyw//77O1Wz4sUSBEsQ/AhC9H0588wz9dprr/m+o7169XKcFe0puGJvDnZ0FgGI//U33KD7yYXTdqAOatZPxQUVoDhSRqYKCjZp6VvX66CDGmje3Lli74uV5StWqEfPnlq7bpNadx2hajUPVEm515j4vxHuSsG8RkveukHtj2mjt2fN2u10GZog4NhF0pkgeeKJJ3TRRRcFXeb5O0l0li9fnnKCwIsWtV/HNs4mgZ9EujcL+o72T1/8cUveUxYmBi8swKE8klGlQoMQfaa8o0FOiITlvfvuu0nN1Q3DsnqXEv64KuiNFssK+mAqyLDwL6rfsIEKdxbouH7jlJGRWwEc/9Ai1NWaFW/q68VjNXDghXri8bF77SP41vU/6yyRTPi4fk8rUlLkhEuWv5APobryp12hwh0b9f2qVWpwwAG7hxWKIGCDRHsQlB6XhRd1SzK52fv16+eajTFRDQJmC1ITUwuCsDrmEE39zAaN0xp2VRwoO3To4PhYpCqNMYQAT++ZM2fq008/dRw7ccIEn1q1ajm+GajEu3Tp4vw3kk6CgB2Z8YAHjno4+oEFCzTOo3imt2zZ0sHg1FNPdaJNykJSSRDI7IcWISiXBM6NYckQDkjchyljyZIlTlU3Fq8o4aM2AameMQOh7QBLvz6+++47p72w4+CZ8G7x3sTXLsH+iVNhGKF/2mL8JO6KzimoDfpinmj9wgpY5ufnO1iSkj2KJe2AJ98lBaFIu46pMihtNhpOnFXDZszkPeFQQkr3VAtt8+0HrZvRfr2eaarHVRnbmzxlivqf2V8167fRkR1vUHHBlnJ3WIwmHVo680ZlRX7SjOkzdGz79nvBO+axx3TNNdeoau3manXqXbv8ESKl5foYyA65ad0iLXt3pC666EI9PnbsHuMJRRBYdIlC8KupQPElnBdJRZmMXH311Y4nZbwceuihRgmZ+ChxWiMU87777jNyqIztCyJCiVs2GTbMRDQLhG2ygZAy1KQIE6opfDvOOOMMZ5Gjby8J64MAHl9++aXuuecevfTSS07ZXhM5+OCDHac/HE3z8vJMbkn4mlQSBCJhwNGPIECA2JhMN2Y2TBb6W2+91dnUTISNqk+fPrrlllucVM9uQnu33367SXOu11DzJN7ngvEFbabxjZHHgIRHfGNh02BDRpinqWzfvt0hqXfccYfI2BgU3hxtF8LKNwKJdyMBU6ZMUe/evU2Hscd1fO/33nvvXveyYRN2TNlrL+LB+P/4xz+6kiQIFN82BepMhWRenTp1Mr18n7mOgxXZCqdNna5Wp45QXu0mKnFs+uUrVHws2P6j8qdfq9q1a+nbb75xiHassG+eO+A8/ec/r6r+YV3UvMMQFRfgTF1emoQM5daor8VTr1DhtjX64L331LZNmz3GHIogDB06VA8//LDvk2ChYhGFKCQjn332mbNJEodNGBsfF34PbNRBiVvod8yYMQ7BoIpkMsLpHqfMP/3pT6GagRwMGTJEzz//vFgMwwgnpZ49e2rYsGGet4UhCGgImMOLL76YUBpsNCnEwj/11FNOAaR0SSoJwrPPPutERfhtPKS2njZtmhH5Q9tyxRVXOISPZxtW9ttvP/35z392NqD4hEKkKJ44cWLYJndfP3/+/L1CDUkpzfsXRhgjBIHxQWZMQ5jpg2+ezdtEiERhbGhN0CCEFbRskGe+76jGLdoGTqeDBg0K26RzPSG0kLV4QSvBusaz9xK+EUipG0li7UKjFGauvG+QICt7I0BytTbt2imrSm0d0+sfihSH/x7TgWt2tTpa9cmL+m7pyxp20zDdfttte3XDXjDgvPM0YcJ/1bjt+frdUWeraNuGcjE3ZGZX0dqvpmhl/jO64cYbdecde0cOhiIIvLB81H5COCMnzvISHgDah7FxqpJkx8PiQfilyWmTBYVF6uWXX062W8/7TQkC5AqtjwmpChoslf2mT58eqqhUUJuxv6eSIKDKo7iXn1x44YXCV8ZPOwTrZ/MbMGCAo5FKVvDLwT8iehLldMqJnWqniYobQTj33HNDv39RgoB2CZOBaU4Jxm1KEIhCOeeccxxTQrJy3nnnOVEomCGicuWVVzrpyhMRL4LAs8H0yGHFT1gf3DRBRHKddtppoYZkCYI/XPeOHOkcoA468gwd0vJslRRxCCuvk/iusUYipcrMztXiqX9VlewC5S/+yAkFjhc07L1699Y336zUUV3uUF6dpiotj/FnZmrRpCt0yO/q6+OP8vf4jqJjNiYIjoNI/fqukQWxAFDFsW/fvqE+hlRezGkMhxDT0tKmfWOHJ/2xSXjn9ddfr5EjR5o2ndB1JgQBjQsnH0wLqRJIAo598Z66qWg/lQSBcQbVBjFxpOVUSD6KRLQGbphAMEkxHSUvmJ44rZuq2N3ajDcxoNLGJ8HU5h1tk40WDQLldvEBCvMNmRAE1PSo4cOOy+/diid5+D9hskhESAbl9n0Tx06St6BnxLfGs4gXL3Op3xiticH/CZKLp2PnTvpm5Vq17ztWmcpQpNxLQksZ2VVUsHWNPpp+jRo3aaKPFixwNc3iB9a+Qwdt2rTVScdcpWrdMh1/TvW6+m7pi1r12csafutwDfv7310PSsYEwbSyGwVe3FhTIh+7CfG6AAAgAElEQVRsmHs4iaFGv/vuu8PcFvpaFgu/FMiff/65s+CHNSuEHYgJQTDZcMP2y/XgjO041WIy3qA8CKYaJOyDECe/ok28yyz6bJipFPpmHscee6zIUsg7y6mCqB2T8tf16tVz/AvwjUH7wAYUOw/IDG1CkHDI5QSMc6yX4JiHzw1/Y4fndI8mEFOAaWG0IIKA9uX4448P7QsUhDsmhlmzZu327yDBGpsrcwfbIGnWrJmDIQndqBTr5r+AeRFTYZBgmoGUx5s9MHeCDyYb3jmcUt3kkEMOcZzAMWuijbBVR/0R/8/rrwtNWfV6R6jVSbeppHBruWsRcFjMrXGAvlwwWuu+mqJRI0fqqqFDXSfy/IsvauDA81Wt1qE6uuvdUnGxnGJQ6ZaMTBUXb1f+tL/q4IMaKn/x4r3e2egQjAkCWef4gPyEBYsFLqwHcSrw4MPk1OiWOyG+fYrL8NGTkY9TEup35mdyYsIG7+WgBkmBHHnlrXebJ74a1KZAfRl0Qom9P4ggcPLl1MOY/ARNABsz82JRZTELOnkzZhh8/EKY7HM0IQhoLzp27Oja1ZYtW0TyI/JvBM179OjRuvzyyz2HjL0YTLB3Bskpp5wi1N1sEDg9spkwFj/BBBUNF2asnPqJEmrSpEng2NnISUvOd+Zn8uJ94p2m7gRaCzehGBP+D2jIaC9qbmE8zAFCjEYsqOpmEEGANFP1NUjQAGDOISKCZ01mzSAs0XagnUCYc7S+C5usm6Nz7BjwCbnqqqs8seQ9YF0z1XowDsYTK9HwTZ4zJhC3MHF8GPCXwleBfyfiFB2E7W/td3C98JJL9PSTT+rIjteqbsP2Kq0AWgTGlZGVpfn//ZOqVK2q71Z+q/r16u0FP+/DQ488ouuuvVY16hyutj0eUNGOTWlOABVRZm6evvjgPm1Y9Z5mvjVTrF9eYkwQYOZ8cH5CKJKJt36qX1QWBDYN7HZ+wiJ4//33i5z/sXZL7omemoJqAXAtGwAbQrxwksG5kPEECapW7NHUFSA6gP5Z9NnYMdMEnST9CAInFRZkTsCeDz4jw/GTwGYaG57GQogPyahRo3zn4WVvDZq33+8mBIGTcVRDxUkZr2ZCNXFqRb1r4ifAJoQvhV81R5wXMVf5VZiEaOLrwnWxC/rSpUudk43fqZ1nDhFj84kVTFNsyEGCRo8TeZBAmHHGZLN1E5N002ygDz30kG9XfgQBrPku/ATzJeQULGMdnNEC8K0sWLDA9360L/Gp3NH8EI3ht7lzYofwE97rJvh3EO1iKjiy4iDqJphpWYzd/LhYT0y0FKbj2FeuW/rJJ+p8UmcVR2qpfZ+xKtq5qdxDB8E+M6eafvlpmZbNHaGOHU9wKj66RYFB4C+8+GI9/9zzanTE/zhJoIp3bErb4yPaorBgs/KnXaMTjj9GUyZP3ivaIrZzY4Jg4vTVrVs3J/KgrIWcC0Ee1CzghDwS+uYnnM4wE/gJ6lzUhPGRGqhlCSP0E8aBL4OfjwIbOwVw/E5tfgSBBRlvaj+iQvss6m6bJE6WRFJAWLzkqKOOchbtVJb4NSEIyb5bqJLRCviZFugDvwO/cttcA7nyIs1sOmzgfr4LXj4QjJHIEz/BVo7NPEjQSrBxujkc8i5ifgjyJzH59v0IAmG+zNVPbrvtNicU1E3Q8EEw/MgamgDMI7GC5gFnS79DC1ij9SFXhZs88sgjntoXt+sh5pAxN8KBuYZoILfvGu1K2LDUoGe/r/x+x5136rbhw9WgaTc1aXfZr7kRynn2kVLl5u2q+Lhp9ft66cWXddZZ7mHraBKOOPJIffXllzq8wyVqcFh3RdLktEhq6E/mDNMv6z/TlEmT1a1rV//9KmKo17700ksDIwPw1CV1bVmLiVMgJxNO50Fi4kPApkjipfiQPxM1KgsWSWiCkjDRtl9YlR9BQDMQVGOAhc8vDA4PYb9oFJLXgAH221RJugkCBJZTatOmTX2HTFgaWgo/PxL8ACByXrkhNm7c6Gi1/MjmWWed5UpC+P+QWT/hVAv+QeJX+AwtB6GvQZIMQeCERC4Nv9TsmDbIMYAN3k0gNxB3P9MdxB9CF2veZGlDS0d4rpdw/b/+9S/HHBcv3E8xr+eeey4Iot2/k/+F54KpIF7I0QBxj19yMY0yfyuJI3Byly56Z+47atNjpKrXbKRIaRnY8g2GW1xaqI+nDVX9erX07ty5jhncTVhLevTqpZXfrlarU4arZp0mKikMFx4fNJxIRqa2bPhEn829WwP++Ec9/+yzQbeYF2vCXsvi6iflRRA47eKY5CfYMolDDxJUsqgBUS36LSqEMMYmMsKHAFV9kHnhySefdEwcQUJYFVkfvcSLILAgs7n5hc1ht+aF9FqQ6RMSg2raS9A8cFJKZV6EdBAEiBhqfAgup1QTwcwU9IxQe/ttHJwKqPXgp1HjNMlmEm/u4l0FiyDB4Q2fBS+B4PBOuhEdcEELBtELkmQIgol2j4RAQd9vUG0NCBMmvniNFj4Bfk7FzJ21DZ+UeOEZomnDWdNUyI7KM3XTBrD+uL0zaKvSGRJtOvbKfN3EN95wMizW2r+1Wne9RwVbkw+jTQUeVHz8ac18fT5vlHr27KEJr7/umSNo5qxZ6n/mmdq2dYeO6TNGWVmkkqbOYmokt+YByp86VBnFazXrrZlGGitjE8MNN9zgmmUsduicmLxsnamZonsr2IKDspRxksPeGCQsCpwaguyB8THTaE6CMslhkkDNyOkzSBIlCNjiUf/7CZ7b2Gz9HKHAE1y9hA0GEmFSOClortHf00EQcMLDKQwvfZMcFoyF0Dm/UyfXkIgpKHkW9mgcBL0ETQabCfb3WMG8gNo/KBKG/hmHl3AyJueAm5hsytH7kiEI1113nZPJ1E/wCyISw0+ImvEyQXAfvgaQ+njHWTAESz+TjVd2Vu7lG4g3z3AKxHzhZQIkmRzOiLFCbgmiEtwcLt2uN/1m7HW7ECguKdH5AwfqpZdeVJP2F6vBod1UUrx3sb+yxyuizCq1tGzubdq5eblefeUV35wYL770ki6+5BJlV//dbqfFVKRjzsqtoZ/WfKAV7z/gmE/HP/10oBYbrIwJAs5hQTZPNuAg+32qHxDhYUEqY067bHhejkjxYwpajLiezSzWoRHfA3wQ/CQMgUqUIODBT2IkP0ENyonaz9OfhSwolwOnHl62VEk6CAIkiLmyScWf1N3Gjc8ApCcolp55owHwwpB+SZDjR5jR4JB3wE0dbULIIRY4QnoROa8TK/PmHSdc1UQSJQio0jHrcLL3E8x/nNT9sMQPwU8bwzuNz0x8TYrot4pWxk/cEhNh5sHcEy84bbLueGW/RHOEOSFWeA+8SpDjr5JKTZzJM/0tXoOPypEtW+r7NT+pfe9/KkOZxLWU/1QzMlVSvE0fTb1K++1XXZ8sXbpHQaTYAfINXDFkiFPwqc5Bv1eLE65RSeG2JMM3I8K8sGjSJdqvVg2tWL5cdWrXNsLFmCCYqD1Rr8Gq/bzDjUYV4iI+UhYYPyGcMYyaEIcqHKv8BG1BbDEcE7s/oWZB3uDRPhMlCKZe8CEg9rx03Lhxzmk7VWJCEHBW40TI5sO7hkd4UOlxNAeMNShMl3ngoAmR8zPvpGq+zCNa+yC+TSIziHDx88BHI8U72KNHD9chQTxwUnQTN69/r3klShBYsDk0MJd0C34OEIT4qBD6JSKF/AZ+hBgNBpqMWPnDH/7gWvAKrQ1RRjgbu4nbOuh1gECzRaRGeYSGp/uZlEf7Dz38sK657lo1aNxdzY8fqsJt5vUv0jnerCp5Wv/NTH3x4WgNvGCgUxTJS6PJIeWCCy/UC88/r0Na/a8at7tQhVt/TDgdM32vXvaaVi55TiNHjtK111xjPFVjgkAImYk6mRAvFrayEpOyvnzoYXLd+6lmo/MCC5LdRAUnKWLG/YTseZw+TCRRgoCWJ93JoqLjLw+CEP9+sQnhiBZkEkKNjPklSItAmOSJJ55olGTH5Dn6XYP9H4LgllgMXxhOokEpsr3C6rxOv4wHQsGmaSqJEgTIFhEUqUirHDRWP4KAAyDP1G8cHCI45Ud9GBg7/hvxUShohvD9wNcHs4YX6cD8hnkLgcziQ0Gxu3iBOJiEtQbN3/6+CwGeV+dTTtGCDz9Qqy63q2btZlIFyI2AL0FmbnUtnTVMpQWrNX3adJ3gEz6Lf1Dffv302WfL1PyEa1X3wGNVWhRek5CRkeWEXC5Ee1AzSwsXLNDBLg60Xu+PMUEgtp4PJiiZEF7ReEeXlaA6xs7pJzgpBW3esfe/9tprvpUUuZYFh/CoqJgU3AlKzhM7hkQJAqea+JNQup5Fqp+1iQbBLZMi9l3U7UE2e+LT2VD9xEnh2rFjmRAEPxMDYzTRBlE/gYiJ+NMI2gmvLIiEp5LF0VSSIQj4uwTl9DAdh991fgSBTYOQU78KnIS94g8SJWtemWMhPFEzKqd/r6RisT5KrJmEUcZndkTTgLOwiaNoKjDaV9og4dRxvz9exZE6Oqb3IyrcTvKh8q3TAPYZmdkqLtqqhW9equp5NfX9ypXi+/USfF+aHXGEfli3Xm173aeq1Q4InY45O7eGvlj4D/24co6ee/Y5DQi5NxsTBCbBxxFUHRGPYBbisnogbIZeqr7YzdskxDF6vYkdPz7nQ0UhCCa261QtFODkV5I6bD+JEgT6MdGcsCmiCfPL3VCWGoQggsCJl00oiPjgCxMb9cDmBoF1i2Bmo2IjDJMFszIQBDRE5Dtw80Hg/QjyK0LFj88I3zXiZWYcPHjw7mJQp59+umfoNPVoOJTgzAuJYO2Mr+bIIYBnEV8WOOx3Y6/fEwEI2dCrr9aYRx9V47YX6MDmfVW8k7LK5S0R5VSto1Wfv6pvlzyva66+WiNdyovHjnLCxDfU/6wzVaV6Q7XpdrfjV2EcwpmRocKdmxzfh46dTtTcGI23KRKhCIJJ8hhyAaA2JWthMkKY3gsvvLCXCo8PmbLT0fZRc5Ne10/CeGzTDqGIqK39BJMCmoaokF6VDIh+UhYmBhNnUk6bnF6SFRbAoAx5YfpIhiBgeuCUiDbBS9gUUSOzMHsJ3u5oEPyyIHJvNDVxmPnFX8umhkbEL+e+iW8LIX6ECUZza5BEycsBkW8lKEdG/DgTJQg8CzQIQbUsUoUlmy2Jj9wElS3aAb+0LzizRkO5vXDH5yMarUTYLJoCN4GIQdTIk+F1HZpW1riyOkwl865WtnshCQ0bNdKG9T+qQ7/HlZ31fxU/y3MuVHzMyq2uDycOVGnJTicNc6OAUOMnn3rKcbTOrd5A7fuMVtGOnw3SMUdUJa+Rlr1zlzasmqPxz4zXeQMGhJ56KIKAZoDwHb+PjI8dggBRSEY4nRKiFW/jwzGLU140QY1JKVVOarB40w+RrGycxP0k3vZLaKRfyBltgR0hTSaSqInBpGYGG6CbPdRkXNFrwBL1WLJEMLbPZAiC6cYe5L3Ppgah9KsbwNxJykP+jWQEssuJ1y/8kk2PLKF+NUaIYuCbi+ZEwJ7ulT0wrHmB+SVKEFgnIC9BKdAJKQ0KEQ7CGXIEln7feFClR0yoJGOCPLslPaN9Nv1oSme0kmgR3AStACYFyB9RVm6mCNPcLEFzt7+7I/DfCROclPjV67dRy843q2j7hiSjAVKDdGZWrrZv/0FL37peTZo21ruzZ+8V6hzbE2TnyqFDNfaxsWpweDc16TBExTs2+g6GlMrbfv5Wn7x9szp0aK/Zs2YldCgMRRD4OHDOCyp9yweBF3gyp1RqAcSnTgUR1MPYNKOREnx4qGGDEkIS5hgfb+6GMO1weghKDUsRGDQZUTFRcbOhBDmdRdtLlCD4hVNF22ahA8OgbI6p+RzMW0mGINALUSJkiPQTFmxOk17EhuePz0qQU2sQ0TCftf+VJOCC0OFg6SdRfxCIAQTBTTp06BC4WbvdlyhBoC2/UMtoX7Fq+1Th5taOiXYNjQ7hq7wn8SYBIjLwO4rmMSESBEdFL0E7gFnLLf8KBx00K7F1UNI5932xbfap7r16ORkMj+4yQjXrHaFSJ4Vxecuuio9fLXxMa1ZM0L33jgyMLOCgfGKnTlowf74ObfsnHdisn0865ogycqpr6VvXqaTgB634fLlrKLUJCqEIAh7jsGevcqWxHRLO51VBzmRgXvnb4wkCCzrhXEFlaU3rq/NSoTaPjVCIHy8bK+YEvMyjwikoKOQPwkTYmVsoVnwfiRIEvK85UfrlracvMtz5VfEyeUapviZZgoB3OSrtIGHhpmKgl/ipjqP3JLrZBo3N7XeIMoTZT6Kplwnni4/B576o1iMRn5FkCALFrFCP+gkOgpzc001YTWo6kMuERGNkyowX1oVJkybtDkmEQLD2eCVpIx8JeRTccinwnGjLSnoR4L1q066ttm0v0TG9/ymVRgzU8+kdk9N6JKLSrCx9NPly5VXPdkyfLQIS+a1es0Y9evbU8uVfquVJw1T7gKNVXECJ6z0lK6e6Nv2Yr2Xv3K0BA851kiKZJomLbysUQeBmVKuo/oNO7NgC2WQTTQBCiJBbgpV4gsCYUMGy4fkJp4cgswH3Y77gVOBXKAn1ITHXsWlu+W+qWQaJqVoxUYJA/6jIYyMs3MbEBslY0r0oB+ER+3uyBIG2unTp4kvuuIaU4GgIvOYOdmAYJH6lp4PuDfM7ixzEJ4j0oWWA9LlFDfjlXAgaSzIEgVMymQfjT+PxfeLPEpQSOWicQb/j9Mnm71fxk/TiJF1yy6RJbZL4ZGh+hajQbEIE4qs7QtZIuexWETZoDvb38Ag8/MgjjpnswCP66fA2F+yq+Kjyj2rIyqmmbZu/0ZK3b1Kb1kdr7uy3Ax1W33v/fZ3R/wxtWL9RbXs+qNyqdaVIbN2JDGVVqaH86VeptHCD3p83T619fK6C0AxNEFB1cFoJKr9Kx5AEVPWJnFrwG3ArzuJGEHDIwjHLT3AaCnI8436T1LBkfcM2HMvKsBMRrhSU8hnvck4yfhszJ1y0EX4bgl+xJpPIDvIBQMBMSgbH4opJBxWrV5GioBfO7/dUEAR8MKij4EdgUR9D6LycA6mnAfkL0pTxLMknECYxGN8P5jcIoKlPDJhxGsUvx0+YD++fW2w+pAgHu0ROEskQBMaLtsWtxHHsXFDFm6wp8fMn5BDyZJJoiHcCZ+LYBGfx7fFdgpGbGdUt2yJVLKORD/Ft0Q7txbeFBhFzrYm2K5nvyd67CwG0qi1aHqUf129Q+96jlZ1TS5GSggoBT3a1Ovrigwf103dzHOdhkxosb06apHMHnCtl11f73mNUSHnoX0lCZlaO1n09VV9/NF63UW122LCk5hmaINCbSSKh6Kj4SPCcJiqABEpB6Y55mJgDSG7ktsi7EQQctLDTBgmqTlS1Xgs6qlkYv5+wELHBu/XHCYjiMEGCXRYbdmyxJJzQcIwj8ZNJ9TjszOSedyMatMNJ0i3ve+zYwAGbPQTOa8Mn/wWqezJRgg+LK1EeJi9yEA7xv6eCIHCK5tlgu/eToCRPt956q1POOUjYeLnOK68AZINTNPZqCBmmKcxhEBROqqaCQxyq6qBiYF7tQWS8Mi4GjSFZghAUYhjtH8JFpA9Yum34zJ2smZACvkG0QGj6IOt+hcdi5wcOsabBoLlHf8dsx3OM/94g8ZhIgt632H7wcUD7lA6SbTqffe06yF33Hj1UmllbbbqPUmkxBKH8tQikgi5VqfKnXaUa1TI0/4P5aupTgI3nxgHglluH655771at/Y9Wy87DVFpE9FamMnOqaPHkwTqwQQ3Ne+fdwLL2Qe9BQgSBAaKihiiYCsSAZCaUVcXRMZp/HtUjCyaljdnwYNZsSl4qSTeCwHjIcw5R8BNObPQPU4uNl+Z+1O04SwXFnLvlWY/2SYgUeSBMBO0KZATShOoTYgEOQWrkaNssoiyMbgQhTBU6FmIWKjYfNEM4ckLSyHcBnhADPPsZV5SwxaeZNpmvyTUmIX28J35hiowR8uSXFIexoAVhs/HS5NAP7xRYBAnvNhoqSC1jA1M2EzRWmNnQhIFf9J2GNBNFEpQiPLZf3g3MdUEaKrexYjJjLIloD2jPxAGXDdsrqiPImS92zPjpcLImOgAsowXOli1b5pgR0WDFYsk3DZam5gm+DdaeoPTc8TiybriV4A6jUY22edlll/kW8Qp63+zviSFAboSHH3pIzTtcrgOa9FBJwZbEGkrxXZm5NbTlx0/0yexb1a17d70xcWJgdBjv3eWDB2vsmDFq1OIPTlrpkuIdWvXJy1r16csadtNNGn7LLaG0lG7TSogg0BAfKU47pl75qcLUjSDQNgsHqn+TBZQNkTAmNkPmwQLGhhjkV0E/nAKxc7sJJ21snEFRHqnAAjUl2hBi6bEvcxqN1YwwJ8K6IFupFiIACOGi70SFF5xnhj0YmznPbcSIEU4RHD9hI2AjZoPnVAcOxLfHRsy89NJLvk6I0fYxr/AOYyMHQ/6Oqn2doilXXOFodNIhmAzCEGzGYBIRED9WNlDeE7QApsI3AanhubCRkg44SP1PCC/2ezZfTtSYO2IJCVoWtDLpkLB5Tjjc8I6Ekfiopei9rBk8l6BU37F9uWUDDTMWe21iCJC1sl379iooylK7Xg+HSzqUWJeGd0WUVaWWls+7R1s3fOwcVs8688zAe/k2T+/fXwsWLFSTYy5R3UYdtGDSIDVv3lQLP/xQ1atVC2wj6IKECQINk+KVkywLvcnmGjQYk9+9CAL3sgiRuCQdY2GxI4cBWgY/IfTRNNeByXxNr3ErNsOiFlRG17T9+OvCFJ5y64N3h4gYP4cxk7F5FSxig0okxS/jiY0yMbGfm4zTbeOmL6/Mf25tkjwMVXqY9xvSCIn3Cn106wcfGEpJh+knth3IKtonNIaxYuJMnAiW3BOmBoxJZEXsOCCfmCa8atFgFjElYJCnoIirRDGw9wUjMH3GDCfnRq0DUM3frJJCogAqgKkhI9MxNiyYeAGWAv2wes3ucNqgWR12eGN99+0q1ax/uHZuXqn/vj5BvXufFnSb0e9JEQR6wAZIquOgcqpGozG4CPUtp2I3+x0qXCIVsKsnaqv1GsLNN9/skI8gNS39cqLBXJKM4BeAmhozgom4bdiYS8DjH//4h0kToa7htM3Y/LIA+jUIQUD1baLx8WsHbQbhYvGOYqhxw57+MTfAyqNx7vSLpoSTcZDDYijwfr14yJAhDpkM46zIWCgEZCqYJXgXw+Qk4TTMqThRggAxgCDE+1igYcOUFWT+MZ1b7HX4F1HrJOj75B76x8nXVCCM2LBjo5Zi74WAmYYMW/OCKerpuQ5n8v85/XRNnTJNR550k/bb/6hf7ffp6S9Mq9m5NfXjqnf05fxHdN4fz9NT48YZOd++NXOmevfpo9LSErVu3UZz3n47Zf4tSROEKACEBbGBsqn5lVUNA1jstRADkopQshdVtNdCwAZNHDskwcR+HDQeTnj0Z+pbQHskq0F1ncjmx4kYT2vUzzh3MRcToUokJxk34bkQ2eBXOtikj+g1hHkeeeSRTqppU+ew+PYheRCERE75sW1BECZPnry7cl70N8LmsBuH2eTAHoIQn6eCRYXTL86zYdrzwhRCgHkLMwMEwcQDP9qWSfXS2H5RpROWHEZIuoQGIdHv2IsgMAYcZ/G9AMtUkHjWAb5RUp9DEHiGQcLzxKRk+u4RrogPh5eDNVk8WZuCQjl5zjibUqfBSvkhgF/VyV1OkbL2U9teo3dVSYxEym9Av/bM2pJdNU8fz7hOO3/5Vu/Ne0/HHmuWkfhf//63LrzoIk2ZPFmdDUK0TSebMoJAh9gt8XQnSRJORakQTAqcyDnR8DcbkskpgRMMuQ/8Qpr8xseJi0WSjZeNzKTP2PbwacCGPWPGDGMYWLTYMPCMZxM2qTMRbdxP5c+CSJgZRCdRPOgHmz+bDRsbJ9Mw4X3xIKBBIMOcX74JE+DYENAgcLKOFdpFnRtUfTT2Hp4xm0asBiH6O+PFGQ4zllv4rclYuQY/Gd4rnrHXidSvLU7hmGZMiAo+IryHJptmbJ9E0ZA63KQPt7Hih4B2yStKgw0VUkd4MqWYExGeFVoA1gUch8neGuYbNcmqGB0XEVhBmVVNzCfxqZoTmbe9JzUIPPzIw7r6qqt1YPM+OqztQJUWbCObWGoaT6IVKj4WFW9T/tShql9/P334wQdG5ZlZ56ZOm6Y+AVF4YYeWUoIQ2zkex4R0od7kJM2iQPlKHKBiF+1orDDsnNh8Curg4Y+zH17RJEyKt2WGmSRJb6iRgIqQxZ8TDF75sWNgAWVDpl9U5pz+cWSK5lwP01/8tYQE0j/Od9iccWDkZMa8Of1yWmUh5VRF0pXYzYlwRXweglTQLOQU0jLJXAkebAA8F/BAywIejIl26AtVe/RZcNLFm5wNjYXYqxhOWIzol2I1YcLD3PrgVIZ2BF+BeLnlllscdXwQftH7eCaQDb9Kh4ybUznak2+//dbxw0EzE32utBV9thAoNgVOl7zHOFiG8QXwwhTTRLTksB/unFRN3on4NqZPn26suXLrn/kSKQSh9BNO3Ggr+BPFku/TC0vePdpGnQ+WOBqH0b7EjoXnxjcXpCXhm8BJM6juBnPwq2IbzfiKf0cq65eE/e7s9bsQYN3p1qOHliz9XG17PKCc3LzQpZTTg2VEOdXqavXnr+ub/KfFt/7Qgw+mpyuDVtNGEKJ9s/lADPhDrD8LbHRT4KOBGLCIsiHx4fA3f/j/pgu7wTwdYgBJYQxs1Pyb9lnM2ZQpPBTdFP3KAZv0FX8NGLAgoVZnU+Zv5swCyqLHv91KvoKPaUQEC6VpVkTaZVOLkjbGxjPhvyEs/GFM4ICvB2MLczozxYi5JXpKje0Dguc2Phb/ILVv/Fh5B03eO9qN4sc7jcYi+l5HMQQ7SAJ/h/EBCMIPzEw0I2CSyHNLBHoWstEAAAo2SURBVLfYMYMfz8QER+7D1ACWvJNgyffJN8I8wZLvE9LG9wmWQblUgvCL/m76/pk8OxPMeBZhtTmmc7HXhUdg2vTpjrmnep3D1brbfSrZ+XP4RtJxBwe1nKrKnzpEGZGtjqkhmWyIyQwx7QQhmcHZey0CFgGLgEXAIpAuBC67/HIR1XJ4+4vVsHF3lRbvTFdXodrNzM5VwY6N+njGtWrYsL4WffhhuRT2sgQh1GOzF1sELAIWAYvAbwUBTFsnnXKyfli/Tcf/v/Eq3rk5JVrN5PGJKLtaXX23ZLy+++QV3UkdkBtuSL7ZkC1YghASMHu5RcAiYBGwCPx2EHj8iSecKLV6Bx2v5idQInlLhXBYjERKlZGV7aRhzs0u1Ky33kqJD1OYJ2cJQhi07LUWAYuARcAi8JtDgNwIEydMUKtTblJe3RYVIuwRkDNzqqlw23otmjpYTZs10+IFCwIrPqby4ViCkEo0bVsWAYuARcAiUOkQcArcndpFkaz6OqbPGBVt31BBSAKmhjr6euEY/bhyhh64/wENvuKKMsPXEoQyg9p2ZBGwCFgELAIVFYFrr7tODz30oBo276vGrc9XSeG2CjHUiCKOqWHhGxdLKtLyZZ+r8WGHlcnYLEEoE5htJxYBi4BFwCJQkREg3LZL11P13rz31bbHKFWt0UCR0tIKMeSsnGr6eeMKfTZ7uLp1O1X/efVVJ+w33WIJQroRtu1bBCwCFgGLQKVA4I0339QZ/furVv2WOrrrPSrctqGCjJs0zPtp2bx7tXnth3rxhReNKj4mO3hLEJJF0N5vEbAIWAQsAr8JBEhAdtEll+jZ8ePVuN2fdWCTviop2lEh5pZBxcfMDC2adJmqV83Ugg8/VNMmTdI6NksQ0gqvbdwiYBGwCFgEKhMClANo066dvv76e7U7jWJqVaVIeZsaIsrIrqJNq+drxfx/qmu3LnrlX//yTQufCswtQUgFirYNi4BFwCJgEfjNIPDY2LEacuUQ1Tn4RB3V6SYVbP2hXOeWoQxl5FbXojcu1v71a+idOXNEMbZ0iyUI6UbYtm8RsAhYBCwClQoBTA19+/2Ppk+drCM6Xqc6DY9VpKSwnOYQUXaVWlr27p3atG6xRv9ztAZdckmZjMUShDKB2XZiEbAIWAQsApUJgVXff69jO3TQlu0ZOrbvYyra+Qvn+DKeQkTKytWG7+boywWP6X/POVsvv/BimY3BEoQyg9p2ZBGwCFgELAKVBQEqdN5x5526/fbb1ah5HzVue7FTq6EsJSMrR4pIi6Zcrnp1qunduXPVuHHjMhuCJQhlBrXtyCJgEbAIWAQqGwJtjzlGS/Lz1br73aqe97syzLAYUVZunpbO+pt2/PKdxo0bpz+dd16ZwmcJQpnCbTuzCFgELAIWgcqEwLx589S33x8UyW6otr0eVuHWH8tg+LvyHqxd8Ya+XPSELhk0SGPHPFYG/e7ZhSUIZQ657dAiYBGwCFgEKgsCkUhEF150scaPf1qN2w3Ugc367ar4mEbJyMxWaaREH00ZrDp1quvdOXPUJM05D9ymYwlCGh+ybdoiYBGwCFgEKj8C27Zt07HHHacVy79Qu9MeVE5OLZG4KB1CmeesKjX10dQh2rn1B82dPVsdO3ZMR1eBbVqCEAiRvcAiYBGwCFgE9nUE/jthgs455xzV3L+1WnW5U4Vpyo2QXbWW1nzxhr5Z/JQGDRqkR0ePLjfoLUEoN+htxxYBi4BFwCJQWRAgquGULl2ET0Lz31+t+gefqJKi1FZ8pGpjUeFWLZp0qTKzsrR29WrVr1ev3CCyBKHcoLcdWwQsAhYBi0BlQmDjxo2OqeH7VWvVrvc/lZWZI6UsN0JEGTnVtHTmjcosXq+JEyfqpM6dyxUeSxDKFX7buUXAImARsAhUJgTGPPaYBg8ZrAMad1WLE/6mgq1rU0ASIsqpXk/fL3tN3+Q/pQsuuEhPjB2rjIyyTsy055OwBKEyvZl2rBYBi4BFwCJQrghs3bZNPXv21PwPF6hFpxtUu/7RKi0pSGpMRC1s27JKn759i5o2bazZb7+tBgcckFSbqbjZEoRUoGjbsAhYBCwCFoF9BoGff/5ZTZo21dbtEbXv+6gixUVJzT2rSp4+mjpUmSUbNHfuO2rbpk1S7aXqZksQUoWkbcciYBGwCFgE9gkEyI1w6/Dhuuuuu9SoxRlq3Hagirb/lNDcc6rW1spPntPqZf/RpZdeqoceeEDZ2dkJtZXqmyxBSDWitj2LgEXAImAR+M0jsGPHDrU55hh99cUKte42UtXzDlaktDjcvDOztH3zSn088+86unUbLV64oMKQAyZiCUK4x2mvtghYBCwCFgGLgIPAR/n56tKli0qzD1DbHg+oaMemUI6FVfIaOiGNWaUb9ebEieWWEMnrcVqCYF90i4BFwCJgEbAIJIBAcXGxBl95pZ544gkd3u4CHdi0r4oLfjFoKaKsKrW0Mn+c1qyYrKFDh+q+UaNCkQuDTpK+xBKEpCG0DVgELAIWAYvAvopAYVGRDj3sMP247gcd0+efysmpGRj2SJrmrT9/paUzb1HHzp01e9YsZWVlVTgILUGocI/EDsgiYBGwCFgEKhMCkyZP1tnnnK0q+7VQq1Pu8HdYzMhUTpVaWjxlsEqL1mvmWzP1++OPr5DTtQShQj4WOyiLgEXAImARqCwIENXQs1cvvTVzhlp0vF71D/q9igu2ug4/s0pNffHB/frp+/d107CbNPzWWyvsNC1BqLCPxg7MImARsAhYBCoLAmvXrdMJHU/U6u9/UNvTHlJOVrW9TA2ZOdX08w9L9OncEerRs7umTp5SoadnCUKFfjx2cBYBi4BFwCJQWRB47oUXdOEF56vOQR11ZOeb9qj4iN9BZm4NLZo0SBmRrZo5460Ka1qI4m0JQmV58+w4LQIWAYuARaBCI7B9+3Z17d5dCxcsUotO16v2AW1UUrRDmCCyq+bp83l3a+PqhRr3xBMaOHBghZ4Lg7MEocI/IjtAi4BFwCJgEagsCGz46Se1bHWUNm3covZ9H1OmMpSZU0M//7hEy969Wz17dtfrr72m3NzcCj8lSxAq/COyA7QIWAQsAhaByoTAqPvv14033KCGTXur2XFDtHP7ei2eNEglpQX6bMlSNW/evFJMxxKESvGY7CAtAhYBi4BFoLIgsGXLFnU6+WR9uvRTHd3tXq1ZPkG/rJuvMWPG6Py//KWyTMOaGCrNk7IDtQhYBCwCFoFKg8DGjRvVuMnh2rZ9uxSROnbqpBlTp1YK00IUZKtBqDSvmx2oRcAiYBGwCFQWBHBMHHbzzRo56l41aNBQs2e9rWZNm1aW4TvjtAShUj0uO1iLgEXAImARqCwIlJaWqnbdunrmqad0xhlnVJZh7x6nJQiV7pHZAVsELAIWAYtAZUFg2bJlOvjgg5WXl1dZhmwJQqV7UnbAFgGLgEXAImARKEMErAahDMG2XVkELAIWAYuARaCyIPD/AVthr8Tv/mn4AAAAAElFTkSuQmCC;" parent="1" vertex="1">
                    <mxGeometry x="497.28" y="287.57" width="53.44" height="49.74" as="geometry"/>
                </mxCell>
                <mxCell id="19" value="hostpath PVC: /mnt/hostpath" style="rounded=0;whiteSpace=wrap;html=1;verticalAlign=bottom;fillColor=default;" parent="1" vertex="1">
                    <mxGeometry x="667" y="391" width="170" height="20" as="geometry"/>
                </mxCell>
            </root>
        </mxGraphModel>
    </diagram>
</mxfile>